<svg id="Layer_1" data-name="Layer 1" xmlns="http://www.w3.org/2000/svg" viewBox="0 0 60 60"><defs><style>.cls-1{fill:#00b8de;}</style></defs><path class="cls-1" d="M35.38,12.29l.83,1.34A1.52,1.52,0,0,0,39,13.19,1.57,1.57,0,0,0,38.81,12L36.16,7.75a1.53,1.53,0,0,0-2.1-.5L29.78,9.89a1.53,1.53,0,1,0,1.6,2.6l1-.59A34.57,34.57,0,0,1,6.19,34a1.5,1.5,0,0,0,.26,3l.27,0A37.57,37.57,0,0,0,35.38,12.29Z"/><path class="cls-1" d="M14.4,41.24H11.9a3.5,3.5,0,0,0-3.5,3.5v6.82a3.5,3.5,0,0,0,3.5,3.5h2.5a3.5,3.5,0,0,0,3.5-3.5V44.74A3.5,3.5,0,0,0,14.4,41.24Zm.5,10.32a.51.51,0,0,1-.5.5H11.9a.5.5,0,0,1-.5-.5V44.74a.5.5,0,0,1,.5-.5h2.5a.51.51,0,0,1,.5.5Z"/><path class="cls-1" d="M25.63,36.56h-2.5a3.5,3.5,0,0,0-3.5,3.5v11.5a3.5,3.5,0,0,0,3.5,3.5h2.5a3.5,3.5,0,0,0,3.5-3.5V40.06A3.5,3.5,0,0,0,25.63,36.56Zm.5,15a.5.5,0,0,1-.5.5h-2.5a.51.51,0,0,1-.5-.5V40.06a.5.5,0,0,1,.5-.5h2.5a.5.5,0,0,1,.5.5Z"/><path class="cls-1" d="M36.87,27.42h-2.5a3.5,3.5,0,0,0-3.5,3.5V51.56a3.5,3.5,0,0,0,3.5,3.5h2.5a3.5,3.5,0,0,0,3.5-3.5V30.92A3.5,3.5,0,0,0,36.87,27.42Zm.5,24.14a.51.51,0,0,1-.5.5h-2.5a.5.5,0,0,1-.5-.5V30.92a.5.5,0,0,1,.5-.5h2.5a.5.5,0,0,1,.5.5Z"/><path class="cls-1" d="M48.1,4.94H45.6a3.5,3.5,0,0,0-3.5,3.5V51.56a3.5,3.5,0,0,0,3.5,3.5h2.5a3.5,3.5,0,0,0,3.5-3.5V8.44A3.5,3.5,0,0,0,48.1,4.94Zm.5,46.62a.5.5,0,0,1-.5.5H45.6a.51.51,0,0,1-.5-.5V8.44a.51.51,0,0,1,.5-.5h2.5a.5.5,0,0,1,.5.5Z"/></svg>