<svg id="Layer_1" data-name="Layer 1" xmlns="http://www.w3.org/2000/svg" viewBox="0 0 60 60"><defs><style>.cls-1{fill:#00b8de;}</style></defs><path class="cls-1" d="M52.17,31.81h-2.5V28.54a3.5,3.5,0,0,0-3.5-3.5H31.5V21.27H34a3.5,3.5,0,0,0,3.5-3.5v-8A3.5,3.5,0,0,0,34,6.27H26a3.5,3.5,0,0,0-3.5,3.5v8a3.5,3.5,0,0,0,3.5,3.5h2.5V25H13.83a3.5,3.5,0,0,0-3.5,3.5v3.27H7.83a3.5,3.5,0,0,0-3.5,3.5v8a3.5,3.5,0,0,0,3.5,3.5h8a3.5,3.5,0,0,0,3.5-3.5v-8a3.5,3.5,0,0,0-3.5-3.5h-2.5V28.54a.5.5,0,0,1,.5-.5H28.5v3.77H26a3.5,3.5,0,0,0-3.5,3.5v8a3.5,3.5,0,0,0,3.5,3.5h8a3.5,3.5,0,0,0,3.5-3.5v-8a3.5,3.5,0,0,0-3.5-3.5H31.5V28H46.17a.5.5,0,0,1,.5.5v3.27h-2.5a3.5,3.5,0,0,0-3.5,3.5v8a3.5,3.5,0,0,0,3.5,3.5h8a3.5,3.5,0,0,0,3.5-3.5v-8A3.5,3.5,0,0,0,52.17,31.81Zm-26.67-14v-8a.5.5,0,0,1,.5-.5h8a.51.51,0,0,1,.5.5v8a.5.5,0,0,1-.5.5H26A.5.5,0,0,1,25.5,17.77ZM16.33,35.31v8a.51.51,0,0,1-.5.5h-8a.5.5,0,0,1-.5-.5v-8a.5.5,0,0,1,.5-.5h8A.5.5,0,0,1,16.33,35.31Zm18.17,0v8a.51.51,0,0,1-.5.5H26a.5.5,0,0,1-.5-.5v-8a.5.5,0,0,1,.5-.5h8A.5.5,0,0,1,34.5,35.31Zm18.17,8a.5.5,0,0,1-.5.5h-8a.51.51,0,0,1-.5-.5v-8a.5.5,0,0,1,.5-.5h8a.5.5,0,0,1,.5.5Z"/></svg>