<svg id="Layer_1" data-name="Layer 1" xmlns="http://www.w3.org/2000/svg" viewBox="0 0 60 60"><defs><style>.cls-1{fill:#00b8de;}</style></defs><path class="cls-1" d="M32.47,32.64a3.5,3.5,0,0,0-4.94,0l-9.27,9.27a3.5,3.5,0,0,0,2.47,6h2.36a.5.5,0,0,1,.5.5v5.82a3.51,3.51,0,0,0,3.5,3.5h5.82a3.5,3.5,0,0,0,3.5-3.5V48.39a.5.5,0,0,1,.5-.5h2.36a3.5,3.5,0,0,0,2.47-6Zm7.26,11.94a.48.48,0,0,1-.46.31H36.91a3.5,3.5,0,0,0-3.5,3.5v5.82a.51.51,0,0,1-.5.5H27.09a.51.51,0,0,1-.5-.5V48.39a3.5,3.5,0,0,0-3.5-3.5H20.73a.48.48,0,0,1-.46-.31.47.47,0,0,1,.11-.55l9.27-9.26a.48.48,0,0,1,.7,0L39.62,44A.47.47,0,0,1,39.73,44.58Z"/><path class="cls-1" d="M27.52,27.35a3.5,3.5,0,0,0,4.95,0l9.27-9.27a3.5,3.5,0,0,0-2.47-6H36.91a.5.5,0,0,1-.5-.5V3.79a1.5,1.5,0,0,0-1.5-1.5H25.09a1.5,1.5,0,0,0-1.5,1.5v7.82a.5.5,0,0,1-.5.5H20.73a3.5,3.5,0,0,0-2.47,6ZM20.27,15.42a.47.47,0,0,1,.46-.31h2.36a3.5,3.5,0,0,0,3.5-3.5V5.29h6.82v6.32a3.5,3.5,0,0,0,3.5,3.5h2.36a.5.5,0,0,1,.35.86l-9.27,9.26a.48.48,0,0,1-.7,0L20.38,16A.47.47,0,0,1,20.27,15.42Z"/></svg>