<svg id="Layer_1" data-name="Layer 1" xmlns="http://www.w3.org/2000/svg" viewBox="0 0 60 60"><defs><style>.cls-1{fill:#00b8de;}</style></defs><path class="cls-1" d="M15.57,35.26a2.86,2.86,0,0,0-2.32-1.21,2.78,2.78,0,0,0-2.33,1.18L6.23,41.75A2.85,2.85,0,0,0,8.4,46.26V53.2a2.86,2.86,0,0,0,2.85,2.85H15A2.86,2.86,0,0,0,17.9,53.2V46.26a2.84,2.84,0,0,0,2.23-4.48ZM14.9,46.12v6.93H11.4V46.12a2.86,2.86,0,0,0-2.58-2.84l4.41-6.12,4.29,6.11A2.86,2.86,0,0,0,14.9,46.12Z"/><path class="cls-1" d="M32.42,19.83a2.87,2.87,0,0,0-2.32-1.22h0a2.85,2.85,0,0,0-2.32,1.19l-4.68,6.5a2.86,2.86,0,0,0,2.17,4.52V53.2a2.86,2.86,0,0,0,2.86,2.85H31.9a2.86,2.86,0,0,0,2.85-2.85V30.82A2.86,2.86,0,0,0,37,26.33Zm-.67,10.85V53.05h-3.5V30.68a2.85,2.85,0,0,0-2.58-2.84l4.41-6.13,4.29,6.12A2.88,2.88,0,0,0,31.75,30.68Z"/><path class="cls-1" d="M53.83,11.21l-4.56-6.5A2.87,2.87,0,0,0,47,3.49h0a2.87,2.87,0,0,0-2.32,1.18l-4.68,6.51a2.86,2.86,0,0,0,2.18,4.52V53.2A2.86,2.86,0,0,0,45,56.05h3.79a2.86,2.86,0,0,0,2.86-2.85V15.7a2.86,2.86,0,0,0,2.22-4.49Zm-5.22,4.35V53.05h-3.5V15.56a2.86,2.86,0,0,0-2.59-2.84l4.41-6.13,4.29,6.12A2.87,2.87,0,0,0,48.61,15.56Z"/></svg>