<svg id="Layer_1" data-name="Layer 1" xmlns="http://www.w3.org/2000/svg" viewBox="0 0 60 60"><defs><style>.cls-1{fill:#00b8de;}</style></defs><path class="cls-1" d="M55,3.5H34.32A1.5,1.5,0,0,0,32.82,5V25.68a1.5,1.5,0,0,0,1.5,1.5H55a1.5,1.5,0,0,0,1.5-1.5V5A1.5,1.5,0,0,0,55,3.5ZM53.5,24.18H35.82V6.5H53.5Z"/><path class="cls-1" d="M25.68,3.5H5A1.5,1.5,0,0,0,3.5,5V25.68A1.5,1.5,0,0,0,5,27.18H25.68a1.51,1.51,0,0,0,1.5-1.5V5A1.5,1.5,0,0,0,25.68,3.5Zm-1.5,20.68H6.5V6.5H24.18Z"/><path class="cls-1" d="M25.68,32.82H5a1.5,1.5,0,0,0-1.5,1.5V55A1.5,1.5,0,0,0,5,56.5H25.68a1.5,1.5,0,0,0,1.5-1.5V34.32A1.51,1.51,0,0,0,25.68,32.82ZM24.18,53.5H6.5V35.82H24.18Z"/><path class="cls-1" d="M44.66,32.79A11.84,11.84,0,1,0,56.5,44.63,11.85,11.85,0,0,0,44.66,32.79Zm0,20.67a8.84,8.84,0,1,1,8.84-8.83A8.85,8.85,0,0,1,44.66,53.46Z"/></svg>