<svg id="Layer_1" data-name="Layer 1" xmlns="http://www.w3.org/2000/svg" viewBox="0 0 60 60"><defs><style>.cls-1{fill:#00b8de;}</style></defs><path class="cls-1" d="M55,3.5H5A1.5,1.5,0,0,0,3.5,5V55A1.5,1.5,0,0,0,5,56.5H55A1.5,1.5,0,0,0,56.5,55V5A1.5,1.5,0,0,0,55,3.5Zm-1.5,50H6.5V6.5h47Z"/><path class="cls-1" d="M13.14,48.3h10a1.5,1.5,0,0,0,1.5-1.5v-10a1.36,1.36,0,0,0-.05-.36,1.84,1.84,0,0,0,.41.06H35a1.84,1.84,0,0,0,.41-.06,1.36,1.36,0,0,0,0,.36v10a1.5,1.5,0,0,0,1.5,1.5h10a1.5,1.5,0,0,0,1.5-1.5v-10a1.5,1.5,0,0,0-1.5-1.5h-10a1.76,1.76,0,0,0-.41.06,1.36,1.36,0,0,0,0-.36V25a1.42,1.42,0,0,0-.07-.42,1.54,1.54,0,0,0,.43.06h10a1.5,1.5,0,0,0,1.5-1.5v-10a1.51,1.51,0,0,0-1.5-1.5h-10a1.5,1.5,0,0,0-1.5,1.5v10a1.25,1.25,0,0,0,.07.43A1.55,1.55,0,0,0,35,23.5H25a1.55,1.55,0,0,0-.43.07,1.25,1.25,0,0,0,.07-.43v-10a1.5,1.5,0,0,0-1.5-1.5h-10a1.51,1.51,0,0,0-1.5,1.5v10a1.5,1.5,0,0,0,1.5,1.5h10a1.54,1.54,0,0,0,.43-.06,1.42,1.42,0,0,0-.07.42V35a1.36,1.36,0,0,0,.05.36,1.76,1.76,0,0,0-.41-.06h-10a1.5,1.5,0,0,0-1.5,1.5v10A1.5,1.5,0,0,0,13.14,48.3Zm25.22-10h7v7h-7Zm0-23.66h7v7h-7ZM26.5,26.5h7v7h-7Zm-4.86-4.86h-7v-7h7Zm-7,16.66h7v7h-7Z"/></svg>