<svg xmlns="http://www.w3.org/2000/svg" width="1em" height="1em" viewBox="0 0 25 25">
    <g fill="none" fill-rule="evenodd">
        <g fill-rule="nonzero">
            <g>
                <g>
                    <g>
                        <g>
                            <path fill="#FAA61A" d="M0 5.07L0 5.07 0 15.2 0 15.2 8.78 20.26 8.78 9.75z" transform="translate(-147 -348) translate(135 336) translate(2.5 2.5) translate(10 10) translate(3 2)" />
                            <path fill="#FDB913" d="M8.78 0L0 5.07 8.78 9.75 17.55 5.07z" transform="translate(-147 -348) translate(135 336) translate(2.5 2.5) translate(10 10) translate(3 2)" />
                            <path fill="#F7941D" d="M8.78 9.75L8.78 20.26 17.55 15.2 17.55 5.07z" transform="translate(-147 -348) translate(135 336) translate(2.5 2.5) translate(10 10) translate(3 2)" />
                        </g>
                    </g>
                </g>
            </g>
        </g>
    </g>
</svg>
