<?xml version="1.0" encoding="utf-8"?>
<!-- Generator: Adobe Illustrator 24.2.3, SVG Export Plug-In . SVG Version: 6.00 Build 0)  -->
<svg version="1.1" id="Layer_1" xmlns="http://www.w3.org/2000/svg" xmlns:xlink="http://www.w3.org/1999/xlink" x="0px" y="0px" viewBox="0 0 447.2 87.1" style="enable-background:new 0 0 447.2 87.1;" xml:space="preserve">
  <style type="text/css">
	.blockfint-white-0{fill:#FFFFFF;}
	.blockfint-white-1{fill:#FAA61A;}
	.blockfint-white-2{fill:#FDB913;}
	.blockfint-white-3{fill:#F7941D;}
</style>
  <g>
    <g>
      <path class="blockfint-white-0" d="M32.5,81c-9.4,0-15.4-4.8-19.4-10.1v8.9H0V0.6h13.1v31.5c4.2-6,10.2-10.7,19.4-10.7
			c13.6,0,26.7,10.7,26.7,29.8C59.2,70.3,46.2,81,32.5,81z M29.5,32.8c-8.9,0-16.7,7.3-16.7,18.4c0,11.2,7.8,18.4,16.7,18.4
			c9,0,16.4-7,16.4-18.4C45.9,39.9,38.4,32.8,29.5,32.8z" />
      <path class="blockfint-white-0" d="M69.8,79.8V0.6h13.1v79.2H69.8z" />
      <path class="blockfint-white-0" d="M190.7,81.1c-17,0-29.6-13.3-29.6-29.7c0-16.4,12.6-30,29.7-30c10.8,0,17.6,4,22.9,9.9l-8.1,8.8
			c-4-4.2-8.2-7.2-14.9-7.2c-9.5,0-16.5,8.2-16.5,18.3c0,10.3,7.1,18.6,17.1,18.6c6.2,0,10.7-2.9,14.9-7.2l7.9,7.8
			C208.5,76.7,201.9,81.1,190.7,81.1z" />
      <path class="blockfint-white-0" d="M276.1,79.8h-15.2l-17.3-24.7l-8,8.3v16.4h-13.1V0.6h13.1v47.3l23.8-25.4h15.9l-22.8,23.3L276.1,79.8z" />
      <path class="blockfint-white-0" d="M315.9,23v10.8h-15v46h-13.1v-46H277l10.7-11l0,0v-4.1c0-12.6,6.3-18.8,17.6-18.8c4.5,0,7.7,0.6,10.6,1.5
			v11.1c-2.6-0.9-4.9-1.4-7.7-1.4c-5,0-7.6,2.7-7.6,8.7V23H315.9z" />
      <path class="blockfint-white-0" d="M326,13.8V1.3h14.1v12.5H326z M326.5,79.8V22.6h13.1v57.3H326.5z" />
      <path class="blockfint-white-0" d="M365.3,79.8h-13.1V22.6h13.1v8.9c3.7-5.4,9-10.1,17.9-10.1c12.9,0,20.4,8.7,20.4,22v36.5h-13.1V47.3
			c0-8.9-4.5-14-12.3-14c-7.6,0-12.9,5.3-12.9,14.2V79.8z" />
      <path class="blockfint-white-0" d="M431.8,61.9c0,5.1,2.6,7.2,7.1,7.2c2.9,0,5.5-0.7,8.1-2v10.7c-3.3,1.8-6.9,2.9-11.8,2.9
			c-9.7,0-16.5-4.2-16.5-16.8V33.8h-7.3V22.6h7.3V6.8h13.1v15.7h15.4v11.3h-15.4V61.9z" />
    </g>
    <polygon class="blockfint-white-1" points="94.1,37.8 94.1,37.8 94.1,70.7 94.1,70.7 122.6,87.1 122.6,53 	" />
    <polygon class="blockfint-white-2" points="122.6,21.4 94.1,37.8 122.6,53 151.1,37.8 	" />
    <polygon class="blockfint-white-3" points="122.6,53 122.6,87.1 151.1,70.7 151.1,37.8 	" />
  </g>
</svg>
