<?xml version="1.0" encoding="utf-8"?>
<!-- Generator: Adobe Illustrator 25.3.1, SVG Export Plug-In . SVG Version: 6.00 Build 0)  -->
<svg version="1.1" xmlns="http://www.w3.org/2000/svg" xmlns:xlink="http://www.w3.org/1999/xlink" x="0px" y="0px"
	 viewBox="0 0 760 760" style="enable-background:new 0 0 760 760;" xml:space="preserve">
<style type="text/css">
	.st0{fill:#2468F5;}
	.st1{fill:#FFFFFF;}
	.st2{fill:#76C9ED;}
	.st3{opacity:0.6;fill:#A9C7F9;enable-background:new    ;}
	.st4{fill-rule:evenodd;clip-rule:evenodd;fill:#333333;}
	.st5{fill:#333333;}
	.st6{fill-rule:evenodd;clip-rule:evenodd;fill:#FFFFFF;}
	.st7{fill:#7BC8BE;}
	.st8{fill:#3159DC;}
</style>
<g id="guide">
</g>
<g id="Layer_2">
	<g>
		<g>
			<g>
				<path class="st7" d="M316.9,323.4c-18.5-17.9-27.7-41.6-27.6-65.4h-54.4c-0.1,38,14.7,76,44.2,104.5
					c45.4,43.9,112.1,52.3,165.6,25.6v-66.4C409.9,357.3,352.8,358.1,316.9,323.4z"/>
			</g>
			<g>
				<path class="st8" d="M480.2,153.3c-58.4-55.7-150.1-53.4-205.6,5.2c-26.4,27.9-39.6,63.7-39.7,99.4h54.4
					c0.1-23.4,9.2-46.9,27.4-64.6c34.6-33.8,90.2-34.2,125.4-1.1c36.9,34.7,38.2,92.8,3,129.1c-0.1,0.1-0.3,0.3-0.4,0.4v0L372,396.9
					c-2,2.1-3.1,4.8-3.1,7.7l0.6,46.3c0.1,9.7,11.9,14.4,18.7,7.4l19.7-20.4l76.1-78.6l0,0c0.1-0.1,0.1-0.1,0.2-0.2
					C540.2,301.3,538.4,209,480.2,153.3z"/>
			</g>
		</g>
		<g>
			<path d="M172.4,550.6l-27.6,64.9c-0.6,1.6-1.5,2.9-2.7,3.8c-1.2,0.9-2.6,1.3-4,1.3c-2.3,0-4-0.6-5.1-1.9
				c-1.1-1.3-1.7-2.9-1.7-4.7c0-0.8,0.1-1.6,0.4-2.4l31.8-76.5c0.7-1.7,1.7-3,3.1-4c1.4-0.9,2.9-1.3,4.5-1.2c1.5,0,3,0.4,4.3,1.3
				c1.3,0.9,2.3,2.2,2.9,3.8l31.5,74.9c0.4,1.1,0.6,2.1,0.6,3.1c0,2.3-0.7,4.1-2.2,5.5c-1.5,1.4-3.1,2-4.9,2c-1.5,0-2.9-0.5-4.2-1.4
				c-1.2-0.9-2.2-2.2-2.9-3.8l-27.5-64.1L172.4,550.6z M148.8,600l7-14.7h34.5l2.4,14.7H148.8z"/>
			<path d="M247.7,550.3c3.6,0,6.9,0.6,9.8,1.7c3,1.1,5.6,2.5,7.7,4.2c2.2,1.7,3.9,3.4,5.1,5.2c1.2,1.7,1.9,3.2,1.9,4.4l-3.3,1.7
				v-9.3c0-2.2,0.7-4.1,2.2-5.6c1.4-1.5,3.3-2.2,5.5-2.2c2.2,0,4,0.7,5.5,2.2c1.4,1.5,2.2,3.3,2.2,5.6V615c0,7.4-1.6,13.4-4.8,17.8
				s-7.4,7.7-12.6,9.7c-5.2,2-10.8,3-16.7,3c-1.7,0-3.9-0.2-6.6-0.6c-2.7-0.4-5.3-0.9-7.8-1.5c-2.5-0.6-4.3-1.2-5.6-1.7
				c-2.6-1.1-4.3-2.5-5.3-4.2c-1-1.7-1.2-3.4-0.6-5.3c0.8-2.5,2-4.2,3.7-5c1.7-0.9,3.5-1,5.4-0.3c0.9,0.3,2.3,0.8,4.2,1.5
				c2,0.8,4.1,1.5,6.5,2.1c2.3,0.6,4.4,1,6.2,1c6.4,0,11.1-1.3,14.2-3.8s4.6-6.1,4.6-10.6V606l1.5,1.2c0,1.1-0.6,2.5-1.7,4
				c-1.2,1.6-2.7,3.1-4.7,4.7c-2,1.5-4.4,2.8-7.1,3.9c-2.7,1.1-5.6,1.6-8.7,1.6c-6.1,0-11.5-1.5-16.4-4.5c-4.9-3-8.7-7.2-11.5-12.5
				c-2.8-5.3-4.2-11.4-4.2-18.3c0-7,1.4-13.1,4.2-18.5c2.8-5.3,6.6-9.5,11.4-12.5C236.5,551.9,241.9,550.3,247.7,550.3z
				 M250.2,564.4c-3.8,0-7.2,0.9-10.1,2.8c-2.9,1.9-5.2,4.4-6.8,7.7c-1.6,3.2-2.4,6.9-2.4,11c0,4,0.8,7.6,2.4,10.9
				c1.6,3.2,3.9,5.8,6.8,7.7c2.9,1.9,6.3,2.8,10.1,2.8c3.9,0,7.3-0.9,10.2-2.8c2.9-1.9,5.2-4.4,6.8-7.7c1.6-3.2,2.4-6.9,2.4-10.9
				c0-4.1-0.8-7.8-2.4-11c-1.6-3.2-3.9-5.8-6.8-7.7C257.5,565.3,254.1,564.4,250.2,564.4z"/>
			<path d="M308.6,620c-2.2,0-4-0.7-5.5-2.2c-1.5-1.5-2.2-3.3-2.2-5.6v-52.8c0-2.2,0.7-4.1,2.2-5.6c1.4-1.5,3.3-2.2,5.5-2.2
				c2.2,0,4,0.7,5.5,2.2c1.4,1.5,2.2,3.3,2.2,5.6v12l-0.9-8.6c0.9-2,2.2-3.9,3.6-5.4c1.5-1.6,3.2-2.9,5-4c1.9-1.1,3.9-1.9,6-2.4
				c2.1-0.5,4.3-0.8,6.4-0.8c2.6,0,4.7,0.7,6.5,2.2c1.7,1.5,2.6,3.2,2.6,5.1c0,2.8-0.7,4.8-2.2,6.1c-1.5,1.2-3,1.9-4.7,1.9
				c-1.6,0-3.1-0.3-4.4-0.9c-1.3-0.6-2.8-0.9-4.5-0.9c-1.5,0-3.1,0.4-4.7,1.1c-1.6,0.7-3,1.9-4.3,3.4c-1.3,1.5-2.4,3.4-3.2,5.7
				c-0.8,2.3-1.2,4.9-1.2,8v30.3c0,2.2-0.7,4.1-2.2,5.6C312.6,619.3,310.8,620,308.6,620z"/>
			<path d="M363.1,543.3c-2.9,0-4.9-0.5-6.1-1.4c-1.2-0.9-1.8-2.6-1.8-5v-2.4c0-2.5,0.7-4.2,2-5c1.3-0.9,3.3-1.3,6.1-1.3
				c3,0,5.1,0.5,6.3,1.4c1.2,0.9,1.8,2.6,1.8,5v2.4c0,2.5-0.6,4.2-1.9,5C368,542.9,366,543.3,363.1,543.3z M370.9,612.2
				c0,2.2-0.7,4.1-2.2,5.6c-1.5,1.5-3.3,2.2-5.5,2.2c-2.2,0-4-0.7-5.5-2.2c-1.5-1.5-2.2-3.3-2.2-5.6v-52.8c0-2.2,0.7-4.1,2.2-5.6
				c1.4-1.5,3.3-2.2,5.5-2.2c2.2,0,4,0.7,5.5,2.2c1.4,1.5,2.2,3.3,2.2,5.6V612.2z"/>
			<path d="M387.4,552.9h30.3c2,0,3.7,0.7,5.1,2c1.4,1.4,2,3.1,2,5.1c0,2-0.7,3.6-2,4.9c-1.4,1.3-3.1,2-5.1,2h-30.3
				c-2,0-3.8-0.7-5.1-2c-1.4-1.4-2-3.1-2-5.1c0-2,0.7-3.6,2-4.9C383.6,553.6,385.3,552.9,387.4,552.9z M401,536.9
				c2.2,0,4,0.7,5.4,2.2c1.4,1.5,2.1,3.3,2.1,5.6v56.9c0,1.2,0.2,2.2,0.7,2.9c0.5,0.8,1.1,1.3,1.9,1.7c0.8,0.3,1.7,0.5,2.6,0.5
				c1,0,2-0.2,2.8-0.6c0.9-0.4,1.8-0.6,2.9-0.6c1.2,0,2.3,0.6,3.3,1.7c1,1.1,1.5,2.6,1.5,4.6c0,2.4-1.3,4.3-3.9,5.9
				c-2.6,1.5-5.4,2.3-8.4,2.3c-1.8,0-3.8-0.1-5.9-0.4c-2.2-0.3-4.2-1-6.1-2.2s-3.5-2.9-4.8-5.3c-1.3-2.4-1.9-5.7-1.9-9.8v-57.5
				c0-2.2,0.7-4.1,2.2-5.6C397,537.7,398.8,536.9,401,536.9z"/>
			<path d="M446.5,620c-2.2,0-4-0.7-5.5-2.2c-1.5-1.5-2.2-3.3-2.2-5.6v-52.8c0-2.2,0.7-4.1,2.2-5.6c1.4-1.5,3.3-2.2,5.5-2.2
				c2.2,0,4,0.7,5.5,2.2c1.4,1.5,2.2,3.3,2.2,5.6v12l-0.9-8.6c0.9-2,2.2-3.9,3.6-5.4c1.5-1.6,3.2-2.9,5-4c1.9-1.1,3.9-1.9,6-2.4
				c2.1-0.5,4.3-0.8,6.4-0.8c2.6,0,4.7,0.7,6.5,2.2c1.7,1.5,2.6,3.2,2.6,5.1c0,2.8-0.7,4.8-2.2,6.1c-1.5,1.2-3,1.9-4.7,1.9
				c-1.6,0-3.1-0.3-4.4-0.9c-1.3-0.6-2.8-0.9-4.5-0.9c-1.5,0-3.1,0.4-4.7,1.1c-1.6,0.7-3,1.9-4.3,3.4c-1.3,1.5-2.4,3.4-3.2,5.7
				c-0.8,2.3-1.2,4.9-1.2,8v30.3c0,2.2-0.7,4.1-2.2,5.6C450.6,619.3,448.8,620,446.5,620z"/>
			<path d="M548.2,550.3c2.2,0,4,0.7,5.5,2.2c1.4,1.5,2.2,3.3,2.2,5.6v54.1c0,2.2-0.7,4.1-2.2,5.6c-1.5,1.5-3.3,2.2-5.5,2.2
				c-2.2,0-4-0.7-5.5-2.2c-1.5-1.5-2.2-3.3-2.2-5.6V606l2.8,1.2c0,1.1-0.6,2.5-1.8,4c-1.2,1.6-2.8,3.1-4.9,4.7s-4.5,2.8-7.2,3.9
				c-2.8,1.1-5.8,1.6-9,1.6c-5.9,0-11.2-1.5-16-4.5c-4.8-3-8.5-7.2-11.3-12.5c-2.8-5.3-4.2-11.4-4.2-18.3c0-7,1.4-13.1,4.2-18.5
				c2.8-5.3,6.5-9.5,11.2-12.5c4.7-3,9.9-4.5,15.6-4.5c3.7,0,7,0.6,10.1,1.7c3.1,1.1,5.7,2.5,8,4.2c2.3,1.7,4,3.4,5.2,5.2
				c1.2,1.7,1.9,3.2,1.9,4.4l-4.6,1.7v-9.3c0-2.2,0.7-4.1,2.2-5.6C544.1,551.1,546,550.3,548.2,550.3z M522.4,607.2
				c3.7,0,7-0.9,9.8-2.8c2.8-1.9,5-4.4,6.6-7.7c1.6-3.2,2.4-6.9,2.4-10.9c0-4.1-0.8-7.8-2.4-11c-1.6-3.2-3.8-5.8-6.6-7.7
				c-2.8-1.9-6.1-2.8-9.8-2.8c-3.7,0-6.9,0.9-9.7,2.8c-2.8,1.9-5,4.4-6.6,7.7c-1.6,3.2-2.4,6.9-2.4,11c0,4,0.8,7.6,2.4,10.9
				c1.6,3.2,3.8,5.8,6.6,7.7C515.5,606.3,518.7,607.2,522.4,607.2z"/>
			<path d="M602.3,550.3c4.9,0,9.1,0.5,12.7,1.5c3.6,1,6.4,2.5,8.4,4.3c2,1.8,3,4,3,6.6c0,1.7-0.5,3.3-1.5,4.8
				c-1,1.5-2.5,2.2-4.5,2.2c-1.4,0-2.5-0.2-3.4-0.6c-0.9-0.4-1.7-0.9-2.4-1.5c-0.7-0.6-1.5-1.2-2.4-1.7c-0.9-0.5-2.2-0.9-3.9-1.2
				c-1.7-0.3-3-0.4-3.9-0.4c-4.3,0-8,0.9-11.1,2.8c-3,1.9-5.3,4.4-7,7.6c-1.6,3.2-2.4,6.9-2.4,11.1c0,4.1,0.8,7.7,2.5,10.9
				c1.7,3.2,4,5.7,6.9,7.6c2.9,1.9,6.3,2.8,10.2,2.8c2.1,0,4-0.1,5.5-0.4s2.8-0.6,3.8-1.2c1.2-0.7,2.3-1.4,3.2-2.2
				c0.9-0.8,2.3-1.2,4.2-1.2c2.2,0,3.9,0.7,5.1,2.1c1.2,1.4,1.8,3.1,1.8,5.2c0,2.1-1.2,4.1-3.6,5.8c-2.4,1.7-5.5,3.2-9.4,4.2
				c-3.9,1.1-8.1,1.6-12.6,1.6c-6.7,0-12.6-1.6-17.5-4.7c-4.9-3.1-8.8-7.4-11.4-12.7c-2.7-5.4-4-11.4-4-18c0-7,1.4-13.1,4.3-18.5
				c2.9-5.3,6.8-9.5,11.9-12.5C589.9,551.9,595.7,550.3,602.3,550.3z"/>
		</g>
	</g>
</g>
</svg>
