<?xml version="1.0" encoding="utf-8"?>
<!-- Generator: Adobe Illustrator 25.3.1, SVG Export Plug-In . SVG Version: 6.00 Build 0)  -->
<svg version="1.1" id="Layer_1" xmlns="http://www.w3.org/2000/svg" xmlns:xlink="http://www.w3.org/1999/xlink" x="0px" y="0px" width="2em" height="2em" viewBox="0 0 760 760" style="enable-background:new 0 0 760 760;" xml:space="preserve">
  <style type="text/css">
	.st0{fill:#7BC8BE;}
	.st1{fill:#3159DC;}
</style>
  <g id="guide"></g>
  <g>
    <g>
      <g>
        <path class="st0" d="M271.9,441.8c-31.7-30.7-47.5-71.3-47.3-112h-93.2c-0.2,65.1,25.2,130.2,75.7,179
				c77.8,75.2,192,89.6,283.7,43.9V438.9C431.3,499.9,333.4,501.3,271.9,441.8z" />
      </g>
      <g>
        <path class="st1" d="M551.7,150.4c-100-95.4-257.1-91.5-352.2,8.9c-45.2,47.8-67.8,109.1-68,170.3h93.2
				c0.2-40.1,15.8-80.3,46.9-110.7c59.3-57.9,154.5-58.6,214.8-1.9c63.2,59.4,65.4,159,5.1,221.2c-0.2,0.2-0.5,0.5-0.7,0.7l0,0
				L366.3,567.7c-3.4,3.6-5.3,8.2-5.3,13.2l1,79.3c0.2,16.6,20.4,24.7,32,12.7l33.7-34.9l130.4-134.7l0,0c0.2-0.2,0.2-0.2,0.3-0.3
				C654.5,404,651.4,245.8,551.7,150.4z" />
      </g>
    </g>
  </g>
</svg>
