<?xml version="1.0" encoding="utf-8"?>
<!-- Generator: Adobe Illustrator 25.3.1, SVG Export Plug-In . SVG Version: 6.00 Build 0)  -->
<svg version="1.1" xmlns="http://www.w3.org/2000/svg" xmlns:xlink="http://www.w3.org/1999/xlink" x="0px" y="0px" viewBox="0 0 760 760" style="enable-background:new 0 0 760 760;" xml:space="preserve">
  <style type="text/css">
	.st0{fill:#2468F5;}
	.st1{fill:#FFFFFF;}
	.st2{fill:#76C9ED;}
	.st3{opacity:0.6;fill:#A9C7F9;enable-background:new    ;}
	.st4{fill-rule:evenodd;clip-rule:evenodd;fill:#333333;}
	.st5{fill:#333333;}
	.st6{fill-rule:evenodd;clip-rule:evenodd;fill:#FFFFFF;}
	.st7{fill:#7BC8BE;}
	.st8{fill:#3159DC;}
</style>
  <g id="guide"></g>
  <g id="Layer_2">
    <g>
      <g>
        <g>
          <path class="st7" d="M316.9,323.4c-18.5-17.9-27.7-41.6-27.6-65.4h-54.4c-0.1,38,14.7,76,44.2,104.5
					c45.4,43.9,112.1,52.3,165.6,25.6v-66.4C409.9,357.3,352.8,358.1,316.9,323.4z" />
        </g>
        <g>
          <path class="st8" d="M480.2,153.3c-58.4-55.7-150.1-53.4-205.6,5.2c-26.4,27.9-39.6,63.7-39.7,99.4h54.4
					c0.1-23.4,9.2-46.9,27.4-64.6c34.6-33.8,90.2-34.2,125.4-1.1c36.9,34.7,38.2,92.8,3,129.1c-0.1,0.1-0.3,0.3-0.4,0.4v0L372,396.9
					c-2,2.1-3.1,4.8-3.1,7.7l0.6,46.3c0.1,9.7,11.9,14.4,18.7,7.4l19.7-20.4l76.1-78.6l0,0c0.1-0.1,0.1-0.1,0.2-0.2
					C540.2,301.3,538.4,209,480.2,153.3z" />
        </g>
      </g>
    </g>
  </g>
</svg>
