<svg xmlns="http://www.w3.org/2000/svg" width="25" height="25" viewBox="0 0 25 25">
    <defs>
        <radialGradient id="9jyft05apa" cx="100%" cy="0%" r="191.591%" fx="100%" fy="0%" gradientTransform="scale(-1 -.6119) rotate(-58.537 0 1.784)">
            <stop offset="0%" stop-color="#38EF7D"/>
            <stop offset="100%" stop-color="#11998E"/>
        </radialGradient>
    </defs>
    <g fill="none" fill-rule="evenodd">
        <g fill="url(#9jyft05apa)" transform="translate(-607 -3442)">
            <g>
                <g>
                    <g>
                        <g>
                            <g>
                                <path d="M13.123 1.357c.066.023.19.022.335.014l.454-.033c.145-.008.269-.007.333.019l-.083 1-.144 1.933-.082.958-.064.645-.075.654-.089.666c-.29 2.024-.807 4.275-1.894 7.221l-.567 1.497-.58 1.51-.313.798-.32.806-.327.798-.327.776c-.434 1.013-.86 1.927-1.231 2.58l-.137.232-1.122.127c-.04-3.506-.804-6.964-2.244-10.15C3.53 11.407 1.93 9.728 0 8.526c.141-.404.264-.816.372-1.23.225.06.45.125.673.192l1.1.327.443.122.451.112c1.446.334 3.065.453 5.222-.222 2.456-.77 3.409-2.412 4.16-4.432l.177-.492.525-1.546zM7.388.278c1.687 0 3.054 1.392 3.054 3.108 0 1.717-1.367 3.108-3.054 3.108-1.686 0-3.053-1.391-3.054-3.108C4.334 1.67 5.702.278 7.388.278z" transform="translate(405 3248) translate(190 182) translate(2.5 2.5) translate(10 10) translate(4)"/>
                            </g>
                        </g>
                    </g>
                </g>
            </g>
        </g>
    </g>
</svg>
