<svg width="25" height="24" viewBox="0 0 25 24" fill="none" xmlns="http://www.w3.org/2000/svg">
  <g clip-path="url(#clip0)">
    <path d="M3 6.07784L6.40797 4.06208L15.9627 9.73892L12.5547 11.7547L3 6.07784Z" fill="#3F6CAF" />
    <path d="M6.43319 4.10737L3 6.07781V17.3231L6.43319 15.3527V4.10737Z" fill="#2F3D5B" />
    <path d="M15.9627 20.9842L12.5547 23L3 17.3232L6.40797 15.3054L15.9627 20.9842Z" fill="#3F6CAF" />
    <path d="M20.9998 17.9222L17.5919 19.9379L8.03906 14.2611L11.447 12.2433L20.9998 17.9222Z" fill="#3F6CAF" />
    <path d="M17.5669 19.8926L21.0001 17.9222V6.67685L17.5669 8.64729V19.8926Z" fill="#2F3D5B" />
    <path d="M8.03711 3.01577L11.4451 1L20.9998 6.67685L17.5919 8.69261L8.03711 3.01577Z" fill="#3F6CAF" />
  </g>
  <defs>
    <clipPath id="clip0">
      <rect width="18" height="22" fill="white" transform="matrix(1 0 0 -1 3 23)" />
    </clipPath>
  </defs>
</svg>
