<svg width="24" height="24" viewBox="0 0 24 24" fill="none" xmlns="http://www.w3.org/2000/svg">
<path d="M12.9061 14.1961C10.3765 10.0672 6.52894 3.81132 6.52894 3.81132C6.07837 2.99342 5.32572 2.39044 4.43656 2.13504C3.5474 1.87964 2.59456 1.99273 1.78765 2.44943C0.980749 2.90614 0.385881 3.66905 0.133912 4.57033C-0.118057 5.47162 -0.00648734 6.43745 0.444077 7.25535L8.95135 21.1887C10.3002 23.6367 13.7377 23.5676 15.0484 21.1887L18.9139 14.8587C15.3407 18.134 12.9061 14.1961 12.9061 14.1961Z" fill="url(#paint0_linear)"/>
<path d="M23.5566 7.25486C24.0072 6.43696 24.1187 5.47113 23.8668 4.56985C23.6148 3.66856 23.0199 2.90565 22.213 2.44895C21.4061 1.99224 20.4533 1.87915 19.5641 2.13455C18.675 2.38996 17.9223 2.99293 17.4717 3.81083C17.4717 3.81083 14.4484 8.72582 12 12.7181L12.9055 14.1948C12.9055 14.1948 15.3417 18.1343 18.9148 14.8574L23.5566 7.25486Z" fill="url(#paint1_linear)"/>
<defs>
<linearGradient id="paint0_linear" x1="0.000685622" y1="12.5004" x2="18.9147" y2="12.5004" gradientUnits="userSpaceOnUse">
<stop stop-color="#4DC7FA"/>
<stop offset="1" stop-color="#00FFFF"/>
</linearGradient>
<linearGradient id="paint1_linear" x1="15.4708" y1="13.9264" x2="19.5517" y2="7.14615" gradientUnits="userSpaceOnUse">
<stop stop-color="#256A94"/>
<stop offset="1" stop-color="#4DC7FA"/>
</linearGradient>
</defs>
</svg>
