<svg width="1030" height="482" viewBox="0 0 1030 482" fill="none" xmlns="http://www.w3.org/2000/svg">
<g filter="url(#filter0_dii)">
<rect x="198.5" y="104.075" width="555.918" height="373.302" rx="42.99" transform="rotate(-10.6853 198.5 104.075)" fill="white"/>
</g>
<path d="M386.757 145.558C390.452 144.861 393.343 143.077 395.112 140.447C395.41 140.004 395.251 139.414 394.797 139.134L392.422 137.67C391.943 137.375 391.321 137.537 390.986 137.989C389.798 139.589 388.198 140.589 386.201 140.966C381.838 141.789 378.17 139.35 377.351 135.012C376.533 130.674 379.06 127.066 383.423 126.243C385.42 125.866 387.275 126.215 388.96 127.251C389.436 127.544 390.069 127.466 390.405 127.02L392.086 124.788C392.408 124.36 392.338 123.75 391.896 123.448C389.296 121.672 385.961 121.067 382.301 121.757C375.04 123.128 370.58 129.108 371.889 136.043C373.197 142.977 379.53 146.922 386.757 145.558Z" fill="url(#paint0_linear)"/>
<path d="M405.492 137.19C404.949 137.293 404.426 136.936 404.324 136.393L403.69 133.034C403.587 132.491 403.944 131.968 404.487 131.866L413.347 130.194C413.889 130.092 414.246 129.569 414.144 129.026L413.733 126.851C413.631 126.308 413.108 125.951 412.565 126.053L403.706 127.725C403.163 127.827 402.64 127.471 402.538 126.928L401.966 123.898C401.863 123.355 402.22 122.832 402.763 122.73L413.055 120.788C413.598 120.685 413.955 120.162 413.852 119.62L413.417 117.312C413.314 116.77 412.791 116.413 412.249 116.515L396.594 119.469C396.052 119.571 395.695 120.094 395.797 120.637L399.767 141.677C399.87 142.22 400.393 142.577 400.935 142.474L417.023 139.439C417.565 139.337 417.922 138.814 417.82 138.271L417.385 135.964C417.282 135.421 416.759 135.064 416.216 135.167L405.492 137.19Z" fill="url(#paint1_linear)"/>
<path d="M441.051 134.905C441.848 134.755 442.144 133.768 441.561 133.204L437.218 129.003C436.759 128.559 436.832 127.807 437.312 127.386C439.409 125.55 440.319 122.984 439.751 119.971C438.777 114.811 434.278 112.358 428.05 113.534L418.94 115.253C418.398 115.355 418.041 115.878 418.143 116.421L422.113 137.461C422.216 138.004 422.739 138.361 423.281 138.258L426.712 137.611C427.254 137.508 427.611 136.985 427.509 136.443L426.671 131.999C426.568 131.457 426.925 130.934 427.468 130.831L431.182 130.131C431.349 130.099 431.52 130.151 431.642 130.27L436.781 135.278C437.015 135.505 437.344 135.605 437.665 135.544L441.051 134.905ZM434.288 121.002C434.759 123.499 433.379 125.325 430.082 125.948L426.668 126.592C426.125 126.694 425.602 126.337 425.5 125.794L424.358 119.741C424.255 119.198 424.612 118.675 425.155 118.573L428.569 117.928C431.866 117.306 433.811 118.471 434.288 121.002Z" fill="url(#paint2_linear)"/>
<path d="M451.11 131.99C451.213 132.532 451.736 132.889 452.278 132.787L455.709 132.139C456.252 132.037 456.609 131.514 456.506 130.971L453.355 114.269C453.252 113.727 453.609 113.204 454.152 113.101L459.648 112.064C460.19 111.962 460.547 111.439 460.445 110.896L459.997 108.523C459.895 107.981 459.372 107.624 458.829 107.726L440.477 111.189C439.934 111.291 439.577 111.814 439.679 112.357L440.127 114.73C440.23 115.273 440.752 115.63 441.295 115.527L446.791 114.49C447.333 114.388 447.856 114.745 447.959 115.287L451.11 131.99Z" fill="url(#paint3_linear)"/>
<path d="M466.87 129.016C466.973 129.559 467.496 129.916 468.038 129.813L471.469 129.166C472.012 129.063 472.368 128.54 472.266 127.998L468.296 106.957C468.194 106.415 467.671 106.058 467.128 106.16L463.697 106.808C463.155 106.91 462.798 107.433 462.9 107.976L466.87 129.016Z" fill="url(#paint4_linear)"/>
<path d="M491.087 106.064C491.63 105.962 491.987 105.439 491.884 104.896L491.449 102.589C491.347 102.046 490.824 101.689 490.281 101.792L474.627 104.745C474.084 104.848 473.727 105.371 473.829 105.913L477.799 126.954C477.902 127.496 478.425 127.853 478.967 127.751L482.398 127.104C482.941 127.001 483.298 126.478 483.195 125.936L481.985 119.52C481.882 118.978 482.239 118.455 482.782 118.352L491.608 116.687C492.151 116.584 492.508 116.061 492.405 115.519L491.97 113.212C491.868 112.669 491.345 112.312 490.802 112.414L481.976 114.08C481.433 114.182 480.91 113.825 480.808 113.283L480.031 109.168C479.929 108.625 480.286 108.102 480.829 108L491.087 106.064Z" fill="url(#paint5_linear)"/>
<path d="M499.072 122.94C499.174 123.483 499.697 123.84 500.24 123.737L503.67 123.09C504.213 122.987 504.57 122.464 504.468 121.922L500.498 100.882C500.395 100.339 499.872 99.9819 499.33 100.084L495.899 100.732C495.356 100.834 495 101.357 495.102 101.9L499.072 122.94Z" fill="url(#paint6_linear)"/>
<path d="M521.419 120.149C525.114 119.452 528.004 117.669 529.774 115.038C530.071 114.595 529.913 114.005 529.459 113.725L527.083 112.261C526.605 111.967 525.982 112.129 525.647 112.58C524.46 114.18 522.859 115.181 520.863 115.557C516.5 116.381 512.831 113.942 512.013 109.603C511.194 105.265 513.721 101.657 518.085 100.834C520.081 100.457 521.936 100.806 523.621 101.843C524.097 102.135 524.731 102.057 525.067 101.611L526.747 99.3797C527.07 98.9517 527 98.3412 526.558 98.0391C523.958 96.2638 520.622 95.6582 516.963 96.3488C509.701 97.7188 505.242 103.7 506.55 110.634C507.859 117.569 514.191 121.513 521.419 120.149Z" fill="url(#paint7_linear)"/>
<path d="M551.212 113.495C551.434 113.831 551.836 114.002 552.232 113.927L555.717 113.269C556.431 113.135 556.767 112.307 556.35 111.712L542.845 92.4711C542.62 92.1498 542.227 91.9902 541.841 92.0629L537.78 92.8292C537.394 92.9021 537.086 93.1944 536.994 93.5764L531.459 116.41C531.288 117.116 531.903 117.763 532.617 117.628L535.97 116.995C536.366 116.921 536.678 116.616 536.762 116.221L537.62 112.203C537.704 111.809 538.016 111.504 538.412 111.429L547.93 109.634C548.326 109.559 548.728 109.729 548.95 110.065L551.212 113.495ZM540.206 106.905C539.504 107.037 538.893 106.411 539.043 105.713L540.264 100.008C540.45 99.1408 541.588 98.9261 542.076 99.6656L545.293 104.533C545.687 105.13 545.346 105.935 544.644 106.067L540.206 106.905Z" fill="url(#paint8_linear)"/>
<path d="M563.133 110.852C563.236 111.395 563.758 111.752 564.301 111.65L567.732 111.002C568.274 110.9 568.631 110.377 568.529 109.834L565.377 93.1323C565.275 92.5896 565.632 92.0666 566.175 91.9642L571.67 90.9273C572.213 90.8249 572.57 90.3019 572.468 89.7592L572.02 87.3863C571.917 86.8436 571.394 86.4867 570.852 86.5891L552.499 90.0519C551.957 90.1543 551.6 90.6773 551.702 91.22L552.15 93.5928C552.252 94.1356 552.775 94.4925 553.318 94.3901L558.814 93.3532C559.356 93.2508 559.879 93.6077 559.982 94.1504L563.133 110.852Z" fill="url(#paint9_linear)"/>
<path d="M584.618 103.392C584.075 103.494 583.552 103.137 583.449 102.594L582.816 99.2357C582.713 98.693 583.07 98.17 583.613 98.0676L592.473 96.3959C593.015 96.2935 593.372 95.7705 593.27 95.2278L592.859 93.0521C592.757 92.5094 592.234 92.1525 591.691 92.2549L582.832 93.9266C582.289 94.029 581.766 93.672 581.663 93.1293L581.092 90.0992C580.989 89.5565 581.346 89.0335 581.889 88.9311L592.181 86.9892C592.724 86.8868 593.081 86.3638 592.978 85.8211L592.543 83.5139C592.44 82.9712 591.917 82.6143 591.375 82.7167L575.72 85.6705C575.178 85.7729 574.821 86.2958 574.923 86.8385L578.893 107.879C578.995 108.421 579.518 108.778 580.061 108.676L596.149 105.641C596.691 105.538 597.048 105.015 596.946 104.472L596.51 102.165C596.408 101.623 595.885 101.266 595.342 101.368L584.618 103.392Z" fill="url(#paint10_linear)"/>
<path opacity="0.3" d="M560.809 357.397L579.295 329.986L604.997 317.032L537.417 243.149L494.288 284.659L560.809 357.397Z" fill="#4288E6"/>
<path opacity="0.3" d="M499.474 368.97L472.258 350.182L443.615 347.482L479.613 254.055L534.916 276.993L499.474 368.97Z" fill="#4288E6"/>
<path d="M503.203 160.23C505.588 161.805 508.335 162.745 511.185 162.962C514.036 163.178 516.894 162.664 519.49 161.467C523.445 159.633 527.96 159.414 532.074 160.855C536.189 162.296 539.579 165.283 541.524 169.183C542.803 171.737 544.714 173.923 547.074 175.534C549.435 177.144 552.168 178.126 555.014 178.386C559.356 178.778 563.373 180.845 566.216 184.148C569.059 187.451 570.504 191.731 570.245 196.081C570.069 198.933 570.627 201.782 571.865 204.357C573.104 206.932 574.981 209.147 577.319 210.791C580.883 213.302 583.328 217.102 584.136 221.385C584.944 225.668 584.052 230.097 581.649 233.734C580.073 236.118 579.132 238.865 578.917 241.714C578.703 244.563 579.22 247.419 580.421 250.011C582.248 253.969 582.463 258.483 581.019 262.596C579.576 266.71 576.588 270.101 572.687 272.052C570.13 273.329 567.942 275.239 566.33 277.599C564.718 279.959 563.737 282.692 563.478 285.538C563.085 289.877 561.016 293.893 557.71 296.733C554.404 299.573 550.122 301.015 545.771 300.752C542.918 300.582 540.069 301.142 537.494 302.38C534.918 303.618 532.701 305.493 531.053 307.827C528.54 311.389 524.738 313.833 520.453 314.642C516.168 315.45 511.737 314.559 508.099 312.158C505.713 310.585 502.966 309.647 500.116 309.433C497.266 309.219 494.409 309.735 491.815 310.933C487.857 312.764 483.342 312.983 479.227 311.543C475.111 310.103 471.719 307.117 469.768 303.219C468.495 300.66 466.586 298.471 464.224 296.86C461.862 295.249 459.127 294.27 456.278 294.016C451.936 293.621 447.918 291.552 445.077 288.246C442.235 284.94 440.794 280.658 441.057 276.307C441.228 273.456 440.668 270.608 439.43 268.034C438.192 265.46 436.317 263.244 433.983 261.597C430.419 259.085 427.974 255.286 427.166 251.003C426.358 246.72 427.25 242.291 429.654 238.653C431.228 236.269 432.168 233.523 432.383 230.674C432.598 227.825 432.081 224.969 430.881 222.376C429.051 218.422 428.834 213.911 430.276 209.799C431.718 205.687 434.705 202.298 438.605 200.35C441.164 199.075 443.353 197.166 444.965 194.805C446.577 192.445 447.558 189.711 447.814 186.865C448.207 182.523 450.277 178.505 453.586 175.663C456.894 172.822 461.18 171.381 465.534 171.647C468.387 171.815 471.236 171.252 473.811 170.012C476.386 168.772 478.602 166.896 480.249 164.561C482.762 160.999 486.564 158.554 490.849 157.746C495.134 156.937 499.565 157.828 503.203 160.23Z" fill="#DCEBFC"/>
<path opacity="0.2" d="M503.561 172.175C505.573 173.502 507.89 174.292 510.294 174.472C512.697 174.652 515.107 174.215 517.294 173.202C520.635 171.664 524.445 171.486 527.914 172.708C531.383 173.93 534.239 176.456 535.877 179.748C536.95 181.905 538.559 183.75 540.549 185.108C542.54 186.466 544.845 187.291 547.246 187.504C550.913 187.828 554.309 189.567 556.712 192.354C559.116 195.141 560.338 198.754 560.118 202.427C559.973 204.83 560.444 207.23 561.487 209.399C562.529 211.568 564.11 213.435 566.077 214.823C569.083 216.938 571.145 220.141 571.827 223.752C572.508 227.363 571.755 231.097 569.727 234.162C568.399 236.171 567.607 238.485 567.426 240.886C567.245 243.286 567.682 245.693 568.694 247.877C570.236 251.216 570.414 255.025 569.191 258.494C567.968 261.963 565.439 264.818 562.142 266.453C559.988 267.53 558.144 269.139 556.785 271.128C555.427 273.117 554.599 275.42 554.381 277.818C554.056 281.481 552.317 284.873 549.531 287.276C546.746 289.678 543.134 290.901 539.461 290.685C537.059 290.532 534.658 290.993 532.484 292.026C530.31 293.058 528.435 294.628 527.036 296.586C524.919 299.59 521.714 301.652 518.102 302.334C514.489 303.016 510.753 302.263 507.687 300.237C505.685 298.902 503.375 298.102 500.976 297.91C498.577 297.718 496.169 298.142 493.979 299.142C490.639 300.684 486.828 300.862 483.358 299.64C479.888 298.418 477.032 295.891 475.397 292.596C474.317 290.444 472.706 288.603 470.717 287.246C468.728 285.889 466.426 285.061 464.028 284.84C460.362 284.519 456.967 282.781 454.563 279.997C452.16 277.212 450.938 273.6 451.157 269.929C451.305 267.525 450.833 265.124 449.788 262.954C448.743 260.784 447.158 258.919 445.186 257.536C442.186 255.416 440.127 252.214 439.447 248.605C438.766 244.996 439.515 241.263 441.537 238.196C442.868 236.189 443.663 233.874 443.846 231.473C444.029 229.072 443.594 226.664 442.582 224.479C441.039 221.138 440.86 217.328 442.083 213.857C443.306 210.386 445.834 207.529 449.131 205.891C451.286 204.814 453.13 203.205 454.488 201.216C455.846 199.227 456.674 196.924 456.892 194.526C457.214 190.862 458.953 187.468 461.739 185.065C464.525 182.662 468.139 181.44 471.812 181.659C474.216 181.805 476.617 181.334 478.788 180.291C480.959 179.248 482.827 177.668 484.214 175.7C486.35 172.716 489.563 170.68 493.174 170.022C496.785 169.364 500.51 170.136 503.561 172.175Z" fill="#4288E6"/>
<path opacity="0.2" d="M503.096 198.18L515.251 220.529C515.434 220.848 515.712 221.103 516.047 221.259C516.382 221.414 516.757 221.463 517.122 221.398L542.34 216.64C542.7 216.58 543.07 216.633 543.398 216.792C543.725 216.951 543.995 217.208 544.169 217.526C544.342 217.845 544.411 218.21 544.367 218.57C544.322 218.93 544.165 219.268 543.918 219.536L526.354 238.148C526.099 238.413 525.937 238.753 525.891 239.116C525.846 239.48 525.919 239.849 526.1 240.167L538.263 262.554C538.445 262.88 538.517 263.255 538.469 263.625C538.421 263.995 538.254 264.34 537.994 264.61C537.734 264.879 537.394 265.059 537.024 265.123C536.655 265.187 536.274 265.131 535.939 264.964L512.777 254.115C512.439 253.969 512.065 253.927 511.702 253.995C511.34 254.064 511.007 254.239 510.746 254.498L493.091 273.049C492.836 273.311 492.505 273.487 492.144 273.553C491.784 273.619 491.412 273.572 491.08 273.417C490.749 273.262 490.475 273.007 490.297 272.69C490.119 272.372 490.045 272.006 490.087 271.644L493.255 246.365C493.302 246.002 493.233 245.635 493.059 245.314C492.885 244.994 492.613 244.736 492.283 244.577L469.106 233.652C468.776 233.491 468.505 233.23 468.333 232.907C468.16 232.584 468.094 232.216 468.144 231.853C468.194 231.49 468.358 231.152 468.612 230.886C468.866 230.621 469.197 230.441 469.559 230.373L494.739 225.622C495.105 225.554 495.44 225.374 495.696 225.106C495.952 224.838 496.116 224.496 496.165 224.13L499.34 198.889C499.247 198.394 499.355 197.882 499.641 197.466C499.927 197.05 500.368 196.763 500.866 196.669C501.364 196.575 501.879 196.681 502.297 196.965C502.715 197.248 503.003 197.685 503.096 198.18Z" fill="#005DDB"/>
<g filter="url(#filter1_dii)">
<path d="M234.083 398.503C236.894 400.019 240.429 400.025 243.253 398.533C320.192 357.621 325.986 277.076 326.016 254.168C326.017 252.326 325.48 250.525 324.472 248.984C323.465 247.443 322.029 246.229 320.342 245.492L243.359 210.998C242.134 210.451 240.808 210.167 239.467 210.163C238.126 210.159 236.798 210.435 235.57 210.974L158.833 244.815C157.164 245.539 155.739 246.727 154.727 248.238C153.715 249.749 153.159 251.519 153.124 253.337C152.702 276.13 156.948 356.89 234.083 398.503Z" fill="url(#paint11_linear)"/>
</g>
<g filter="url(#filter2_dii)">
<path fill-rule="evenodd" clip-rule="evenodd" d="M287.231 264.98C291.916 269.638 291.938 277.212 287.28 281.898L237.269 332.195C232.744 336.746 225.434 336.915 220.703 332.579L197.484 311.299C192.614 306.835 192.284 299.268 196.748 294.397C201.212 289.527 208.779 289.197 213.65 293.661L228.401 307.181L270.313 265.028C274.972 260.343 282.546 260.321 287.231 264.98Z" fill="white"/>
</g>
<g filter="url(#filter3_dii)">
<path d="M756.658 284.191C780.681 284.191 806.64 300.384 810.58 335.086C811.275 341.213 815.851 346.301 821.709 348.225C862.673 361.683 850.839 420 812.186 420H671.372C634.269 420 617.99 367.887 651.727 346.46C656.604 343.363 659.561 337.769 660.64 332.094C663.577 316.655 680.126 306.623 695.573 313.894C700.664 316.29 707.483 315.268 710.508 310.525C717.93 298.89 731.853 284.191 756.658 284.191Z" fill="url(#paint12_linear)"/>
</g>
<g filter="url(#filter4_dii)">
<path d="M704.488 360.144C704.383 356.99 704.694 353.842 705.408 350.782C705.999 348.244 708.805 347.08 711.191 348.129C713.378 349.09 714.407 351.577 713.963 353.925C712.928 359.392 713.598 365.083 715.94 370.206C717.633 373.992 720.18 377.333 723.381 379.97C726.124 382.23 729.284 383.92 732.675 384.947C733.644 385.24 734.648 384.689 734.993 383.737L737.235 377.551C737.801 375.991 739.911 375.758 740.802 377.158L751.07 393.281C751.795 394.42 751.207 395.935 749.904 396.286L731.739 401.192C730.151 401.62 728.753 400.057 729.357 398.527L730.37 395.96C730.807 394.851 730.182 393.612 729.053 393.231C728.689 393.108 728.325 392.979 727.963 392.844C723.504 391.182 719.419 388.653 715.945 385.401C712.471 382.15 709.676 378.242 707.722 373.904C705.745 369.576 704.645 364.899 704.488 360.144Z" fill="white"/>
</g>
<g filter="url(#filter5_dii)">
<path d="M769.223 370.347C771.548 371.221 774.172 370.051 774.756 367.636C775.516 364.485 775.849 361.24 775.741 357.986C775.583 353.231 774.484 348.554 772.507 344.226C770.553 339.888 767.758 335.98 764.284 332.728C760.81 329.477 756.725 326.947 752.267 325.285C751.893 325.145 751.517 325.011 751.14 324.884C750.023 324.507 749.397 323.29 749.811 322.187L750.927 319.213C751.504 317.675 750.083 316.135 748.503 316.588L730.297 321.808C729.006 322.179 728.44 323.692 729.171 324.819L739.454 340.669C740.347 342.045 742.426 341.82 743.004 340.285L745.225 334.381C745.58 333.438 746.584 332.898 747.547 333.195C750.663 334.156 753.586 335.671 756.173 337.672C759.226 340.033 761.742 343.016 763.554 346.424C765.366 349.831 766.433 353.585 766.683 357.437C766.836 359.785 766.683 362.137 766.233 364.434C765.755 366.875 766.894 369.471 769.223 370.347Z" fill="white"/>
</g>
<g filter="url(#filter6_ii)">
<path d="M704.006 83.2187L705.043 33.6653C705.225 24.9611 712.333 18 721.039 18H754.929C759.764 18 763.769 21.7533 764.082 26.5784C764.396 31.4035 768.401 35.1568 773.236 35.1568H832.005C847.469 35.1568 860.005 47.6929 860.005 63.1568V115C860.005 130.464 847.469 143 832.005 143H742.513C721.864 143 704.994 126.511 704.523 105.867L704.006 83.2187Z" fill="url(#paint13_linear)"/>
</g>
<g filter="url(#filter7_ii)">
<rect x="710.272" y="40.5043" width="143.048" height="98.9303" rx="18" fill="url(#paint14_linear)"/>
</g>
<g filter="url(#filter8_ii)">
<path d="M695.092 66.769C693.456 54.7614 702.79 44.0697 714.909 44.0697L830.404 44.0697C840.407 44.0697 848.871 51.4594 850.221 61.3704L858.248 120.301C859.884 132.308 850.55 143 838.431 143H722.936C712.933 143 704.469 135.61 703.119 125.699L695.092 66.769Z" fill="url(#paint15_linear)"/>
</g>
<defs>
<filter id="filter0_dii" x="198.113" y="0.612549" width="626.268" height="480.679" filterUnits="userSpaceOnUse" color-interpolation-filters="sRGB">
<feFlood flood-opacity="0" result="BackgroundImageFix"/>
<feColorMatrix in="SourceAlpha" type="matrix" values="0 0 0 0 0 0 0 0 0 0 0 0 0 0 0 0 0 0 127 0" result="hardAlpha"/>
<feOffset dx="5" dy="5"/>
<feGaussianBlur stdDeviation="7"/>
<feColorMatrix type="matrix" values="0 0 0 0 0.436042 0 0 0 0 0.558133 0 0 0 0 0.670833 0 0 0 0.5 0"/>
<feBlend mode="normal" in2="BackgroundImageFix" result="effect1_dropShadow"/>
<feBlend mode="normal" in="SourceGraphic" in2="effect1_dropShadow" result="shape"/>
<feColorMatrix in="SourceAlpha" type="matrix" values="0 0 0 0 0 0 0 0 0 0 0 0 0 0 0 0 0 0 127 0" result="hardAlpha"/>
<feOffset dx="-6" dy="-6"/>
<feGaussianBlur stdDeviation="5"/>
<feComposite in2="hardAlpha" operator="arithmetic" k2="-1" k3="1"/>
<feColorMatrix type="matrix" values="0 0 0 0 0.680903 0 0 0 0 0.785364 0 0 0 0 0.883333 0 0 0 1 0"/>
<feBlend mode="normal" in2="shape" result="effect2_innerShadow"/>
<feColorMatrix in="SourceAlpha" type="matrix" values="0 0 0 0 0 0 0 0 0 0 0 0 0 0 0 0 0 0 127 0" result="hardAlpha"/>
<feOffset dx="6" dy="6"/>
<feGaussianBlur stdDeviation="5"/>
<feComposite in2="hardAlpha" operator="arithmetic" k2="-1" k3="1"/>
<feColorMatrix type="matrix" values="0 0 0 0 1 0 0 0 0 1 0 0 0 0 1 0 0 0 1 0"/>
<feBlend mode="normal" in2="effect2_innerShadow" result="effect3_innerShadow"/>
</filter>
<filter id="filter1_dii" x="120.227" y="198.657" width="238.662" height="258.516" filterUnits="userSpaceOnUse" color-interpolation-filters="sRGB">
<feFlood flood-opacity="0" result="BackgroundImageFix"/>
<feColorMatrix in="SourceAlpha" type="matrix" values="0 0 0 0 0 0 0 0 0 0 0 0 0 0 0 0 0 0 127 0" result="hardAlpha"/>
<feOffset dy="24.6548"/>
<feGaussianBlur stdDeviation="16.4365"/>
<feColorMatrix type="matrix" values="0 0 0 0 0.318372 0 0 0 0 0.579167 0 0 0 0 0.154444 0 0 0 0.3 0"/>
<feBlend mode="normal" in2="BackgroundImageFix" result="effect1_dropShadow"/>
<feBlend mode="normal" in="SourceGraphic" in2="effect1_dropShadow" result="shape"/>
<feColorMatrix in="SourceAlpha" type="matrix" values="0 0 0 0 0 0 0 0 0 0 0 0 0 0 0 0 0 0 127 0" result="hardAlpha"/>
<feOffset dy="-11.5056"/>
<feGaussianBlur stdDeviation="18.902"/>
<feComposite in2="hardAlpha" operator="arithmetic" k2="-1" k3="1"/>
<feColorMatrix type="matrix" values="0 0 0 0 0 0 0 0 0 0 0 0 0 0 0 0 0 0 0.25 0"/>
<feBlend mode="normal" in2="shape" result="effect2_innerShadow"/>
<feColorMatrix in="SourceAlpha" type="matrix" values="0 0 0 0 0 0 0 0 0 0 0 0 0 0 0 0 0 0 127 0" result="hardAlpha"/>
<feOffset dy="-4.93096"/>
<feGaussianBlur stdDeviation="3.2873"/>
<feComposite in2="hardAlpha" operator="arithmetic" k2="-1" k3="1"/>
<feColorMatrix type="matrix" values="0 0 0 0 0.974333 0 0 0 0 1 0 0 0 0 0.954167 0 0 0 0.67 0"/>
<feBlend mode="normal" in2="effect2_innerShadow" result="effect3_innerShadow"/>
</filter>
<filter id="filter2_dii" x="178.811" y="253.282" width="126.741" height="103.808" filterUnits="userSpaceOnUse" color-interpolation-filters="sRGB">
<feFlood flood-opacity="0" result="BackgroundImageFix"/>
<feColorMatrix in="SourceAlpha" type="matrix" values="0 0 0 0 0 0 0 0 0 0 0 0 0 0 0 0 0 0 127 0" result="hardAlpha"/>
<feOffset dy="6.57461"/>
<feGaussianBlur stdDeviation="7.39643"/>
<feColorMatrix type="matrix" values="0 0 0 0 0 0 0 0 0 0 0 0 0 0 0 0 0 0 0.15 0"/>
<feBlend mode="normal" in2="BackgroundImageFix" result="effect1_dropShadow"/>
<feBlend mode="normal" in="SourceGraphic" in2="effect1_dropShadow" result="shape"/>
<feColorMatrix in="SourceAlpha" type="matrix" values="0 0 0 0 0 0 0 0 0 0 0 0 0 0 0 0 0 0 127 0" result="hardAlpha"/>
<feOffset dy="-8.21826"/>
<feGaussianBlur stdDeviation="4.10913"/>
<feComposite in2="hardAlpha" operator="arithmetic" k2="-1" k3="1"/>
<feColorMatrix type="matrix" values="0 0 0 0 0 0 0 0 0 0 0 0 0 0 0 0 0 0 0.25 0"/>
<feBlend mode="normal" in2="shape" result="effect2_innerShadow"/>
<feColorMatrix in="SourceAlpha" type="matrix" values="0 0 0 0 0 0 0 0 0 0 0 0 0 0 0 0 0 0 127 0" result="hardAlpha"/>
<feOffset dy="-4.93096"/>
<feGaussianBlur stdDeviation="4.93096"/>
<feComposite in2="hardAlpha" operator="arithmetic" k2="-1" k3="1"/>
<feColorMatrix type="matrix" values="0 0 0 0 1 0 0 0 0 1 0 0 0 0 1 0 0 0 0.85 0"/>
<feBlend mode="normal" in2="effect2_innerShadow" result="effect3_innerShadow"/>
</filter>
<filter id="filter3_dii" x="620.332" y="277.191" width="244.001" height="165.809" filterUnits="userSpaceOnUse" color-interpolation-filters="sRGB">
<feFlood flood-opacity="0" result="BackgroundImageFix"/>
<feColorMatrix in="SourceAlpha" type="matrix" values="0 0 0 0 0 0 0 0 0 0 0 0 0 0 0 0 0 0 127 0" result="hardAlpha"/>
<feOffset dx="2" dy="8"/>
<feGaussianBlur stdDeviation="7.5"/>
<feColorMatrix type="matrix" values="0 0 0 0 0.547865 0 0 0 0 0.71337 0 0 0 0 0.8375 0 0 0 0.3 0"/>
<feBlend mode="normal" in2="BackgroundImageFix" result="effect1_dropShadow"/>
<feBlend mode="normal" in="SourceGraphic" in2="effect1_dropShadow" result="shape"/>
<feColorMatrix in="SourceAlpha" type="matrix" values="0 0 0 0 0 0 0 0 0 0 0 0 0 0 0 0 0 0 127 0" result="hardAlpha"/>
<feOffset dx="8" dy="8"/>
<feGaussianBlur stdDeviation="5"/>
<feComposite in2="hardAlpha" operator="arithmetic" k2="-1" k3="1"/>
<feColorMatrix type="matrix" values="0 0 0 0 0.779167 0 0 0 0 0.892738 0 0 0 0 1 0 0 0 1 0"/>
<feBlend mode="normal" in2="shape" result="effect2_innerShadow"/>
<feColorMatrix in="SourceAlpha" type="matrix" values="0 0 0 0 0 0 0 0 0 0 0 0 0 0 0 0 0 0 127 0" result="hardAlpha"/>
<feOffset dx="-6" dy="-6"/>
<feGaussianBlur stdDeviation="3"/>
<feComposite in2="hardAlpha" operator="arithmetic" k2="-1" k3="1"/>
<feColorMatrix type="matrix" values="0 0 0 0 0.189375 0 0 0 0 0.45464 0 0 0 0 0.841667 0 0 0 1 0"/>
<feBlend mode="normal" in2="effect2_innerShadow" result="effect3_innerShadow"/>
</filter>
<filter id="filter4_dii" x="689.675" y="339.526" width="76.5018" height="83.1054" filterUnits="userSpaceOnUse" color-interpolation-filters="sRGB">
<feFlood flood-opacity="0" result="BackgroundImageFix"/>
<feColorMatrix in="SourceAlpha" type="matrix" values="0 0 0 0 0 0 0 0 0 0 0 0 0 0 0 0 0 0 127 0" result="hardAlpha"/>
<feOffset dy="6.57461"/>
<feGaussianBlur stdDeviation="7.39643"/>
<feColorMatrix type="matrix" values="0 0 0 0 0 0 0 0 0 0 0 0 0 0 0 0 0 0 0.15 0"/>
<feBlend mode="normal" in2="BackgroundImageFix" result="effect1_dropShadow"/>
<feBlend mode="normal" in="SourceGraphic" in2="effect1_dropShadow" result="shape"/>
<feColorMatrix in="SourceAlpha" type="matrix" values="0 0 0 0 0 0 0 0 0 0 0 0 0 0 0 0 0 0 127 0" result="hardAlpha"/>
<feOffset dy="-8.21826"/>
<feGaussianBlur stdDeviation="4.10913"/>
<feComposite in2="hardAlpha" operator="arithmetic" k2="-1" k3="1"/>
<feColorMatrix type="matrix" values="0 0 0 0 0 0 0 0 0 0 0 0 0 0 0 0 0 0 0.25 0"/>
<feBlend mode="normal" in2="shape" result="effect2_innerShadow"/>
<feColorMatrix in="SourceAlpha" type="matrix" values="0 0 0 0 0 0 0 0 0 0 0 0 0 0 0 0 0 0 127 0" result="hardAlpha"/>
<feOffset dy="-4.93096"/>
<feGaussianBlur stdDeviation="4.93096"/>
<feComposite in2="hardAlpha" operator="arithmetic" k2="-1" k3="1"/>
<feColorMatrix type="matrix" values="0 0 0 0 1 0 0 0 0 1 0 0 0 0 1 0 0 0 0.85 0"/>
<feBlend mode="normal" in2="effect2_innerShadow" result="effect3_innerShadow"/>
</filter>
<filter id="filter5_dii" x="714.055" y="308.289" width="76.4993" height="83.7135" filterUnits="userSpaceOnUse" color-interpolation-filters="sRGB">
<feFlood flood-opacity="0" result="BackgroundImageFix"/>
<feColorMatrix in="SourceAlpha" type="matrix" values="0 0 0 0 0 0 0 0 0 0 0 0 0 0 0 0 0 0 127 0" result="hardAlpha"/>
<feOffset dy="6.57461"/>
<feGaussianBlur stdDeviation="7.39643"/>
<feColorMatrix type="matrix" values="0 0 0 0 0 0 0 0 0 0 0 0 0 0 0 0 0 0 0.15 0"/>
<feBlend mode="normal" in2="BackgroundImageFix" result="effect1_dropShadow"/>
<feBlend mode="normal" in="SourceGraphic" in2="effect1_dropShadow" result="shape"/>
<feColorMatrix in="SourceAlpha" type="matrix" values="0 0 0 0 0 0 0 0 0 0 0 0 0 0 0 0 0 0 127 0" result="hardAlpha"/>
<feOffset dy="-8.21826"/>
<feGaussianBlur stdDeviation="4.10913"/>
<feComposite in2="hardAlpha" operator="arithmetic" k2="-1" k3="1"/>
<feColorMatrix type="matrix" values="0 0 0 0 0 0 0 0 0 0 0 0 0 0 0 0 0 0 0.25 0"/>
<feBlend mode="normal" in2="shape" result="effect2_innerShadow"/>
<feColorMatrix in="SourceAlpha" type="matrix" values="0 0 0 0 0 0 0 0 0 0 0 0 0 0 0 0 0 0 127 0" result="hardAlpha"/>
<feOffset dy="-4.93096"/>
<feGaussianBlur stdDeviation="4.93096"/>
<feComposite in2="hardAlpha" operator="arithmetic" k2="-1" k3="1"/>
<feColorMatrix type="matrix" values="0 0 0 0 1 0 0 0 0 1 0 0 0 0 1 0 0 0 0.85 0"/>
<feBlend mode="normal" in2="effect2_innerShadow" result="effect3_innerShadow"/>
</filter>
<filter id="filter6_ii" x="700.006" y="14" width="163.999" height="133" filterUnits="userSpaceOnUse" color-interpolation-filters="sRGB">
<feFlood flood-opacity="0" result="BackgroundImageFix"/>
<feBlend mode="normal" in="SourceGraphic" in2="BackgroundImageFix" result="shape"/>
<feColorMatrix in="SourceAlpha" type="matrix" values="0 0 0 0 0 0 0 0 0 0 0 0 0 0 0 0 0 0 127 0" result="hardAlpha"/>
<feOffset dx="4" dy="4"/>
<feGaussianBlur stdDeviation="4"/>
<feComposite in2="hardAlpha" operator="arithmetic" k2="-1" k3="1"/>
<feColorMatrix type="matrix" values="0 0 0 0 1 0 0 0 0 0.9375 0 0 0 0 0.770833 0 0 0 1 0"/>
<feBlend mode="normal" in2="shape" result="effect1_innerShadow"/>
<feColorMatrix in="SourceAlpha" type="matrix" values="0 0 0 0 0 0 0 0 0 0 0 0 0 0 0 0 0 0 127 0" result="hardAlpha"/>
<feOffset dx="-4" dy="-4"/>
<feGaussianBlur stdDeviation="4"/>
<feComposite in2="hardAlpha" operator="arithmetic" k2="-1" k3="1"/>
<feColorMatrix type="matrix" values="0 0 0 0 0.679167 0 0 0 0 0.481419 0 0 0 0 0.0933854 0 0 0 1 0"/>
<feBlend mode="normal" in2="effect1_innerShadow" result="effect2_innerShadow"/>
</filter>
<filter id="filter7_ii" x="705.272" y="35.5043" width="154.048" height="109.93" filterUnits="userSpaceOnUse" color-interpolation-filters="sRGB">
<feFlood flood-opacity="0" result="BackgroundImageFix"/>
<feBlend mode="normal" in="SourceGraphic" in2="BackgroundImageFix" result="shape"/>
<feColorMatrix in="SourceAlpha" type="matrix" values="0 0 0 0 0 0 0 0 0 0 0 0 0 0 0 0 0 0 127 0" result="hardAlpha"/>
<feOffset dx="-5" dy="-5"/>
<feGaussianBlur stdDeviation="4"/>
<feComposite in2="hardAlpha" operator="arithmetic" k2="-1" k3="1"/>
<feColorMatrix type="matrix" values="0 0 0 0 0.595608 0 0 0 0 0.710711 0 0 0 0 0.845833 0 0 0 1 0"/>
<feBlend mode="normal" in2="shape" result="effect1_innerShadow"/>
<feColorMatrix in="SourceAlpha" type="matrix" values="0 0 0 0 0 0 0 0 0 0 0 0 0 0 0 0 0 0 127 0" result="hardAlpha"/>
<feOffset dx="6" dy="6"/>
<feGaussianBlur stdDeviation="3.5"/>
<feComposite in2="hardAlpha" operator="arithmetic" k2="-1" k3="1"/>
<feColorMatrix type="matrix" values="0 0 0 0 1 0 0 0 0 1 0 0 0 0 1 0 0 0 1 0"/>
<feBlend mode="normal" in2="effect1_innerShadow" result="effect2_innerShadow"/>
</filter>
<filter id="filter8_ii" x="690.905" y="40.0697" width="171.529" height="106.93" filterUnits="userSpaceOnUse" color-interpolation-filters="sRGB">
<feFlood flood-opacity="0" result="BackgroundImageFix"/>
<feBlend mode="normal" in="SourceGraphic" in2="BackgroundImageFix" result="shape"/>
<feColorMatrix in="SourceAlpha" type="matrix" values="0 0 0 0 0 0 0 0 0 0 0 0 0 0 0 0 0 0 127 0" result="hardAlpha"/>
<feOffset dx="4" dy="4"/>
<feGaussianBlur stdDeviation="4"/>
<feComposite in2="hardAlpha" operator="arithmetic" k2="-1" k3="1"/>
<feColorMatrix type="matrix" values="0 0 0 0 1 0 0 0 0 0.9375 0 0 0 0 0.770833 0 0 0 1 0"/>
<feBlend mode="normal" in2="shape" result="effect1_innerShadow"/>
<feColorMatrix in="SourceAlpha" type="matrix" values="0 0 0 0 0 0 0 0 0 0 0 0 0 0 0 0 0 0 127 0" result="hardAlpha"/>
<feOffset dx="-4" dy="-4"/>
<feGaussianBlur stdDeviation="4"/>
<feComposite in2="hardAlpha" operator="arithmetic" k2="-1" k3="1"/>
<feColorMatrix type="matrix" values="0 0 0 0 0.679167 0 0 0 0 0.481419 0 0 0 0 0.0933854 0 0 0 1 0"/>
<feBlend mode="normal" in2="effect1_innerShadow" result="effect2_innerShadow"/>
</filter>
<linearGradient id="paint0_linear" x1="371.435" y1="133.711" x2="594.537" y2="91.6148" gradientUnits="userSpaceOnUse">
<stop stop-color="#4DA9FF"/>
<stop offset="1" stop-color="#6AA6FF"/>
<stop offset="1" stop-color="#5398FF"/>
</linearGradient>
<linearGradient id="paint1_linear" x1="371.435" y1="133.711" x2="594.537" y2="91.6148" gradientUnits="userSpaceOnUse">
<stop stop-color="#4DA9FF"/>
<stop offset="1" stop-color="#6AA6FF"/>
<stop offset="1" stop-color="#5398FF"/>
</linearGradient>
<linearGradient id="paint2_linear" x1="371.435" y1="133.711" x2="594.537" y2="91.6148" gradientUnits="userSpaceOnUse">
<stop stop-color="#4DA9FF"/>
<stop offset="1" stop-color="#6AA6FF"/>
<stop offset="1" stop-color="#5398FF"/>
</linearGradient>
<linearGradient id="paint3_linear" x1="371.435" y1="133.711" x2="594.537" y2="91.6148" gradientUnits="userSpaceOnUse">
<stop stop-color="#4DA9FF"/>
<stop offset="1" stop-color="#6AA6FF"/>
<stop offset="1" stop-color="#5398FF"/>
</linearGradient>
<linearGradient id="paint4_linear" x1="371.435" y1="133.711" x2="594.537" y2="91.6148" gradientUnits="userSpaceOnUse">
<stop stop-color="#4DA9FF"/>
<stop offset="1" stop-color="#6AA6FF"/>
<stop offset="1" stop-color="#5398FF"/>
</linearGradient>
<linearGradient id="paint5_linear" x1="371.435" y1="133.711" x2="594.537" y2="91.6148" gradientUnits="userSpaceOnUse">
<stop stop-color="#4DA9FF"/>
<stop offset="1" stop-color="#6AA6FF"/>
<stop offset="1" stop-color="#5398FF"/>
</linearGradient>
<linearGradient id="paint6_linear" x1="371.435" y1="133.711" x2="594.537" y2="91.6148" gradientUnits="userSpaceOnUse">
<stop stop-color="#4DA9FF"/>
<stop offset="1" stop-color="#6AA6FF"/>
<stop offset="1" stop-color="#5398FF"/>
</linearGradient>
<linearGradient id="paint7_linear" x1="371.435" y1="133.711" x2="594.537" y2="91.6148" gradientUnits="userSpaceOnUse">
<stop stop-color="#4DA9FF"/>
<stop offset="1" stop-color="#6AA6FF"/>
<stop offset="1" stop-color="#5398FF"/>
</linearGradient>
<linearGradient id="paint8_linear" x1="371.435" y1="133.711" x2="594.537" y2="91.6148" gradientUnits="userSpaceOnUse">
<stop stop-color="#4DA9FF"/>
<stop offset="1" stop-color="#6AA6FF"/>
<stop offset="1" stop-color="#5398FF"/>
</linearGradient>
<linearGradient id="paint9_linear" x1="371.435" y1="133.711" x2="594.537" y2="91.6148" gradientUnits="userSpaceOnUse">
<stop stop-color="#4DA9FF"/>
<stop offset="1" stop-color="#6AA6FF"/>
<stop offset="1" stop-color="#5398FF"/>
</linearGradient>
<linearGradient id="paint10_linear" x1="371.435" y1="133.711" x2="594.537" y2="91.6148" gradientUnits="userSpaceOnUse">
<stop stop-color="#4DA9FF"/>
<stop offset="1" stop-color="#6AA6FF"/>
<stop offset="1" stop-color="#5398FF"/>
</linearGradient>
<linearGradient id="paint11_linear" x1="239.749" y1="210.164" x2="238.944" y2="399.647" gradientUnits="userSpaceOnUse">
<stop stop-color="#96D14A"/>
<stop offset="1" stop-color="#61B539"/>
</linearGradient>
<linearGradient id="paint12_linear" x1="633.319" y1="338.771" x2="847.349" y2="338.771" gradientUnits="userSpaceOnUse">
<stop stop-color="#4DA9FF"/>
<stop offset="1" stop-color="#6AA6FF"/>
<stop offset="1" stop-color="#5398FF"/>
</linearGradient>
<linearGradient id="paint13_linear" x1="706.06" y1="23.8908" x2="826.955" y2="159.448" gradientUnits="userSpaceOnUse">
<stop stop-color="#FFDF81"/>
<stop offset="0.7727" stop-color="#FFC44F"/>
<stop offset="1" stop-color="#FFB32F"/>
</linearGradient>
<linearGradient id="paint14_linear" x1="850.284" y1="139.427" x2="765.034" y2="6.84733" gradientUnits="userSpaceOnUse">
<stop stop-color="white"/>
<stop offset="0.0001" stop-color="white"/>
<stop offset="1" stop-color="#E0F2FF"/>
</linearGradient>
<linearGradient id="paint15_linear" x1="692.754" y1="48.7321" x2="780.466" y2="184.816" gradientUnits="userSpaceOnUse">
<stop stop-color="#FFDF81"/>
<stop offset="0.7727" stop-color="#FFC44F"/>
<stop offset="1" stop-color="#FFB32F"/>
</linearGradient>
</defs>
</svg>
