<svg xmlns="http://www.w3.org/2000/svg" xmlns:xlink="http://www.w3.org/1999/xlink" width="375" height="250" viewBox="0 0 375 250">
  <defs>
    <path id="vabobtu4qa" d="M0 0H375V250H0z" />
  </defs>
  <g fill="none" fill-rule="evenodd">
    <g>
      <g transform="translate(0 -1035) translate(0 1035)">
        <mask id="r2ijfq0iwb" fill="#fff">
          <use xlink:href="#vabobtu4qa" />
        </mask>
        <g mask="url(#r2ijfq0iwb)">
          <g>
            <g transform="translate(-94) translate(119.638 18.75)">
              <ellipse cx="25.413" cy="188.281" fill="#EFF6F7" stroke="#231F20" stroke-width=".563" rx="12.12" ry="12.109" />
              <path stroke="#231F20" stroke-width=".5" d="M192.358 57.422L258.433 96.875" />
              <path fill="#231F20" fill-rule="nonzero" d="M192.242 58.984L188.84 55.469 193.531 56.808zM257.26 97.496L261.951 98.828 258.556 95.313z" />
              <path stroke="#25AACC" stroke-width=".5" d="M196.268 53.516L262.342 92.969" />
              <path fill="#25AACC" fill-rule="nonzero" d="M196.152 55.078L192.749 51.563 197.441 52.902zM260.778 93.59L265.47 94.922 262.067 91.406z" />
              <path stroke="#231F20" stroke-width=".5" d="M65.683 96.875L132.149 57.422" />
              <path fill="#231F20" fill-rule="nonzero" d="M67.247 97.496L62.556 98.828 65.951 95.313zM131.873 58.984L135.276 55.469 130.585 56.801z" />
              <path stroke="#25AACC" stroke-width=".5" d="M61.774 92.969L128.239 53.516" />
              <path fill="#25AACC" fill-rule="nonzero" d="M63.337 93.587L58.646 94.922 62.041 91.406zM127.971 55.078L131.367 51.563 126.675 52.902z" />
              <path stroke="#231F20" stroke-width=".5" d="M132.149 166.406L65.683 126.953" />
              <path fill="#231F20" fill-rule="nonzero" d="M131.881 164.844L135.276 168.359 130.585 167.027zM67.247 126.339L62.556 125 65.951 128.516z" />
              <path stroke="#25AACC" stroke-width=".5" d="M128.239 171.094L61.774 131.641" />
              <path fill="#25AACC" fill-rule="nonzero" d="M127.971 169.531L131.367 173.047 126.675 171.715zM63.337 131.027L58.646 129.688 62.049 133.203z" />
              <path stroke="#231F20" stroke-width=".5" d="M258.824 126.953L192.358 166.406" />
              <path fill="#231F20" fill-rule="nonzero" d="M257.26 126.339L261.951 125 258.556 128.516zM192.235 164.844L188.84 168.359 193.531 167.027z" />
              <path stroke="#25AACC" stroke-width=".5" d="M261.951 131.641L195.486 171.094" />
              <path fill="#25AACC" fill-rule="nonzero" d="M260.387 131.027L265.079 129.688 261.676 133.203zM195.754 169.531L192.358 173.047 197.05 171.708z" />
              <path stroke="#25AACC" stroke-width=".5" d="M164.208 164.453L164.208 66.016" />
              <path fill="#25AACC" fill-rule="nonzero" d="M165.381 163.672L164.212 168.359 163.035 163.672z" />
              <g fill-rule="nonzero">
                <path fill="#25AACC" d="M7.428 4.688L6.259 0 5.083 4.688z" transform="translate(157.953 62.5)" />
                <path fill="#231F20" d="M2.346 4.688L1.176 0 0 4.688z" transform="translate(157.953 62.5)" />
              </g>
              <path stroke="#231F20" stroke-width=".5" d="M159.126 164.453L159.126 66.016" />
              <path fill="#231F20" fill-rule="nonzero" d="M160.299 163.672L159.129 168.359 157.953 163.672z" />
              <path stroke="#010101" stroke-width=".563" d="M161.472 46.484L158.344 46.484" />
              <path fill="#EFF6F7" stroke="#231F20" stroke-width=".563" d="M163.42 13.281h-2.323c-.475-.004-.87.362-.9.834l-1.851 31.423c-.016.247.072.49.243.669.17.18.409.28.657.277h4.18" />
              <path fill="#EFF6F7" stroke="#231F20" stroke-width=".563" d="M163.426 13.281h2.322c.477-.004.873.362.903.834l1.856 31.423c.016.246-.072.487-.241.666-.17.18-.407.28-.655.28h-4.185M171.215 46.484h30.884c.663 0 1.202-.533 1.206-1.193V22.627c.008-.248-.116-.481-.327-.613-.21-.132-.476-.143-.697-.03l-15.025 6.89v-6.282c.007-.246-.116-.477-.325-.608-.208-.132-.471-.145-.692-.034l-15.024 6.889" />
              <path stroke="#010101" stroke-width=".563" d="M163.035 10.156s2.82-7.263 8.873-6.185c4.665.821 9.16 1.364 11.458-3.971" />
              <path stroke="#231F20" stroke-width=".563" d="M136.058 46.484L133.322 46.484 135.339 25.781M136.058 46.484L138.795 46.484 136.771 25.391" />
              <path fill="#EFF6F7" stroke="#231F20" stroke-width=".563" d="M133.713 24.337c-2.002-3.172-6.256-4.19-9.542-2.28-1.574.907-2.71 2.39-3.155 4.116-.445 1.727-.161 3.555.788 5.077l11.909-6.913zM138.45 24.219c-.434 3.846 2.267 7.323 6.034 7.766 3.766.443 7.17-2.316 7.604-6.162l-13.638-1.604zM135.926 20.313c2.43-.261 4.528-1.856 5.474-4.163.947-2.306.59-4.957-.928-6.917-1.52-1.959-3.96-2.915-6.369-2.495l1.823 13.574z" />
              <path stroke="#231F20" stroke-width=".563" d="M135.27 25.68c-1.348-.407-2.168-1.771-1.897-3.154.272-1.384 1.546-2.335 2.947-2.2 1.4.134 2.471 1.31 2.475 2.72-.012 1.517-1.244 2.74-2.758 2.735-.26 0-.517-.035-.768-.101" />
              <path fill="#FFF" stroke="#231F20" stroke-width=".563" d="M184.078 30.859L181.802 36.227 186.577 36.227 185.288 41.797 190.012 34.34 184.837 34.34 186.441 30.859z" />
              <path stroke="#231F20" stroke-width=".563" d="M29.714 106.667L28.531 108.984 24.195 106.806 16.233 102.814 14.853 102.13 13.488 102.814 5.519 106.806 1.183 108.984 0 106.667 5.519 103.896 7.673 102.814 14.853 99.219 22.041 102.814 24.195 103.896z" />
              <path fill="#EFF6F7" stroke="#231F20" stroke-width=".563" d="M24.24 106.71L24.24 121.484 5.474 121.484 5.474 106.71 13.481 102.649 14.853 101.953 16.24 102.649z" />
              <path stroke="#231F20" stroke-width=".563" d="M40.27 103.125L34.797 116.016M45.353 103.125L39.879 116.016M48.481 109.375L45.744 116.016M50.826 103.125L50.044 105.469M45.501 116.016L29.323 116.016 34.655 103.125 50.826 103.125M30.887 111.719L47.308 111.719M32.842 107.422L46.135 107.422M38.706 116.016L38.706 121.484M41.443 116.016L41.443 121.484M295.966 106.669L294.783 108.984 290.44 106.808 282.478 102.818 281.106 102.134 279.733 102.818 271.771 106.808 267.428 108.984 266.252 106.669 271.771 103.899 273.925 102.818 281.106 99.219 288.293 102.818 290.44 103.899z" />
              <path fill="#EFF6F7" stroke="#231F20" stroke-width=".563" d="M290.492 106.71L290.492 121.484 271.726 121.484 271.726 106.71 279.729 102.649 281.109 101.953 282.489 102.649z" />
              <path stroke="#231F20" stroke-width=".563" d="M306.522 103.125L301.049 116.016M311.605 103.125L306.131 116.016M314.733 109.375L311.996 116.016M317.078 103.125L316.297 105.469M311.748 116.016L295.575 116.016 300.905 103.125 317.078 103.125M297.53 111.719L313.951 111.719M299.094 107.422L312.387 107.422M304.958 116.016L304.958 121.484M307.695 116.016L307.695 121.484M165.772 185.573L164.583 187.891 160.247 185.72 152.288 181.727 150.908 181.036 149.543 181.727 141.576 185.72 137.241 187.891 136.058 185.573 141.576 182.802 143.73 181.727 150.908 178.125 158.094 181.727 160.247 182.802z" />
              <path fill="#EFF6F7" stroke="#231F20" stroke-width=".563" d="M160.299 185.623L160.299 200.391 141.532 200.391 141.532 185.623 149.539 181.562 150.912 180.859 152.298 181.562z" />
              <path stroke="#231F20" stroke-width=".563" d="M176.328 182.031L170.855 194.922M181.411 182.031L175.938 194.922M184.539 188.281L181.802 194.922M186.885 182.031L186.103 184.375M181.56 194.922L165.381 194.922 170.713 182.031 186.885 182.031M166.945 190.625L183.366 190.625M168.9 186.328L182.193 186.328M174.765 194.922L174.765 200.391M177.501 194.922L177.501 200.391" />
              <path stroke="#25AACC" stroke-width=".5" d="M46.526 194.531L125.111 194.531" />
              <path fill="#25AACC" fill-rule="nonzero" d="M47.308 195.703L42.616 194.531 47.308 193.359zM123.938 195.703L128.63 194.531 123.938 193.359z" />
              <path stroke="#231F20" stroke-width=".5" d="M46.526 189.453L125.111 189.453" />
              <path fill="#231F20" fill-rule="nonzero" d="M47.308 190.625L42.616 189.45 47.308 188.281zM123.938 190.625L128.63 189.45 123.938 188.281z" />
              <path stroke="#25AACC" stroke-width=".5" d="M22.676 140.625L22.676 169.141" />
              <path fill="#25AACC" fill-rule="nonzero" d="M21.503 141.406L22.68 136.719 23.849 141.406zM21.503 168.359L22.68 173.047 23.849 168.359z" />
              <path stroke="#231F20" stroke-width=".5" d="M28.15 140.625L28.15 169.141" />
              <path fill="#231F20" fill-rule="nonzero" d="M26.977 141.406L28.153 136.719 29.323 141.406zM26.977 168.359L28.153 173.047 29.323 168.359z" />
              <path stroke="#231F20" stroke-width=".563" d="M17.594 189.063L25.413 181.25M17.594 191.797L25.413 183.984M21.503 185.156L21.503 195.313M25.413 189.063L33.233 181.25M25.413 191.797L33.233 183.984M29.323 185.156L29.323 195.313" />
              <text fill="#333" font-size="6.25">
                <tspan x="149.036" y="57.172">Utillities</tspan>
              </text>
              <text fill="#333" font-size="6.25">
                <tspan x="8.614" y="130.609">Household</tspan>
              </text>
              <text fill="#333" font-size="6.25">
                <tspan x="275.076" y="130.609">Household</tspan>
              </text>
              <text fill="#333" font-size="6.25">
                <tspan x="144.98" y="209.516">Household</tspan>
              </text>
              <text fill="#333" font-size="6.25">
                <tspan x="19.234" y="209.516">Grid</tspan>
              </text>
            </g>
            <g>
              <path fill="#25AACC" d="M46.135 1.563H52.391V7.813H46.135z" transform="translate(-94) translate(119.247 9.766)" />
              <path fill="#231F20" d="M0 1.563H6.256V7.813H0z" transform="translate(-94) translate(119.247 9.766)" />
              <text fill="#333" font-size="6.25" transform="translate(-94) translate(119.247 9.766)">
                <tspan x="55.518" y="6">Income</tspan>
              </text>
              <text fill="#333" font-size="6.25" transform="translate(-94) translate(119.247 9.766)">
                <tspan x="9.375" y="6">Electricity</tspan>
              </text>
            </g>
          </g>
        </g>
      </g>
    </g>
  </g>
</svg>
