<svg xmlns="http://www.w3.org/2000/svg" width="100" height="100" viewBox="0 0 100 100">
    <g fill="none" fill-rule="evenodd">
        <g fill="#333">
            <g>
                <g>
                    <path d="M68.833 2.083c5.523 0 10.042 4.298 10.395 9.732l.022.685v75c0 5.523-4.298 10.042-9.732 10.395l-.685.022H31.125c-5.523 0-10.042-4.298-10.395-9.732l-.022-.685v-75c0-5.523 4.298-10.042 9.732-10.395l.685-.022h37.708zm6.25 79.875H24.875V87.5c0 3.249 2.479 5.919 5.648 6.221l.602.029h37.708c3.25 0 5.919-2.479 6.222-5.648l.028-.602v-5.542zm0-59.754H24.875v55.588h50.208V22.204zm-23 5.63v5.458l.566.022c4.502.317 8.106 3.9 8.45 8.4l.026.649-4.167.024c-.015-2.556-1.963-4.651-4.453-4.903l-.422-.026v10.463l.566.018c4.502.317 8.106 3.9 8.45 8.41l.026.651v.637c-.028 4.8-3.76 8.717-8.476 9.049l-.566.018v5.463h-4.166v-5.459h-.084c-4.8 0-8.739-3.707-9.098-8.422l-.027-.649 4.167-.024c.015 2.556 1.963 4.651 4.453 4.903l.589.026V52.083h-.084c-4.8 0-8.739-3.707-9.098-8.433l-.027-.65v-.637c.029-4.8 3.76-8.717 8.476-9.049l.733-.026v-5.455h4.166zm0 24.253v10.45l.422-.02c2.324-.236 4.176-2.076 4.425-4.39l.028-.502v-.613c-.015-2.556-1.963-4.651-4.453-4.903l-.422-.022zm-4.166-4.175V37.455l-.084.004c-2.556 0-4.663 1.936-4.93 4.414l-.028.503v.613c.015 2.556 1.963 4.651 4.453 4.903l.589.022zM68.833 6.25H31.125c-3.249 0-5.919 2.479-6.221 5.648l-.029.602v5.538h50.208V12.5c0-3.249-2.478-5.919-5.648-6.221l-.602-.029z" transform="translate(-670 -990) translate(167 757) translate(503 233)"/>
                </g>
            </g>
        </g>
    </g>
</svg>
