<svg id="Layer_1" data-name="Layer 1" xmlns="http://www.w3.org/2000/svg" viewBox="0 0 60 60"><defs><style>.cls-1{fill:#00b8de;}</style></defs><path class="cls-1" d="M48.07,38.69H43.19a3.5,3.5,0,0,0-3.5,3.5v1.9H20.14a6.92,6.92,0,0,0-5.23-5.23V21.31h1.9a3.5,3.5,0,0,0,3.5-3.5v-3a1.42,1.42,0,0,0,.05-.36,1.5,1.5,0,0,0-.05-.37V11a3.5,3.5,0,0,0-3.5-3.5H10A3.5,3.5,0,0,0,6.5,11v6.81a3.5,3.5,0,0,0,3.5,3.5h1.91V38.86a6.9,6.9,0,1,0,8.23,8.23H39.69V49a3.5,3.5,0,0,0,3.5,3.5H50A3.5,3.5,0,0,0,53.5,49V42.19a3.5,3.5,0,0,0-3.5-3.5H48.07M9.5,17.81V11a.5.5,0,0,1,.5-.5h6.81a.5.5,0,0,1,.5.5v6.81a.5.5,0,0,1-.5.5H10A.5.5,0,0,1,9.5,17.81ZM13.41,49.5a3.91,3.91,0,1,1,3.9-3.91A3.91,3.91,0,0,1,13.41,49.5ZM50.5,49a.5.5,0,0,1-.5.5H43.19a.5.5,0,0,1-.5-.5V42.19a.5.5,0,0,1,.5-.5H50a.5.5,0,0,1,.5.5Z"/><path class="cls-1" d="M36.66,15.91h.11a1.5,1.5,0,0,0,0-3h-.11a1.5,1.5,0,0,0,0,3Z"/><path class="cls-1" d="M23.23,15.91h.11a1.5,1.5,0,0,0,0-3h-.11a1.5,1.5,0,0,0,0,3Z"/><path class="cls-1" d="M27.71,15.91h.11a1.5,1.5,0,0,0,0-3h-.11a1.5,1.5,0,0,0,0,3Z"/><path class="cls-1" d="M32.18,15.91h.11a1.5,1.5,0,0,0,0-3h-.11a1.5,1.5,0,0,0,0,3Z"/><path class="cls-1" d="M39.7,14.74A6.91,6.91,0,0,0,46,21.28a1.5,1.5,0,0,0,.6.13,1.55,1.55,0,0,0,.61-.13,6.9,6.9,0,1,0-7.5-7.22,2,2,0,0,0,0,.35A1.86,1.86,0,0,0,39.7,14.74Zm6.89-4.24a3.91,3.91,0,1,1-3.9,3.91h0A3.91,3.91,0,0,1,46.59,10.5Z"/><path class="cls-1" d="M48.09,32.11a1.5,1.5,0,0,0-3,0v.1a1.5,1.5,0,1,0,3,0Z"/><path class="cls-1" d="M46.59,34.76a1.55,1.55,0,0,0-1.5,1.55,1.5,1.5,0,0,0,3,0v-.1A1.46,1.46,0,0,0,46.59,34.76Z"/><path class="cls-1" d="M48.09,28a1.46,1.46,0,0,0-1.5-1.45,1.55,1.55,0,0,0-1.5,1.55,1.5,1.5,0,0,0,3,0Z"/><path class="cls-1" d="M48.09,23.91a1.5,1.5,0,1,0-3,0V24a1.5,1.5,0,1,0,3,0Z"/></svg>