<svg xmlns="http://www.w3.org/2000/svg" width="42" height="42" viewBox="0 0 42 42">
    <g fill="none" fill-rule="evenodd">
        <g>
            <g>
                <g>
                    <path stroke="#000" stroke-linecap="round" stroke-linejoin="round" stroke-width="1.091" d="M0 20c0 11.046 8.954 20 20 20s20-8.954 20-20S31.046 0 20 0 0 8.954 0 20h0z" transform="translate(-703 -5592) translate(0 5569) translate(704 24)"/>
                    <path fill="#000" d="M25.028 15.882l3.636 3.636.009.009c.018.02.036.04.052.06l-.061-.07c.03.03.056.062.079.095.013.019.025.039.036.059.006.01.012.021.017.033.009.017.016.035.023.053l.015.042.011.043c.024.101.025.207.002.309-.011.05-.028.097-.05.142-.006.014-.014.029-.022.043-.01.018-.02.035-.032.05-.006.01-.012.019-.019.027-.014.02-.03.038-.046.055l-.014.014-3.636 3.636c-.267.267-.698.267-.965 0-.266-.266-.266-.697 0-.964l2.473-2.473H11.818c-.376 0-.682-.304-.682-.681 0-.377.306-.682.682-.682h14.717l-2.472-2.472c-.266-.267-.266-.698 0-.964.267-.267.698-.267.965 0z" transform="translate(-703 -5592) translate(0 5569) translate(704 24) rotate(-90 20 20)"/>
                </g>
            </g>
        </g>
    </g>
</svg>
