<svg xmlns="http://www.w3.org/2000/svg" width="36" height="36" viewBox="0 0 36 36">
    <g fill="none" fill-rule="evenodd">
        <g fill="#000">
            <g>
                <g>
                    <path d="M226 0c9.941 0 18 8.059 18 18s-8.059 18-18 18-18-8.059-18-18 8.059-18 18-18zm-5.28 14.908h-4.079v12.257h4.08V14.908zm10.015-.287c-2.166 0-3.136 1.19-3.677 2.024v-1.736h-4.08c.014.292.02 1.23.023 2.466v.547l.001.285v1.828l-.002.635-.001.639c-.006 2.659-.018 5.238-.02 5.76v.096h4.079V20.32c0-.366.026-.732.134-.994.295-.732.966-1.49 2.093-1.49 1.477 0 2.067 1.125 2.067 2.772v6.557h4.08v-7.028c0-3.764-2.013-5.516-4.697-5.516zM218.708 9c-1.396 0-2.308.915-2.308 2.117 0 1.177.885 2.119 2.255 2.119h.026c1.422 0 2.308-.942 2.308-2.119-.026-1.202-.886-2.117-2.281-2.117z" transform="translate(-709 -2469) translate(0 2264) translate(501 205)"/>
                </g>
            </g>
        </g>
    </g>
</svg>
