<svg id="Layer_1" data-name="Layer 1" xmlns="http://www.w3.org/2000/svg" viewBox="0 0 24 24"><defs><style>.cls-1{fill:#333;}</style></defs><path class="cls-1" d="M21.7,12.25a2,2,0,0,0,.49-1.31,2,2,0,0,0-2-2,2,2,0,0,0-1,.25c-.34-.34-.69-.68-1-1,1.63-1.47,5-4.9,3.82-6.76s-5.51,0-7.53.93h0a5.94,5.94,0,0,0-5,0c-2-1-6.31-2.75-7.53-.93S4.18,6.72,5.81,8.19c-.36.33-.71.66-1,1a2,2,0,0,0-.95-.25A2,2,0,0,0,2.3,12.25c-.63,1.14-.74,2.05-.3,2.68a2.12,2.12,0,0,0,1.88.78,13.71,13.71,0,0,0,4.86-1.34,8.48,8.48,0,0,1,.11,1.21,1.52,1.52,0,0,0-1.28,1.53,1.49,1.49,0,0,0,1.21,1.47V20a1.32,1.32,0,0,0,.93,1.25v.88A1.27,1.27,0,0,0,11,23.35h2a1.27,1.27,0,0,0,1.27-1.27V21.2A1.31,1.31,0,0,0,15.21,20V18.58a1.5,1.5,0,0,0,1.21-1.47v-.05a1.48,1.48,0,0,0-1.27-1.48,10.23,10.23,0,0,1,.11-1.21,13.71,13.71,0,0,0,4.86,1.34A2.12,2.12,0,0,0,22,14.93C22.44,14.29,22.33,13.39,21.7,12.25Zm-.51-1.31a1,1,0,0,1-.43.81.89.89,0,0,1-.57.19,1,1,0,0,1-1-1,1,1,0,0,1,.34-.74,1,1,0,0,1,.66-.26A1,1,0,0,1,21.19,10.94Zm-5.67.32-.06.07c-.1.13-.19.27-.29.41l-.05.08a4.51,4.51,0,0,0-.28.49h0a5.92,5.92,0,0,0-.23.56l0,.06L14,12.62l-.39-.21-1.32-.75c-.61-.36-1.23-.75-1.82-1.16S9.26,9.69,8.7,9.27l-.52-.42-.83-.66.81-.66L8.7,7.1c.56-.42,1.13-.83,1.73-1.24s1.23-.8,1.83-1.16L13.4,4l.34-.17.72-.38.21.13.26.16.28.23.22.2a3.07,3.07,0,0,1,.25.26,2,2,0,0,1,.19.22,1.94,1.94,0,0,1,.21.29l.17.24.17.34a1.92,1.92,0,0,1,.12.25c.05.12.09.24.14.37s.06.16.08.24.06.3.09.44,0,.14,0,.22a4.91,4.91,0,0,1,.05.67c0,.13,0,.25,0,.41a4.86,4.86,0,0,1-1.1,2.73ZM9.6,13.54a6.16,6.16,0,0,0-1.46-2.71,4.45,4.45,0,0,1-.43-.61c0-.06-.06-.14-.1-.2s-.15-.31-.22-.47a0,0,0,0,0,0,0l.4.3.42.31c.54.41,1.09.81,1.67,1.2s1.24.82,1.87,1.19c.46.27.92.54,1.38.79l.49.25.7.36h0a9.61,9.61,0,0,0-.17,1.63H9.85a9.31,9.31,0,0,0-.18-1.62h0ZM21.17,2c.44.64-.59,2.61-3.26,5.11a.36.36,0,0,1,0-.1c0-.08,0-.15,0-.23a4.64,4.64,0,0,0-.11-.51L17.68,6c-.06-.2-.13-.39-.2-.58a1.17,1.17,0,0,1-.05-.11,4.71,4.71,0,0,0-.33-.63A1.74,1.74,0,0,0,17,4.53c-.1-.15-.2-.29-.31-.43s-.09-.12-.15-.18a3.88,3.88,0,0,0-.39-.42L16,3.39a6.4,6.4,0,0,0-.5-.41C18.71,1.53,20.75,1.36,21.17,2Zm-7.9,1-.13.07c-.48.26-1,.52-1.4.79-.62.38-1.24.77-1.87,1.2s-1.15.8-1.7,1.21l-.46.36c-.2.16-.41.31-.6.47h0s0,0,0-.06a5.05,5.05,0,0,1,.12-.56,1.17,1.17,0,0,1,.06-.2c0-.14.09-.27.14-.4s.07-.14.1-.22l.18-.34a2.39,2.39,0,0,1,.13-.21,3.62,3.62,0,0,1,.22-.32l.15-.19c.09-.11.19-.21.29-.31l.14-.15a6,6,0,0,1,.49-.39l.09-.06.46-.28.06,0A4.89,4.89,0,0,1,13.27,3ZM2.83,2c.14-.22.5-.34,1-.34A12.6,12.6,0,0,1,8.47,3,5.17,5.17,0,0,0,8,3.39l-.1.1c-.14.14-.27.28-.4.43l-.15.18L7,4.53a1.74,1.74,0,0,0-.11.18,4.31,4.31,0,0,0-.33.64,1.17,1.17,0,0,0-.05.11c-.08.19-.14.38-.2.57l-.06.23a4.36,4.36,0,0,0-.11.52c0,.07,0,.14,0,.22s0,.07,0,.1C3.42,4.6,2.39,2.63,2.83,2Zm1,8a1,1,0,0,1,.67.27,1,1,0,0,1,.33.73,1,1,0,0,1-1.53.84l-.06,0h0a1,1,0,0,1-.41-.8A1,1,0,0,1,3.81,9.94Zm-1,4.43c-.19-.28-.08-.84.3-1.55h.06l.07,0a1.77,1.77,0,0,0,.56.09,2,2,0,0,0,2-2,2.09,2.09,0,0,0-.07-.51l0-.14a1.49,1.49,0,0,0-.17-.36l0-.08.73-.7a6,6,0,0,0,.24.75l.09.21a4.53,4.53,0,0,0,.27.54l.12.21a5.81,5.81,0,0,0,.47.67l.34.42.1.14a3.78,3.78,0,0,1,.22.33,1.62,1.62,0,0,1,.1.18,3,3,0,0,1,.18.36l.09.22.06.2C5.31,14.83,3.24,15,2.82,14.37ZM14.21,20a.34.34,0,0,1-.34.34H10.12A.34.34,0,0,1,9.78,20V18.61h4.43Zm-.92,2.13a.27.27,0,0,1-.27.27H11a.27.27,0,0,1-.27-.27v-.79h2.58Zm2.13-5v.05a.5.5,0,0,1-.5.5H9.07a.51.51,0,0,1-.5-.55.5.5,0,0,1,.5-.5h5.85A.5.5,0,0,1,15.42,17.06Zm5.76-2.69h0c-.42.62-2.49.46-5.68-1l.06-.19a2.6,2.6,0,0,1,.1-.25c.05-.12.11-.23.16-.33l.12-.21a3.62,3.62,0,0,1,.22-.32l.11-.16.37-.45a5.7,5.7,0,0,0,.44-.65,2.25,2.25,0,0,0,.12-.21c.09-.16.17-.33.25-.5l.1-.24c.08-.23.16-.47.22-.72h0c.25.23.5.46.74.7,0,0,0,.06,0,.09a2.21,2.21,0,0,0-.16.35l0,.14a2.09,2.09,0,0,0-.07.51,2,2,0,0,0,2,2,1.79,1.79,0,0,0,.57-.09l.07,0h0C21.25,13.53,21.37,14.09,21.18,14.37Z"/></svg>