<svg xmlns="http://www.w3.org/2000/svg" width="31" height="31" viewBox="0 0 31 31">
    <g fill="none" fill-rule="evenodd">
        <g fill="#FFF">
            <g>
                <g>
                    <g>
                        <path d="M27.653 14.648l.02.036.026.053.022.053.018.05.02.067.009.041.012.07.006.05.003.057v.066c0 .019-.002.037-.003.056l.003-.09c0 .049-.003.096-.01.143-.002.022-.006.044-.01.065l-.012.05c-.005.02-.01.038-.017.057l-.022.063-.017.039c-.01.024-.022.047-.034.07l-.02.035-.041.062-.025.034-.005.007-.071.081-5.182 5.319c-.38.389-.995.389-1.374 0-.38-.39-.38-1.021 0-1.41l3.522-3.617H3.498c-.537 0-.972-.446-.972-.997 0-.55.435-.997.972-.997h20.974l-3.523-3.617c-.38-.389-.38-1.02 0-1.41.379-.39.994-.39 1.374 0l5.182 5.319c.043.044.082.092.115.142l.018.028.015.025z" transform="translate(-1355 -1917) translate(-465 1426) translate(1805 476) translate(15.158 15.158)"/>
                    </g>
                </g>
            </g>
        </g>
    </g>
</svg>
