<svg xmlns="http://www.w3.org/2000/svg" width="36" height="36" viewBox="0 0 36 36">
    <g fill="none" fill-rule="evenodd">
        <g fill="#000">
            <g>
                <g>
                    <path d="M122 0c9.941 0 18 8.059 18 18s-8.059 18-18 18-18-8.059-18-18 8.059-18 18-18zm1.916 10.97c-1.574.572-2.568 2.046-2.455 3.66l.038.623-.63-.076c-2.291-.292-4.293-1.284-5.993-2.949l-.831-.826-.214.61c-.453 1.36-.164 2.797.78 3.763.504.533.39.61-.478.292-.302-.102-.566-.178-.592-.14-.088.09.214 1.246.454 1.703.327.636.994 1.259 1.725 1.627l.617.293-.73.013c-.706 0-.731.012-.655.28.251.825 1.246 1.702 2.354 2.084l.78.267-.68.406c-1.007.585-2.19.916-3.374.941-.566.013-1.032.064-1.032.102 0 .127 1.536.839 2.43 1.118 2.682.827 5.867.47 8.26-.94 1.7-1.004 3.399-3 4.192-4.932.428-1.03.856-2.911.856-3.813 0-.585.038-.661.743-1.36.416-.407.806-.852.881-.98.126-.24.114-.24-.528-.025-1.07.382-1.222.33-.693-.241.39-.407.856-1.144.856-1.36 0-.038-.189.025-.403.14-.226.127-.73.317-1.108.432l-.68.216-.616-.42c-.34-.229-.819-.483-1.07-.559-.643-.178-1.625-.153-2.204.05z" transform="translate(-145 -5769) translate(0 5569) translate(41 200)"/>
                </g>
            </g>
        </g>
    </g>
</svg>
