<?xml version="1.0" encoding="UTF-8"?>
<svg width="24px" height="24px" viewBox="0 0 24 24" version="1.1" xmlns="http://www.w3.org/2000/svg" xmlns:xlink="http://www.w3.org/1999/xlink">
    <title>Shape</title>
    <defs>
        <filter id="filter-1">
            <feColorMatrix in="SourceGraphic" type="matrix" values="0 0 0 0 0.200000 0 0 0 0 0.200000 0 0 0 0 0.200000 0 0 0 1.000000 0"></feColorMatrix>
        </filter>
    </defs>
    <g id="Symbols" stroke="none" stroke-width="1" fill="none" fill-rule="evenodd">
        <g id="Organisms/Footer/Desktop-w-Email" transform="translate(-940.000000, -183.000000)">
            <g id="noun_Phone_3582374" transform="translate(940.000000, 183.000000)" filter="url(#filter-1)">
                <g>
                    <path d="M17.8112532,24 C13.7988024,24 9.3184866,21.4078464 5.95189288,18.0380466 C3.23624176,15.3239093 1.28341398,12.1980769 0.449393784,9.23997218 C-0.527020104,5.7634367 0.0934095541,2.78500133 2.25474238,0.624873296 C2.7073509,0.172517071 3.35829349,-0.0511197141 4.03974902,0.00987213641 C4.68052063,0.0657813327 5.30095029,0.365657931 5.78407174,0.848510081 L9.16592193,4.22847513 C9.77618061,4.83839363 10.0863954,5.67194892 9.99994212,6.45976033 C9.92365979,7.13067068 9.57784654,7.6948453 9.02352824,8.04554844 L7.55382191,8.97059151 C8.82010868,10.5767102 13.4224762,15.1714296 15.0244053,16.4370105 L15.9499643,14.9681235 C16.300863,14.4141142 16.8602668,14.0684937 17.5366368,13.9922539 C18.3299731,13.9058487 19.1589078,14.2158906 19.7691665,14.8258092 L23.1510167,18.2057742 C23.6341381,18.6886264 23.934182,19.3087102 23.9901224,19.9491246 C24.0511482,20.6302003 23.8273867,21.28078 23.3747782,21.7331362 C21.7830201,23.324007 19.8607053,24 17.8112532,24 Z M3.8159875,1.51942044 C3.62782441,1.51942044 3.45491778,1.58041229 3.33286605,1.70239599 C-0.643986351,5.67703158 2.46324743,12.3963004 7.03001655,16.9605239 C11.5967857,21.5247474 18.3198021,24.6251665 22.2966545,20.6556135 C22.6068693,20.3455716 22.5051596,19.7153225 22.0779785,19.2832969 L18.6961283,15.9033318 C18.4113409,15.6187032 18.0451857,15.4662236 17.7095434,15.5068848 C17.5671498,15.5221328 17.3688157,15.5831246 17.2467639,15.7813481 L15.832998,17.9872201 C15.1871409,18.6327172 14.3988901,17.9363935 13.2088857,16.8792015 C12.3646945,16.1269686 11.2611434,15.0799419 10.1118229,13.931262 C8.95233139,12.7724169 7.88946419,11.6593156 7.13172633,10.8054297 C6.06377364,9.60592328 5.36197616,8.81302923 6.00783326,8.16244949 L6.14005597,8.05571375 L8.21493548,6.74947162 C8.41326956,6.62748792 8.47429542,6.4292644 8.48955189,6.28695008 C8.52515031,5.95657756 8.37767113,5.5855438 8.09288375,5.30091517 L4.71103356,1.92095012 C4.44658814,1.66173475 4.11094586,1.51942044 3.8159875,1.51942044 Z" id="Shape" fill="#333333"></path>
                </g>
            </g>
        </g>
    </g>
</svg>