<svg xmlns="http://www.w3.org/2000/svg" width="24" height="24" fill="none" viewBox="0 0 24 24">
    <path fill="#000" d="M9.03 17.231l-.971.966c-.407.401-.956.626-1.527.626-.572 0-1.12-.225-1.527-.626-.199-.196-.356-.43-.464-.688-.107-.258-.163-.535-.163-.814 0-.28.056-.556.163-.814.108-.258.265-.492.464-.688l3.576-3.546c.74-.736 2.135-1.819 3.151-.81.11.116.241.21.387.274.147.065.305.1.464.101.16.003.319-.027.467-.088.148-.06.282-.15.395-.263.113-.114.201-.249.26-.397.06-.149.089-.307.085-.467-.003-.16-.039-.318-.104-.463-.066-.146-.16-.277-.278-.386-1.725-1.714-4.279-1.397-6.502.81L3.33 13.505c-.423.417-.758.913-.986 1.461-.229.548-.346 1.136-.344 1.729-.001.593.115 1.18.344 1.729.228.547.563 1.044.986 1.46.851.845 2.003 1.318 3.202 1.316 1.16 0 2.321-.438 3.203-1.316l.973-.965c.111-.11.2-.24.26-.385.06-.144.092-.298.092-.454 0-.156-.03-.311-.089-.455-.06-.145-.146-.276-.257-.387-.222-.223-.524-.349-.84-.35-.315-.002-.619.122-.843.343zm10.84-13.78c-1.857-1.841-4.452-1.94-6.168-.237l-1.21 1.202c-.224.223-.35.525-.352.84 0 .315.123.618.346.842.222.223.524.35.839.35.315.002.618-.122.842-.344l1.212-1.202c.888-.883 2.053-.517 2.815.237.403.402.626.935.626 1.502 0 .568-.223 1.1-.626 1.501l-3.816 3.785c-1.745 1.73-2.563.92-2.912.573-.111-.11-.242-.197-.387-.257-.144-.059-.3-.09-.455-.088-.156 0-.31.031-.455.092-.144.06-.275.148-.385.259-.11.11-.197.242-.256.386-.06.145-.09.3-.089.456 0 .156.032.31.092.454.06.144.149.275.26.385.801.794 1.715 1.188 2.673 1.188 1.172 0 2.412-.59 3.592-1.76l3.816-3.784c.421-.417.756-.914.984-1.462.228-.547.345-1.135.344-1.728.001-.593-.116-1.181-.345-1.729-.228-.548-.563-1.045-.986-1.462z"/>
</svg>
