<svg id="Layer_1" data-name="Layer 1" xmlns="http://www.w3.org/2000/svg" width="1em" height="1em" viewBox="0 0 24 24">
  <defs><style>.cls-1{fill:#333;}</style></defs>
  <rect class="cls-1" x="16.85" y="3.89" width="5.52" height="1" transform="translate(2.64 15.15) rotate(-45)"/>
  <polygon class="cls-1" points="20.27 6.13 17.87 6.13 17.87 3.73 16.85 4.75 16.85 7.15 19.25 7.15 20.27 6.13"/>
  <rect class="cls-1" x="1.63" y="19.11" width="5.52" height="1" transform="translate(-12.58 8.85) rotate(-45)"/>
  <polygon class="cls-1" points="6.13 20.27 6.13 17.87 3.73 17.87 4.75 16.85 7.15 16.85 7.15 19.25 6.13 20.27"/>
  <rect class="cls-1" x="3.89" y="1.63" width="1" height="5.52" transform="translate(-1.82 4.39) rotate(-45)"/>
  <polygon class="cls-1" points="6.13 3.73 6.13 6.13 3.73 6.13 4.75 7.15 7.15 7.15 7.15 4.75 6.13 3.73"/>
  <rect class="cls-1" x="19.11" y="16.85" width="1" height="5.52" transform="translate(-8.12 19.61) rotate(-45)"/>
  <polygon class="cls-1" points="20.27 17.87 17.87 17.87 17.87 20.27 16.85 19.25 16.85 16.85 19.25 16.85 20.27 17.87"/>
  <path class="cls-1" d="M12,17.29A5.29,5.29,0,1,1,17.29,12,5.3,5.3,0,0,1,12,17.29Zm0-9.58A4.29,4.29,0,1,0,16.29,12,4.3,4.3,0,0,0,12,7.71Z"/>
</svg>