<svg id="Layer_1" data-name="Layer 1" xmlns="http://www.w3.org/2000/svg" viewBox="0 0 24 24"><defs><style>.cls-1{fill:#333;}</style></defs><path class="cls-1" d="M13.55,14.36l.8-.81a1.16,1.16,0,0,0,.1-1.54l-.65-.84a.16.16,0,0,1,0-.16,6,6,0,0,0,.33-.79.19.19,0,0,1,.14-.1l1-.13a1.17,1.17,0,0,0,1-1.16V7.69a1.17,1.17,0,0,0-1-1.16L14.23,6.4a.2.2,0,0,1-.14-.13,4.55,4.55,0,0,0-.3-.72.19.19,0,0,1,0-.19l.65-.84A1.18,1.18,0,0,0,14.35,3l-.8-.8A1.16,1.16,0,0,0,12,2.07l-.85.65a.15.15,0,0,1-.15,0,6.86,6.86,0,0,0-.79-.32.19.19,0,0,1-.1-.14l-.13-1a1.17,1.17,0,0,0-1.16-1H7.7a1.17,1.17,0,0,0-1.16,1L6.4,2.3c0,.09-.11.13-.13.14a5.56,5.56,0,0,0-.71.29.18.18,0,0,1-.2,0l-.84-.66A1.18,1.18,0,0,0,3,2.17l-.8.8a1.18,1.18,0,0,0-.1,1.55l.66.84a.2.2,0,0,1,0,.2,5.56,5.56,0,0,0-.29.71.2.2,0,0,1-.14.13l-1.06.13a1.17,1.17,0,0,0-1,1.16V8.83a1.17,1.17,0,0,0,1,1.16l1.06.14c.07,0,.12.07.14.13a6.22,6.22,0,0,0,.29.71.16.16,0,0,1,0,.19L2.07,12a1.16,1.16,0,0,0,.1,1.54l.8.8a1.18,1.18,0,0,0,1.55.1l.84-.65a.2.2,0,0,1,.2,0,7.56,7.56,0,0,0,.71.3.19.19,0,0,1,.13.14l.14,1.06a1.17,1.17,0,0,0,1.16,1H8.83a1.17,1.17,0,0,0,1.16-1l.13-1a.16.16,0,0,1,.1-.14,6,6,0,0,0,.79-.33.15.15,0,0,1,.15,0l.85.65A1.17,1.17,0,0,0,13.55,14.36Zm-.93-.7L11.78,13a1.15,1.15,0,0,0-1.22-.13,6.5,6.5,0,0,1-.66.27,1.18,1.18,0,0,0-.77,1L9,15.16a.16.16,0,0,1-.17.15H7.7a.16.16,0,0,1-.17-.15L7.39,14.1a1.18,1.18,0,0,0-.8-1A5,5,0,0,1,6,12.9a1.25,1.25,0,0,0-.55-.14,1.21,1.21,0,0,0-.71.24l-.85.66a.17.17,0,0,1-.22,0l-.8-.81a.17.17,0,0,1,0-.22l.66-.84a1.18,1.18,0,0,0,.11-1.25,6.32,6.32,0,0,1-.25-.6,1.18,1.18,0,0,0-1-.8L1.36,9a.17.17,0,0,1-.15-.17V7.69a.19.19,0,0,1,.15-.17l1.06-.13a1.16,1.16,0,0,0,1-.8A6.14,6.14,0,0,1,3.63,6a1.17,1.17,0,0,0-.11-1.25L2.86,3.9a.17.17,0,0,1,0-.22l.8-.8a.17.17,0,0,1,.22,0l.85.66A1.19,1.19,0,0,0,6,3.63a3.76,3.76,0,0,1,.58-.25,1.15,1.15,0,0,0,.8-.95l.14-1.07a.17.17,0,0,1,.17-.15H8.83A.17.17,0,0,1,9,1.36l.13,1.05a1.16,1.16,0,0,0,.77,1,4.84,4.84,0,0,1,.66.28,1.18,1.18,0,0,0,1.22-.14l.84-.65a.17.17,0,0,1,.22,0l.81.8a.17.17,0,0,1,0,.22L13,4.75A1.17,1.17,0,0,0,12.9,6a6.07,6.07,0,0,1,.24.59,1.16,1.16,0,0,0,1,.8l1.05.13a.18.18,0,0,1,.15.17V8.83a.17.17,0,0,1-.15.17l-1,.13a1.18,1.18,0,0,0-1,.77,3.81,3.81,0,0,1-.27.66A1.18,1.18,0,0,0,13,11.78l.65.84a.17.17,0,0,1,0,.22l-.81.81A.17.17,0,0,1,12.62,13.66Z"/><path class="cls-1" d="M8.26,4.2a4.06,4.06,0,1,0,4.06,4.06A4.07,4.07,0,0,0,8.26,4.2Zm0,7.12a3.06,3.06,0,1,1,3.06-3.06A3.07,3.07,0,0,1,8.26,11.32Z"/><path class="cls-1" d="M23.1,16.91l-.69-.08a1.71,1.71,0,0,0-.23-.47l.45-.58a1,1,0,0,0-.08-1.27L22,14a1,1,0,0,0-1.27-.08l-.52.45a2.29,2.29,0,0,0-.52-.2l-.09-.72a1,1,0,0,0-1-.84h-.78a1,1,0,0,0-1,.84l-.08.7a2,2,0,0,0-.47.22l-.58-.45a1,1,0,0,0-1.27.08l-.55.55a1,1,0,0,0-.08,1.27l.44.55a1.94,1.94,0,0,0-.18.49l-.73.09a1,1,0,0,0-.84,1v.78a1,1,0,0,0,.84,1l.7.08a2.34,2.34,0,0,0,.22.48l-.45.58A1,1,0,0,0,14,22l.55.55a1,1,0,0,0,1.27.08l.55-.43a1.94,1.94,0,0,0,.49.18l.09.73a1,1,0,0,0,1,.83h.78a1,1,0,0,0,1-.84l0-.68a2.36,2.36,0,0,0,.5-.23l.58.45A1,1,0,0,0,22,22.55l.55-.55a1,1,0,0,0,.08-1.26l-.45-.53a2.7,2.7,0,0,0,.21-.52l.71-.09a1,1,0,0,0,.84-1v-.78A1,1,0,0,0,23.1,16.91Zm-.16,1.7-.68.09a1,1,0,0,0-.79.64,3.93,3.93,0,0,1-.18.43,1,1,0,0,0,.1,1l.45.52-.5.55-.57-.44a.94.94,0,0,0-1-.11,3.93,3.93,0,0,1-.43.18.93.93,0,0,0-.64.79l-.05.68-.74,0-.1-.73a1,1,0,0,0-.65-.79,2.54,2.54,0,0,1-.38-.16,1.06,1.06,0,0,0-.45-.11,1,1,0,0,0-.58.2l-.53.46-.55-.5.45-.58a.94.94,0,0,0,.09-1c-.06-.13-.11-.26-.16-.39a1,1,0,0,0-.79-.66l-.69-.05,0-.74.73-.1a.94.94,0,0,0,.79-.65c0-.13.1-.26.16-.39a.94.94,0,0,0-.09-1l-.45-.53.49-.55.59.45a.94.94,0,0,0,1,.09l.39-.16a1,1,0,0,0,.65-.78l.06-.7.74,0,.09.72a.93.93,0,0,0,.64.79,3.93,3.93,0,0,1,.43.18,1,1,0,0,0,1-.11l.52-.45.55.5-.45.58a1,1,0,0,0-.09,1,3.2,3.2,0,0,1,.16.39,1,1,0,0,0,.79.65l.69.06Z"/><path class="cls-1" d="M18.26,15.31a2.95,2.95,0,1,0,2.94,2.94A2.95,2.95,0,0,0,18.26,15.31Zm0,4.89a1.95,1.95,0,1,1,1.94-1.95A1.95,1.95,0,0,1,18.26,20.2Z"/><path class="cls-1" d="M18.77,4.33l-1.2-1.19h1.3a1.5,1.5,0,0,1,1.5,1.5v6.81h1V4.64a2.5,2.5,0,0,0-2.5-2.5h-1.3l1.2-1.2H17.33l-1.69,1.7,1.69,1.69Z"/><path class="cls-1" d="M8.87,19.35l1.19,1.2H5.19a1.5,1.5,0,0,1-1.5-1.5V15.81h-1v3.24a2.5,2.5,0,0,0,2.5,2.5h4.87L8.87,22.74H10.3L12,21.05l-1.7-1.7Z"/></svg>