<svg xmlns="http://www.w3.org/2000/svg" width="36" height="36" viewBox="0 0 36 36">
    <g fill="none" fill-rule="evenodd">
        <g fill="#000">
            <g>
                <g>
                    <g>
                        <path d="M18 0c9.941 0 18 8.059 18 18s-8.059 18-18 18S0 27.941 0 18 8.059 0 18 0zm1.016 8.4h-2.033c-1.11.003-1.652.01-2.136.025l-.192.007c-.192.007-.385.016-.613.026-1.022.047-1.72.209-2.33.446-.631.245-1.167.573-1.7 1.107-.534.534-.862 1.07-1.108 1.7-.238.611-.4 1.309-.446 2.33-.04.873-.054 1.24-.057 2.94v2.037c.002 1.11.009 1.651.024 2.136l.007.192c.007.19.016.384.026.612.047 1.022.209 1.72.446 2.33.245.631.573 1.167 1.107 1.7.534.534 1.07.863 1.7 1.108.611.238 1.309.4 2.33.446.228.01.421.02.613.026l.192.007c.549.017 1.172.024 2.61.025h1.087c1.439-.001 2.061-.008 2.61-.025l.192-.007c.192-.007.385-.015.612-.026 1.022-.047 1.72-.208 2.332-.446.63-.245 1.166-.574 1.699-1.108.534-.533.862-1.069 1.108-1.7.236-.61.398-1.309.446-2.33.04-.873.054-1.239.057-2.94v-.737L27.6 18V16.981c-.004-1.701-.019-2.068-.058-2.94-.048-1.022-.21-1.72-.446-2.33-.246-.632-.574-1.167-1.108-1.701-.534-.534-1.068-.862-1.7-1.107-.612-.237-1.31-.4-2.332-.446-.872-.04-1.238-.054-2.94-.057z" transform="translate(-197 -5769) translate(0 5569) translate(41 200) translate(156)"/>
                        <path d="M17.14 10.128v.002h1.662c1.842.003 2.183.015 3.078.055.936.043 1.444.2 1.783.33.448.175.767.383 1.103.719.336.336.544.656.718 1.104.132.338.288.846.33 1.782.04.856.053 1.206.056 2.845v2.065c-.003 1.64-.016 1.99-.055 2.846-.043.936-.2 1.444-.33 1.782-.175.448-.383.767-.72 1.103-.335.336-.654.544-1.102.718-.338.132-.847.288-1.783.33l-.427.02-.197.007c-.519.019-1.029.027-2.222.029h-2.067c-1.043-.002-1.564-.008-2.026-.022l-.195-.007c-.195-.007-.39-.016-.624-.026-.936-.044-1.444-.2-1.783-.331-.448-.174-.768-.382-1.104-.718-.336-.336-.544-.656-.718-1.104-.132-.338-.288-.846-.331-1.782l-.019-.427-.007-.197c-.017-.454-.024-.901-.027-1.805v-2.9c.002-.71.007-1.139.017-1.51l.006-.197c.008-.228.018-.45.03-.722.043-.936.2-1.444.33-1.782.175-.448.383-.768.719-1.104.336-.336.656-.544 1.104-.718.338-.132.847-.288 1.783-.331.792-.036 1.15-.05 2.498-.053l.52-.001zM18 13.07c-2.722 0-4.93 2.207-4.93 4.93s2.208 4.93 4.93 4.93c2.724 0 4.93-2.207 4.93-4.93 0-2.65-2.092-4.813-4.715-4.925L18 13.07zm5.125-1.346c-.636 0-1.152.515-1.152 1.152 0 .636.516 1.152 1.152 1.152.636 0 1.152-.516 1.152-1.152 0-.636-.516-1.152-1.152-1.152z" transform="translate(-197 -5769) translate(0 5569) translate(41 200) translate(156)"/>
                        <path d="M18 14.8c1.768 0 3.2 1.433 3.2 3.2 0 1.767-1.432 3.2-3.2 3.2-1.767 0-3.2-1.433-3.2-3.2 0-1.767 1.433-3.2 3.2-3.2z" transform="translate(-197 -5769) translate(0 5569) translate(41 200) translate(156)"/>
                    </g>
                </g>
            </g>
        </g>
    </g>
</svg>
