<svg xmlns="http://www.w3.org/2000/svg" width="24" height="24" fill="none" viewBox="0 0 24 24">
    <path fill="#00B900" d="M0 12C0 5.373 5.373 0 12 0s12 5.373 12 12-5.373 12-12 12S0 18.627 0 12z"/>
    <path fill="#fff" d="M12.2 5.6c-4.08 0-7.4 2.675-7.4 5.962 0 2.947 2.633 5.415 6.189 5.882.24.052.569.158.652.362.074.186.049.477.024.665l-.106.628c-.032.186-.149.727.641.396.79-.33 4.262-2.49 5.814-4.265 1.072-1.168 1.586-2.352 1.586-3.668 0-3.287-3.32-5.962-7.4-5.962z"/>
    <path fill="#00B900" d="M10.143 10c-.079 0-.143.066-.143.148v3.305c0 .081.064.147.143.147h.514c.079 0 .143-.066.143-.147v-3.305c0-.082-.064-.148-.143-.148h-.514zM14.25 10h-.542c-.083 0-.15.066-.15.148v1.963l-1.541-2.045-.012-.015v-.001l-.01-.01-.003-.002-.008-.006c0-.002-.002-.002-.004-.004l-.007-.005-.005-.002-.008-.005-.005-.002-.008-.004-.005-.001-.01-.003-.004-.002-.009-.002h-.006L11.905 10h-.008L11.892 10h-.542c-.083 0-.15.066-.15.148v3.305c0 .081.067.147.15.147h.542c.083 0 .15-.066.15-.147V11.49l1.543 2.048c.01.014.024.027.038.036l.002.001.01.006.003.002.008.003.007.004.004.001.01.003h.003c.012.004.025.006.038.006h.542c.083 0 .15-.066.15-.147v-3.305c0-.082-.067-.148-.15-.148zM9.454 12.772H8.02v-2.624c0-.082-.065-.148-.146-.148h-.528c-.08 0-.146.066-.146.148v3.304c0 .04.016.076.04.103l.003.002.002.002c.026.025.062.041.101.041h2.108c.08 0 .146-.066.146-.148v-.532c0-.081-.065-.148-.146-.148zM17.054 10.828c.08 0 .146-.066.146-.148v-.532c0-.082-.065-.148-.146-.148h-2.107c-.04 0-.076.016-.102.042l-.002.001-.002.003c-.025.026-.041.062-.041.102v3.304c0 .04.016.076.041.103l.002.002.002.002c.026.025.062.041.101.041h2.108c.08 0 .146-.066.146-.148v-.532c0-.081-.065-.148-.146-.148H15.62v-.558h1.433c.08 0 .146-.066.146-.148v-.532c0-.082-.065-.148-.146-.148H15.62v-.558h1.433z"/>
</svg>
