<svg xmlns="http://www.w3.org/2000/svg" width="24" height="24" viewBox="0 0 24 24">
    <g fill="none" fill-rule="evenodd">
        <g fill="#333">
            <g>
                <g>
                    <path d="M19 4c2.21 0 4 1.79 4 4v8c0 2.21-1.79 4-4 4H5c-2.21 0-4-1.79-4-4V8c0-2.21 1.79-4 4-4h14zm1.723 2.983l-7.559 5.413c-.65.465-1.508.497-2.186.094l-.142-.093-7.561-5.41c-.151.257-.246.55-.27.864L3 8v8c0 1.054.816 1.918 1.85 1.995L5 18h14c1.054 0 1.918-.816 1.995-1.85L21 16V8c0-.371-.101-.719-.277-1.017zM18.66 6H5.331L12 10.77 18.66 6z" transform="translate(-940 -215) translate(940 183) translate(0 32)"/>
                </g>
            </g>
        </g>
    </g>
</svg>
