<svg id="Layer_1" data-name="Layer 1" xmlns="http://www.w3.org/2000/svg" viewBox="0 0 24 24"><defs><style>.cls-1{fill:#333;}</style></defs><path class="cls-1" d="M16.53.5H7.47A2.51,2.51,0,0,0,5,3V21a2.51,2.51,0,0,0,2.5,2.5h9.06A2.51,2.51,0,0,0,19,21V3A2.51,2.51,0,0,0,16.53.5Zm-9.06,1h9.06A1.5,1.5,0,0,1,18,3V4.33H6V3A1.5,1.5,0,0,1,7.47,1.5ZM18,5.33V18.67H6V5.33ZM16.53,22.5H7.47A1.5,1.5,0,0,1,6,21V19.67H18V21A1.5,1.5,0,0,1,16.53,22.5Z"/><path class="cls-1" d="M11.48,12.5h0V15h0a1.18,1.18,0,0,1-1.19-1.18h-1A2.19,2.19,0,0,0,11.48,16h0v1.31h1V16h0a2.19,2.19,0,0,0,2.19-2.18v-.15a2.19,2.19,0,0,0-2.19-2.18h0V9h0a1.18,1.18,0,0,1,1.19,1.18h1A2.19,2.19,0,0,0,12.52,8h0V6.68h-1V8h0a2.19,2.19,0,0,0-2.19,2.18v.15A2.19,2.19,0,0,0,11.48,12.5Zm1,0a1.18,1.18,0,0,1,1.19,1.18v.15A1.18,1.18,0,0,1,12.52,15h0V12.5Zm-2.23-2.33A1.18,1.18,0,0,1,11.48,9h0V11.5h0a1.18,1.18,0,0,1-1.19-1.18Z"/></svg>