<svg xmlns="http://www.w3.org/2000/svg" width="35" height="36" viewBox="0 0 35 36">
    <g fill="none" fill-rule="evenodd">
        <g fill="#000">
            <g>
                <g>
                    <g>
                        <path d="M17.445 0c9.634 0 17.444 8.059 17.444 18s-7.81 18-17.444 18C7.81 36 0 27.941 0 18S7.81 0 17.445 0zm.28 11.4h-.61c-.964.006-4.033.033-6.2.199-.364.045-1.155.049-1.862.83-.557.596-.738 1.948-.738 1.948s-.17 1.458-.185 2.977l-.001 1.687c0 1.588.186 3.175.186 3.175s.181 1.352.738 1.948c.707.782 1.636.757 2.049.839 1.486.15 6.317.197 6.317.197H17.631c.848-.005 4.054-.034 6.293-.205.363-.046 1.155-.05 1.861-.831.557-.596.739-1.948.739-1.948l.004-.032c.026-.232.182-1.687.182-3.143v-1.489c0-1.455-.156-2.91-.182-3.143l-.004-.032s-.182-1.352-.739-1.948c-.706-.781-1.498-.785-1.861-.83-.506-.039-1.06-.07-1.626-.095l-.487-.02c-1.706-.065-3.413-.08-4.087-.083z" transform="translate(-93 -5769) translate(0 5569) translate(41 200) translate(52)"/>
                        <path d="M15.501 20.845L15.5 15.332 20.521 18.098z" transform="translate(-93 -5769) translate(0 5569) translate(41 200) translate(52)"/>
                    </g>
                </g>
            </g>
        </g>
    </g>
</svg>
