<svg xmlns="http://www.w3.org/2000/svg" xmlns:xlink="http://www.w3.org/1999/xlink" width="956.949" height="261.62" viewBox="0 0 956.949 261.62">
  <defs>
    <linearGradient id="linear-gradient" x1="0.146" y1="0.207" x2="0.825" y2="0.76" gradientUnits="objectBoundingBox">
      <stop offset="0.174" stop-color="#fff201"/>
      <stop offset="0.403" stop-color="#ffc400"/>
      <stop offset="0.461" stop-color="#ffb100"/>
      <stop offset="0.6" stop-color="#ff8a00"/>
      <stop offset="0.711" stop-color="#ff7100"/>
      <stop offset="0.779" stop-color="#ff6900"/>
      <stop offset="0.975" stop-color="#f20"/>
    </linearGradient>
  </defs>
  <g id="logo" transform="translate(-296.974 -381.407)">
    <g id="Group_1" data-name="Group 1" transform="translate(296.974 381.407)">
      <path id="Path_1" data-name="Path 1" d="M373.809,593.432c-25.516,0-49.27-6.453-69.214-18.478l13.194-26.693c16.429,10.264,34.027,16.429,55.139,16.429,31.681,0,48.982-16.429,48.982-47.518V505.146c-12.9,16.717-29.039,28.446-54.546,28.446-36.372,0-70.391-26.684-70.391-72.728s34.306-73.033,70.391-73.033c26.092,0,42.233,12.025,54.25,26.4v-23.17h35.492V514.242C457.106,569.084,427.2,593.432,373.809,593.432Zm2.939-175.681c-24.635,0-43.994,17.005-43.994,42.817s19.647,43.114,43.994,43.114c24.635,0,45.459-17.3,45.459-42.817C422.207,434.756,401.383,417.751,376.748,417.751Z" transform="translate(-296.974 -331.811)" fill="#1575ab"/>
      <path id="Path_2" data-name="Path 2" d="M452.092,595.51V569.7c-11.441,16.133-27.574,29.039-52.8,29.039-36.364,0-71.848-29.039-71.848-80.655s34.9-80.655,71.848-80.655c25.525,0,41.649,12.906,52.8,27.278v-83.3h35.483v214.1ZM407.8,468.227c-24.338,0-44.578,18.766-44.578,49.854,0,30.5,20.528,49.863,44.578,49.863,23.754,0,44.875-19.656,44.875-49.863S431.556,468.227,407.8,468.227Z" transform="translate(-61.742 -381.407)" fill="#1575ab"/>
      <path id="Path_3" data-name="Path 3" d="M429.138,520.4c17.3,0,29.623-6.453,41.937-18.478L491.907,520.4C477.239,538,457,549.437,428.553,549.437c-44.875,0-79.487-32.562-79.487-80.655,0-44.587,31.385-80.951,75.676-80.951,49.27,0,74.193,38.719,74.193,83.585,0,3.227-.288,6.165-.584,9.68H384.559C388.667,506.324,406.264,520.4,429.138,520.4Zm34.611-62.76c-2.354-22.882-15.845-40.768-39.3-40.768-21.705,0-36.948,16.717-40.183,40.768Z" transform="translate(105.204 -331.811)" fill="#1575ab"/>
      <path id="Path_4" data-name="Path 4" d="M426.261,545.914H390.769V391.058h35.492v24.051c9.967-14.668,24.339-27.278,48.39-27.278,34.908,0,55.139,23.467,55.139,59.534v98.549H494.306V457.925c0-24.051-12.026-37.829-33.146-37.829-20.528,0-34.9,14.371-34.9,38.422Z" transform="translate(427.16 -331.811)" fill="#1575ab"/>
      <path id="Path_5" data-name="Path 5" d="M320.159,415.3V381.763h37.908V415.3Zm1.456,177.582V438.916H356.9V592.883Z" transform="translate(-117.977 -378.659)" fill="#1575ab"/>
    </g>
    <path id="Path_6" data-name="Path 6" d="M533.659,494.017c0-34.951-21.461-64.679-53.622-75.885l15.147-33.609L422.85,418.011l.061.026A80.418,80.418,0,0,0,368.539,494.6,79.391,79.391,0,0,0,424.472,571l-15.74,32.972,65.577-32.178A80.271,80.271,0,0,0,533.659,494.017Z" transform="translate(552.509 24.064)" fill="url(#linear-gradient)"/>
    <path id="Path_7" data-name="Path 7" d="M434.589,464.273l34.35-79.749-97,118.107,127.07-46.014Z" transform="translate(578.753 24.063)" fill="#fff"/>
    <path id="Path_8" data-name="Path 8" d="M403.334,514l97.691-117.826L369.238,444.342l68.47-10.7Z" transform="translate(557.904 114.036)" fill="#fff"/>
  </g>
</svg>
