<svg id="Layer_1" data-name="Layer 1" xmlns="http://www.w3.org/2000/svg" viewBox="0 0 60 60"><defs><style>.cls-1{fill:#00b8de;}</style></defs><path class="cls-1" d="M48.65,26.37a5.94,5.94,0,0,0-4.44-5.74V13.42a3.5,3.5,0,0,0-5.15-3.09L27,17.06H7.08a3.5,3.5,0,0,0-3.5,3.5V32.18a3.5,3.5,0,0,0,3.5,3.5h3.74a4,4,0,0,0,0,.91L12.16,48.2a3.5,3.5,0,0,0,3.48,3.09h5.54a3.49,3.49,0,0,0,3.48-3.91L23.29,35.77a.29.29,0,0,0,0-.09H27l12.1,6.76a3.5,3.5,0,0,0,1.6.39,3.42,3.42,0,0,0,1.82-.52,3.48,3.48,0,0,0,1.68-3V32.12A6,6,0,0,0,48.65,26.37Zm-3,0a2.94,2.94,0,0,1-1.44,2.53V23.84A3,3,0,0,1,45.65,26.37ZM20.31,36.12l1.37,11.62a.55.55,0,0,1-.12.39.52.52,0,0,1-.38.16H15.64a.51.51,0,0,1-.5-.44L13.77,36.24a.49.49,0,0,1,.13-.39.48.48,0,0,1,.37-.17h5.54A.5.5,0,0,1,20.31,36.12Zm5.27-3.44H7.08a.5.5,0,0,1-.5-.5V20.56a.5.5,0,0,1,.5-.5h18.5Zm15.63,6.65a.47.47,0,0,1-.24.42.46.46,0,0,1-.45,0L28.59,33.13V19.6L40.48,13A.5.5,0,0,1,41,13a.49.49,0,0,1,.24.43V39.33Z"/><path class="cls-1" d="M48.65,12.8a1.5,1.5,0,1,0-1.52,2.59,12.74,12.74,0,0,1,0,22,1.5,1.5,0,1,0,1.52,2.58,15.73,15.73,0,0,0,0-27.14Z"/></svg>