<svg xmlns="http://www.w3.org/2000/svg" xmlns:xlink="http://www.w3.org/1999/xlink" width="80" height="80" viewBox="0 0 80 80">
    <defs>
        <linearGradient id="swedmiftyb" x1="51.818%" x2="41.929%" y1="36.251%" y2="48.055%">
            <stop offset="0%" stop-color="#A1DCF1"/>
            <stop offset="100%" stop-color="#8BDEE2"/>
        </linearGradient>
        <linearGradient id="tdxqjnmmmc" x1="50%" x2="32.254%" y1="38.542%" y2="62.555%">
            <stop offset="0%" stop-color="#EFF2F3"/>
            <stop offset="100%" stop-color="#DED9D5"/>
        </linearGradient>
        <linearGradient id="49ownp1c6d" x1="50%" x2="50%" y1="0%" y2="99.797%">
            <stop offset="0%" stop-color="#FFF"/>
            <stop offset="100%" stop-color="#EDEDEB"/>
        </linearGradient>
        <filter id="bkripvv4ce" width="125%" height="152.3%" x="-12.5%" y="-26.2%" filterUnits="objectBoundingBox">
            <feGaussianBlur in="SourceGraphic" stdDeviation="1.6"/>
        </filter>
        <path id="pvz0o90iwa" d="M26.043 0h27.98c4.42 0 8 3.582 8 8v44.8c0 4.418-3.58 8-8 8h-27.98c-4.418 0-8-3.582-8-8V8c0-4.418 3.582-8 8-8z"/>
    </defs>
    <g fill="none" fill-rule="evenodd">
        <g>
            <g>
                <g transform="translate(-290 -878) translate(62 878) translate(228)">
                    <ellipse cx="40.396" cy="40" fill="#FFCEAC" rx="39.604" ry="40"/>
                    <g transform="translate(0 12)">
                        <path stroke="url(#swedmiftyb)" stroke-width="1.6" d="M54.024.8c1.988 0 3.788.806 5.091 2.109C60.418 4.212 61.224 6.012 61.224 8h0v44.8c0 1.988-.806 3.788-2.109 5.091C57.812 59.194 56.012 60 54.024 60h0-27.98c-1.989 0-3.789-.806-5.092-2.109-1.303-1.303-2.109-3.103-2.109-5.091h0V8c0-1.988.806-3.788 2.11-5.091C22.254 1.606 24.054.8 26.042.8h0z"/>
                        <path stroke="#405BEC" stroke-linecap="round" stroke-width="2" d="M0 32.613c6.41-11.104 12.837-11.737 19.282-1.898 9.667 14.758 11.171-19.396 19.885-19.396 8.714 0 7.012 19.989 14.39 19.396 7.378-.593 7.338-31.279 12.978-28.204"/>
                        <path fill="#FFF" stroke="url(#tdxqjnmmmc)" stroke-width="1.6" d="M55.64 39.804c.608 0 1.158.246 1.556.644.398.398.645.948.645 1.556h0v12.354c0 .608-.247 1.158-.645 1.556-.398.398-.948.644-1.555.644h0-32.342c-.608 0-1.158-.246-1.556-.644-.398-.398-.644-.948-.644-1.556h0V42.004c0-.608.246-1.158.644-1.556.398-.398.948-.644 1.556-.644h0z"/>
                        <path stroke="url(#49ownp1c6d)" stroke-width="1.6" d="M49.463 39.804c2.314 0 4.408.937 5.924 2.453 1.516 1.516 2.454 3.61 2.454 5.924 0 2.313-.938 4.408-2.454 5.924-1.516 1.516-3.61 2.453-5.924 2.453h0-19.987c-2.313 0-4.408-.937-5.924-2.453-1.516-1.516-2.453-3.61-2.453-5.924 0-2.313.937-4.408 2.453-5.924 1.516-1.516 3.61-2.453 5.924-2.453h0z" filter="url(#bkripvv4ce)"/>
                        <rect width="12.405" height="1.147" x="23.682" y="43.592" fill="#E5D7BB" rx=".574"/>
                        <rect width="30.448" height="1.147" x="23.682" y="47.034" fill="#EEE3CD" rx=".574"/>
                        <rect width="30.448" height="1.147" x="23.682" y="49.328" fill="#EEE3CD" rx=".574"/>
                        <rect width="15.788" height="1.147" x="23.682" y="52.77" fill="#EEE3CD" rx=".574"/>
                        <rect width="6.766" height="1.147" x="37.214" y="43.592" fill="#E5D7BB" rx=".574"/>
                    </g>
                </g>
            </g>
        </g>
    </g>
</svg>
