<svg xmlns="http://www.w3.org/2000/svg" xmlns:xlink="http://www.w3.org/1999/xlink" width="1440" height="900" viewBox="0 0 1440 900">
    <defs>
        <path id="4fhi6khiga" d="M0 0H1440V900H0z"/>
    </defs>
    <g fill="none" fill-rule="evenodd">
        <g>
            <g transform="translate(-2) translate(2)">
                <mask id="hvfcicqh0b" fill="#fff">
                    <use xlink:href="#4fhi6khiga"/>
                </mask>
                <g fill="#F4F4F4" mask="url(#hvfcicqh0b)">
                    <g>
                        <path d="M394.927 0L259 75.478V232.59L394.927 311 531 232.59V75.478L394.927 0zM509 79.74L395.5 140 282 79.74 395.5 17 509 79.74zM273 92l114 60.867V290l-114-65.853V92zm129 198V152.867L516 92v132l-114 66z" transform="translate(908 514)"/>
                        <path d="M394.927 156L259 231.478V388.59L394.927 467 531 388.59V231.478L394.927 156zM509 235.74L395.5 296 282 235.74 395.5 173 509 235.74zM273 248l114 60.867V446l-114-65.853V248zm129 198V308.867L516 248v132l-114 66z" transform="translate(908 514)"/>
                        <path d="M136.426 156L0 231.478V388.59L136.426 467 273 388.59V231.478L136.426 156zM251 235.74L137 296 23 235.74 137 173l114 62.74zM14 248l115 60.867V446L14 380.147V248zm129 198V308.867L258 248v132l-115 66z" transform="translate(908 514)"/>
                    </g>
                </g>
                <g fill="#F4F4F4" mask="url(#hvfcicqh0b)">
                    <path d="M135.927 0L0 75.478V232.59L135.927 311 272 232.59V75.478L135.927 0zm113.75 79.406L136 139.785 22.322 79.406 136 16.543l113.678 62.863zM14.056 91.811l114.09 60.77v136.914l-114.09-65.748V91.81zm128.972 197.684V152.58L257.12 91.81v131.79l-114.092 65.894z" transform="rotate(180 135.5 126.5)"/>
                </g>
            </g>
        </g>
    </g>
</svg>
