<svg width="2em" height="1.758945386em" viewBox="0 0 531 467" fill="none" xmlns="http://www.w3.org/2000/svg">
      <path fill-rule="evenodd" clip-rule="evenodd" d="M394.927 0L259 75.478V232.59L394.927 311L531 232.59V75.478L394.927 0ZM509 79.74L395.5 140L282 79.74L395.5 17L509 79.74ZM273 92L387 152.867V290L273 224.147V92ZM402 290V152.867L516 92V224L402 290Z" fill="#F4F4F4" />
      <path fill-rule="evenodd" clip-rule="evenodd" d="M394.927 156L259 231.478V388.59L394.927 467L531 388.59V231.478L394.927 156ZM509 235.74L395.5 296L282 235.74L395.5 173L509 235.74ZM273 248L387 308.867V446L273 380.147V248ZM402 446V308.867L516 248V380L402 446Z" fill="#F4F4F4" />
      <path fill-rule="evenodd" clip-rule="evenodd" d="M136.426 156L0 231.478V388.59L136.426 467L273 388.59V231.478L136.426 156ZM251 235.74L137 296L23 235.74L137 173L251 235.74ZM14 248L129 308.867V446L14 380.147V248ZM143 446V308.867L258 248V380L143 446Z" fill="#F4F4F4" />
</svg>
