<svg id="Layer_1" data-name="Layer 1" xmlns="http://www.w3.org/2000/svg" viewBox="0 0 60 60"><defs><style>.cls-1{fill:#00b8de;}</style></defs><path class="cls-1" d="M44.76,29.29l.06-.13c0-.05,0-.1,0-.15l0-.13a.91.91,0,0,0,0-.17.22.22,0,0,0,0-.08v-.11a14.92,14.92,0,0,0-29.84,0v.11s0,.06,0,.09a.76.76,0,0,0,0,.15.75.75,0,0,0,0,.16.56.56,0,0,0,0,.12,1,1,0,0,0,.07.15.54.54,0,0,0,.05.11l.1.14.08.09a.86.86,0,0,0,.14.13l.05.05h0a.54.54,0,0,0,.18.11L16,30l.2.08.08,0,.19,0h.16l.13,0h.1l.19,0,.09,0,.18-.08.09-.05.15-.11.08-.07a.86.86,0,0,0,.13-.14.12.12,0,0,0,.05,0A3,3,0,0,1,20,28.15,1.91,1.91,0,0,1,21,28.5a4.13,4.13,0,0,0,4.56,0,1.88,1.88,0,0,1,2.27.09,3.53,3.53,0,0,0,.64.35v13.2a4.17,4.17,0,1,0,8.34,0,1.5,1.5,0,1,0-3,0,1.17,1.17,0,1,1-2.34,0V28.86a6.36,6.36,0,0,0,.83-.41,1.9,1.9,0,0,1,2.24.14c.88.62,2.38,1.11,4.46-.14a2,2,0,0,1,1-.3,3,3,0,0,1,2.19,1.38.12.12,0,0,0,.05,0l.15.16.09.08.18.11.1.06.22.07.08,0a1.65,1.65,0,0,0,.32,0h0a1.4,1.4,0,0,0,.41-.06l.09,0a1.33,1.33,0,0,0,.37-.2h0a.23.23,0,0,0,.07-.07.52.52,0,0,0,.11-.1l.1-.12a.44.44,0,0,0,.08-.11A.83.83,0,0,0,44.76,29.29Zm-7.28-3.41c-.84.5-1.07.33-1.18.26a5,5,0,0,0-5.52-.26,3.66,3.66,0,0,1-.58.28l-.2,0a1.24,1.24,0,0,0-.33,0l-.07-.05A4.89,4.89,0,0,0,24,26a1.14,1.14,0,0,1-1.34,0,4.83,4.83,0,0,0-4.11-.55,11.91,11.91,0,0,1,22.93,0,4.8,4.8,0,0,0-4,.51Z"/><path class="cls-1" d="M52.06,15.24,31.75,3.52a3.48,3.48,0,0,0-3.5,0L7.94,15.24a3.52,3.52,0,0,0-1.75,3V41.73a3.52,3.52,0,0,0,1.75,3L28.25,56.48a3.49,3.49,0,0,0,3.5,0L52.06,44.76a3.52,3.52,0,0,0,1.75-3V18.27A3.52,3.52,0,0,0,52.06,15.24ZM50.81,41.73a.52.52,0,0,1-.25.43L30.25,53.89a.52.52,0,0,1-.5,0L9.44,42.16a.5.5,0,0,1-.25-.43V18.27a.5.5,0,0,1,.25-.43L29.75,6.11a.55.55,0,0,1,.5,0L50.56,17.84a.5.5,0,0,1,.25.43Z"/></svg>