<svg id="Layer_1" data-name="Layer 1" xmlns="http://www.w3.org/2000/svg" viewBox="0 0 60 60"><defs><style>.cls-1{fill:#00b8de;}</style></defs><path class="cls-1" d="M37.87,31.83A1.9,1.9,0,0,1,37.7,31V22.76A14.8,14.8,0,0,0,21.94,8,15,15,0,0,0,8.14,23.2V31a2.16,2.16,0,0,1-.18.81L3.05,42.32a1.51,1.51,0,0,0,1.36,2.14H15.8a7.28,7.28,0,0,0,14.24,0H41.43a1.5,1.5,0,0,0,1.35-2.14Zm-15,15.4a4.27,4.27,0,0,1-4-2.77h8A4.29,4.29,0,0,1,22.91,47.23Zm5.79-5.77H6.77l3.92-8.37A5,5,0,0,0,11.14,31V23.2a12,12,0,0,1,11-12.2A11.79,11.79,0,0,1,34.7,22.76V31a4.84,4.84,0,0,0,.46,2.08l3.91,8.34Z"/><path class="cls-1" d="M41.11,16.87H52.59a1.5,1.5,0,0,0,0-3H41.11a1.5,1.5,0,1,0,0,3Z"/><path class="cls-1" d="M52.59,25.66H42.74a1.5,1.5,0,0,0,0,3h9.85a1.5,1.5,0,0,0,0-3Z"/><path class="cls-1" d="M52.59,37.46H47.13a1.5,1.5,0,0,0,0,3h5.46a1.5,1.5,0,0,0,0-3Z"/></svg>