<svg id="Layer_1" data-name="Layer 1" xmlns="http://www.w3.org/2000/svg" viewBox="0 0 60 60"><defs><style>.cls-1{fill:#00b8de;}</style></defs><path class="cls-1" d="M51.74,38.17a3.68,3.68,0,0,0-4.48-.91l-8.74,4a4.28,4.28,0,0,0-3.72-2.2H27.44l-1.38-.54a13.73,13.73,0,0,0-5.1-1H18.9a13.86,13.86,0,0,0-4.6.79L8.37,40.4a1.5,1.5,0,0,0,1,2.83l5.94-2.08a10.77,10.77,0,0,1,3.6-.62H21a10.78,10.78,0,0,1,4,.77l1.37.54a3.17,3.17,0,0,0,1.18.22H34.8a1.29,1.29,0,0,1,0,2.57H24a1.5,1.5,0,0,0,0,3H34.8a4.28,4.28,0,0,0,4.14-3.26L48.58,40a.73.73,0,0,1,.85,1.16L44,45c-4.85,3.49-11.23,7-13.76,6.63l-9.44-1.73a27,27,0,0,0-4.31-.35H8.86a1.5,1.5,0,1,0,0,3h7.66a22.75,22.75,0,0,1,3.8.31l9.44,1.73a5.63,5.63,0,0,0,.84.06c4.75,0,12.73-5.45,15.18-7.21l5.46-3.93a3.72,3.72,0,0,0,.5-5.33Z"/><path class="cls-1" d="M21.49,29.69a31.44,31.44,0,0,0,8.34,4.4,1.43,1.43,0,0,0,.46.07,1.41,1.41,0,0,0,.45-.07,31.28,31.28,0,0,0,8.34-4.4c5.57-4.13,8.52-9.47,8.52-15.46A9.85,9.85,0,0,0,30.29,7.79,9.85,9.85,0,0,0,13,14.23C13,20.22,15.92,25.56,21.49,29.69ZM22.83,7.38A6.82,6.82,0,0,1,29,11.15a1.5,1.5,0,0,0,1.34.82,1.52,1.52,0,0,0,1.34-.82,6.85,6.85,0,0,1,13,3.08c0,10.94-11.83,15.92-14.31,16.84C27.8,30.15,16,25.17,16,14.23A6.85,6.85,0,0,1,22.83,7.38Z"/></svg>