<?xml version="1.0" encoding="UTF-8"?>
<svg width="77px" height="30px" viewBox="0 0 77 30" version="1.1" xmlns="http://www.w3.org/2000/svg" xmlns:xlink="http://www.w3.org/1999/xlink">
    <title>Logo/SE</title>
    <g id="Logo/SE" stroke="none" stroke-width="1" fill="none" fill-rule="evenodd">
        <g id="logo-se_digital" fill="#41E82E" fill-rule="nonzero">
            <path d="M8.17241379,15.862069 L0.0517241379,12.5344828 C0.0172413793,12.9310345 0,13.3275862 0,13.7241379 C0,14.7241379 0.103448276,15.7068966 0.310344828,16.6551724 L8.17241379,19.8793103 L8.17241379,15.862069 Z" id="Path"></path>
            <path d="M16.2758621,24.6034483 L16.2758621,21.1724138 L27.1206897,16.7241379 C27.3275862,15.7586207 27.4482759,14.7586207 27.4482759,13.7241379 C27.4482759,13.3448276 27.4310345,12.9655172 27.3965517,12.5862069 L16.2758621,17.1551724 L16.2758621,13.7241379 L26.7586207,9.43103448 C26.3793103,8.27586207 25.8448276,7.18965517 25.1896552,6.18965517 L16.2758621,9.94827586 L16.2758621,6.25862069 L22.9137931,3.53448276 C20.4827586,1.34482759 17.2586207,0 13.7241379,0 C10.2241379,0 7.01724138,1.31034483 4.5862069,3.48275862 L11.3448276,6.25862069 L11.3448276,9.68965517 L2.37931034,6 C1.67241379,7.03448276 1.12068966,8.15517241 0.706896552,9.36206897 L11.3448276,13.7241379 L11.3448276,17.1551724 L11.3448276,21.1724138 L11.3448276,24.6034483 L1.93103448,20.7413793 C4.32758621,24.7413793 8.70689655,27.4310345 13.7241379,27.4310345 C18.7068966,27.4310345 23.0517241,24.7758621 25.4655172,20.8103448 L16.2758621,24.6034483 Z" id="Path"></path>
            <path d="M38.0689655,6.0862069 C37.862069,5.82758621 37.5862069,5.60344828 37.2586207,5.44827586 C36.9310345,5.29310345 36.6034483,5.20689655 36.2931034,5.20689655 C36.137931,5.20689655 35.9655172,5.22413793 35.8103448,5.24137931 C35.637931,5.27586207 35.5,5.32758621 35.362069,5.39655172 C35.2241379,5.48275862 35.1206897,5.5862069 35.0344828,5.70689655 C34.9482759,5.82758621 34.8965517,6 34.8965517,6.18965517 C34.8965517,6.36206897 34.9310345,6.5 35,6.62068966 C35.0689655,6.74137931 35.1724138,6.82758621 35.3103448,6.9137931 C35.4482759,7 35.6034483,7.06896552 35.7931034,7.15517241 C35.9827586,7.22413793 36.1896552,7.29310345 36.4310345,7.37931034 C36.7758621,7.5 37.1206897,7.62068966 37.5,7.75862069 C37.862069,7.89655172 38.2068966,8.0862069 38.5,8.31034483 C38.8103448,8.53448276 39.0517241,8.82758621 39.2586207,9.15517241 C39.4655172,9.48275862 39.5517241,9.9137931 39.5517241,10.4137931 C39.5517241,10.9827586 39.4482759,11.4827586 39.2241379,11.9137931 C39.0172414,12.3275862 38.7241379,12.6896552 38.362069,12.9655172 C38,13.2413793 37.5862069,13.4482759 37.1206897,13.5689655 C36.6551724,13.7068966 36.1724138,13.7758621 35.6896552,13.7758621 C34.9655172,13.7758621 34.2758621,13.6551724 33.6034483,13.3965517 C32.9310345,13.137931 32.3793103,12.7931034 31.9310345,12.3275862 L33.5172414,10.7068966 C33.7586207,11.0172414 34.0862069,11.2586207 34.4827586,11.4655172 C34.8793103,11.6724138 35.2931034,11.7758621 35.6896552,11.7758621 C35.862069,11.7758621 36.0517241,11.7586207 36.2068966,11.7241379 C36.3793103,11.6896552 36.5344828,11.6206897 36.6551724,11.5344828 C36.7758621,11.4482759 36.8793103,11.3275862 36.9655172,11.1896552 C37.0344828,11.0517241 37.0862069,10.8793103 37.0862069,10.6724138 C37.0862069,10.4827586 37.0344828,10.3275862 36.9482759,10.1896552 C36.862069,10.0517241 36.7241379,9.93103448 36.5517241,9.82758621 C36.3793103,9.72413793 36.1551724,9.62068966 35.8965517,9.53448276 C35.637931,9.44827586 35.3448276,9.34482759 35.0172414,9.24137931 C34.6896552,9.13793103 34.3793103,9.01724138 34.0689655,8.87931034 C33.7586207,8.74137931 33.4827586,8.55172414 33.2413793,8.32758621 C33,8.10344828 32.8103448,7.82758621 32.6551724,7.51724138 C32.5,7.20689655 32.4310345,6.81034483 32.4310345,6.36206897 C32.4310345,5.81034483 32.5517241,5.32758621 32.7758621,4.93103448 C33,4.53448276 33.2931034,4.20689655 33.6724138,3.94827586 C34.0344828,3.68965517 34.4655172,3.5 34.9137931,3.37931034 C35.3793103,3.25862069 35.8448276,3.20689655 36.3275862,3.20689655 C36.8965517,3.20689655 37.4827586,3.31034483 38.0689655,3.51724138 C38.6551724,3.72413793 39.1724138,4.03448276 39.6206897,4.44827586 L38.0689655,6.0862069 Z" id="Path"></path>
            <polygon id="Path" points="41.5172414 13.5172414 41.5172414 3.48275862 48.2758621 3.48275862 48.2758621 5.51724138 43.862069 5.51724138 43.862069 7.4137931 48.0344828 7.4137931 48.0344828 9.36206897 43.862069 9.36206897 43.862069 11.4482759 48.5172414 11.4482759 48.5172414 13.5172414"></polygon>
            <path d="M32.2758621,16.3793103 L35.8448276,16.3793103 C36.5,16.3793103 37.1551724,16.4655172 37.8103448,16.637931 C38.4655172,16.8103448 39.0689655,17.0862069 39.6034483,17.4827586 C40.137931,17.8793103 40.5689655,18.3965517 40.8965517,19.0344828 C41.2241379,19.6724138 41.3965517,20.4655172 41.3965517,21.4137931 C41.3965517,22.2931034 41.2241379,23.0517241 40.8965517,23.6896552 C40.5689655,24.3275862 40.137931,24.8448276 39.6034483,25.2586207 C39.0689655,25.6724138 38.4827586,25.9655172 37.8103448,26.1551724 C37.1551724,26.3448276 36.4827586,26.4482759 35.8448276,26.4482759 L32.2758621,26.4482759 L32.2758621,16.3793103 Z M35.5689655,24.8793103 C36.0344828,24.8793103 36.5,24.8275862 36.9655172,24.7241379 C37.4310345,24.6206897 37.8448276,24.4310345 38.2241379,24.1724138 C38.6034483,23.9137931 38.8965517,23.5517241 39.137931,23.1206897 C39.3793103,22.6724138 39.5,22.1206897 39.5,21.4310345 C39.5,20.7068966 39.3793103,20.1206897 39.137931,19.6724138 C38.8965517,19.2241379 38.6034483,18.862069 38.2241379,18.6034483 C37.8448276,18.3448276 37.4310345,18.1724138 36.9655172,18.0862069 C36.5,18 36.0344828,17.9482759 35.5689655,17.9482759 L34.0862069,17.9482759 L34.0862069,24.8965517 L35.5689655,24.8965517 L35.5689655,24.8793103 Z" id="Shape"></path>
            <path d="M43.1896552,17.3103448 C43.1896552,17.0344828 43.2931034,16.7931034 43.5,16.5862069 C43.7068966,16.3793103 43.9655172,16.2758621 44.2758621,16.2758621 C44.5862069,16.2758621 44.8448276,16.3793103 45.0689655,16.5689655 C45.2758621,16.7586207 45.3965517,17 45.3965517,17.2931034 C45.3965517,17.5862069 45.2931034,17.8275862 45.0689655,18.0172414 C44.862069,18.2068966 44.5862069,18.3103448 44.2758621,18.3103448 C43.9655172,18.3103448 43.7068966,18.2068966 43.5,18 C43.2931034,17.8275862 43.1896552,17.5862069 43.1896552,17.3103448 M43.4310345,19.6206897 L45.137931,19.6206897 L45.137931,26.4310345 L43.4310345,26.4310345 L43.4310345,19.6206897 Z" id="Shape"></path>
            <path d="M54.4827586,19.6206897 L54.4827586,25.8275862 C54.4827586,26.4482759 54.4137931,27 54.2586207,27.5 C54.1034483,28 53.8793103,28.4137931 53.5517241,28.7586207 C53.2413793,29.1034483 52.8275862,29.3793103 52.3448276,29.5689655 C51.862069,29.7586207 51.2931034,29.8448276 50.6206897,29.8448276 C50.3448276,29.8448276 50.0517241,29.8275862 49.7413793,29.7758621 C49.4310345,29.7241379 49.137931,29.6551724 48.8275862,29.5689655 C48.5344828,29.4827586 48.2413793,29.362069 47.9655172,29.2068966 C47.6896552,29.0689655 47.4482759,28.8965517 47.2241379,28.7241379 L48.2068966,27.3965517 C48.5344828,27.7068966 48.9137931,27.9482759 49.3275862,28.1206897 C49.7413793,28.2931034 50.1724138,28.362069 50.5862069,28.362069 C51,28.362069 51.3275862,28.3103448 51.6206897,28.1896552 C51.8965517,28.0689655 52.1206897,27.9137931 52.2931034,27.6896552 C52.4655172,27.4827586 52.5689655,27.2413793 52.6551724,26.9482759 C52.7241379,26.6551724 52.7586207,26.3448276 52.7586207,26 L52.7586207,25.5172414 L52.7586207,25.5172414 C52.5172414,25.8448276 52.1896552,26.1034483 51.8103448,26.2931034 C51.4310345,26.4655172 51,26.5517241 50.5172414,26.5517241 C50,26.5517241 49.5344828,26.4482759 49.1206897,26.2758621 C48.7068966,26.0862069 48.3448276,25.8275862 48.0689655,25.5172414 C47.7758621,25.1896552 47.5517241,24.8275862 47.3965517,24.3965517 C47.2413793,23.9655172 47.1551724,23.5172414 47.1551724,23.0344828 C47.1551724,22.5344828 47.2413793,22.0862069 47.3965517,21.637931 C47.5517241,21.2068966 47.7758621,20.8275862 48.0689655,20.5 C48.362069,20.1724138 48.7068966,19.9310345 49.1206897,19.7413793 C49.5344828,19.5517241 50,19.4655172 50.5,19.4655172 C50.9827586,19.4655172 51.4310345,19.5689655 51.8448276,19.7586207 C52.2586207,19.9655172 52.5862069,20.2586207 52.8448276,20.6896552 L52.8793103,20.6896552 L52.8793103,19.6724138 L54.4827586,19.6724138 L54.4827586,19.6206897 Z M50.8448276,20.8103448 C50.5344828,20.8103448 50.2586207,20.862069 50.0172414,20.9827586 C49.7758621,21.1034483 49.5689655,21.2413793 49.4137931,21.4482759 C49.2413793,21.637931 49.1206897,21.862069 49.0344828,22.137931 C48.9482759,22.3965517 48.8965517,22.6896552 48.8965517,22.9827586 C48.8965517,23.2586207 48.9482759,23.5172414 49.0344828,23.7758621 C49.1206897,24.0344828 49.2586207,24.2586207 49.4137931,24.4655172 C49.5862069,24.6724138 49.7758621,24.8275862 50.0172414,24.9482759 C50.2586207,25.0689655 50.5344828,25.137931 50.8275862,25.137931 C51.137931,25.137931 51.4137931,25.0862069 51.6724138,24.9655172 C51.9310345,24.8448276 52.137931,24.6896552 52.3103448,24.4827586 C52.4827586,24.2758621 52.6206897,24.0517241 52.7068966,23.7931034 C52.7931034,23.5344828 52.8448276,23.2586207 52.8448276,22.9827586 C52.8448276,22.6896552 52.7931034,22.4137931 52.7068966,22.1551724 C52.6206897,21.8965517 52.4827586,21.6551724 52.3103448,21.4655172 C52.137931,21.2758621 51.9310345,21.1034483 51.6724138,21 C51.4482759,20.8793103 51.1551724,20.8103448 50.8448276,20.8103448" id="Shape"></path>
            <path d="M56.6724138,17.3103448 C56.6724138,17.0344828 56.7758621,16.7931034 56.9827586,16.5862069 C57.1896552,16.3793103 57.4482759,16.2758621 57.7586207,16.2758621 C58.0689655,16.2758621 58.3275862,16.3793103 58.5517241,16.5689655 C58.7586207,16.7586207 58.8793103,17 58.8793103,17.2931034 C58.8793103,17.5862069 58.7758621,17.8275862 58.5517241,18.0172414 C58.3448276,18.2068966 58.0689655,18.3103448 57.7586207,18.3103448 C57.4482759,18.3103448 57.1896552,18.2068966 56.9827586,18 C56.7758621,17.8275862 56.6724138,17.5862069 56.6724138,17.3103448 M56.9137931,19.6206897 L58.6206897,19.6206897 L58.6206897,26.4310345 L56.9137931,26.4310345 L56.9137931,19.6206897 Z" id="Shape"></path>
            <path d="M60.0689655,20.9827586 L60.0689655,19.6206897 L61.2586207,19.6206897 L61.2586207,17.6551724 L62.9310345,17.6551724 L62.9310345,19.6206897 L64.637931,19.6206897 L64.637931,20.9827586 L62.9310345,20.9827586 L62.9310345,24.1551724 C62.9310345,24.4655172 62.9827586,24.7068966 63.0862069,24.9137931 C63.1896552,25.1206897 63.4310345,25.2068966 63.8103448,25.2068966 C63.9310345,25.2068966 64.0517241,25.1896552 64.1724138,25.1724138 C64.3103448,25.1551724 64.4310345,25.1206897 64.5344828,25.0689655 L64.5862069,26.3965517 C64.4310345,26.4482759 64.2586207,26.5 64.0517241,26.5344828 C63.8448276,26.5689655 63.637931,26.5862069 63.4482759,26.5862069 C63,26.5862069 62.6206897,26.5172414 62.3448276,26.3965517 C62.0689655,26.2758621 61.8275862,26.0862069 61.6724138,25.8793103 C61.5,25.6551724 61.3965517,25.3965517 61.3275862,25.1206897 C61.2586207,24.8275862 61.2413793,24.5172414 61.2413793,24.1896552 L61.2413793,21.0172414 L60.0689655,21.0172414 L60.0689655,20.9827586 Z" id="Path"></path>
            <path d="M70.4482759,25.5689655 L70.4137931,25.5689655 C70.2413793,25.8793103 69.9655172,26.1206897 69.5862069,26.3103448 C69.2068966,26.5 68.7758621,26.6034483 68.2931034,26.6034483 C68.0172414,26.6034483 67.7241379,26.5689655 67.4310345,26.5 C67.137931,26.4310345 66.862069,26.3103448 66.6034483,26.137931 C66.3448276,25.9655172 66.137931,25.7586207 65.9827586,25.4827586 C65.8103448,25.2068966 65.7413793,24.8793103 65.7413793,24.4827586 C65.7413793,23.9655172 65.8793103,23.5689655 66.1724138,23.2586207 C66.4655172,22.9482759 66.8275862,22.7241379 67.2931034,22.5689655 C67.7413793,22.4137931 68.2586207,22.2931034 68.8103448,22.2413793 C69.362069,22.1896552 69.9137931,22.1551724 70.4310345,22.1551724 L70.4310345,21.9827586 C70.4310345,21.5517241 70.2758621,21.2413793 69.9655172,21.0344828 C69.6551724,20.8275862 69.2931034,20.7241379 68.862069,20.7241379 C68.5,20.7241379 68.1551724,20.7931034 67.8275862,20.9482759 C67.5,21.1034483 67.2241379,21.2758621 67,21.5 L66.1206897,20.4655172 C66.5,20.1034483 66.9482759,19.8448276 67.4655172,19.6551724 C67.9655172,19.4827586 68.4827586,19.3793103 69,19.3793103 C69.6034483,19.3793103 70.1034483,19.4655172 70.5,19.637931 C70.8965517,19.8103448 71.2068966,20.0344828 71.4310345,20.3103448 C71.6551724,20.5862069 71.8103448,20.8965517 71.9137931,21.2413793 C72,21.5862069 72.0517241,21.9310345 72.0517241,22.2586207 L72.0517241,26.3965517 L70.4655172,26.3965517 L70.4655172,25.5689655 L70.4482759,25.5689655 Z M70.4310345,23.3275862 L70.0517241,23.3275862 C69.7758621,23.3275862 69.4827586,23.3448276 69.1896552,23.362069 C68.8793103,23.3793103 68.6034483,23.4310345 68.3448276,23.5172414 C68.0862069,23.6034483 67.8793103,23.7068966 67.7068966,23.862069 C67.5344828,24.0172414 67.4482759,24.2068966 67.4482759,24.4655172 C67.4482759,24.6206897 67.4827586,24.7586207 67.5517241,24.862069 C67.6206897,24.9655172 67.7068966,25.0517241 67.8275862,25.1206897 C67.9482759,25.1896552 68.0689655,25.2413793 68.2068966,25.2586207 C68.3448276,25.2931034 68.4827586,25.2931034 68.637931,25.2931034 C69.2241379,25.2931034 69.6724138,25.137931 69.9655172,24.8275862 C70.2758621,24.5172414 70.4137931,24.0862069 70.4137931,23.5517241 L70.4137931,23.3275862 L70.4310345,23.3275862 Z" id="Shape"></path>
            <rect id="Rectangle" x="74.4137931" y="15.7068966" width="1.70689655" height="10.7241379"></rect>
        </g>
    </g>
</svg>