<svg xmlns="http://www.w3.org/2000/svg" xmlns:xlink="http://www.w3.org/1999/xlink" width="375" height="250" viewBox="0 0 375 250">
    <defs>
        <path id="f0r7hod9la" d="M0 0H375V250H0z"/>
    </defs>
    <g fill="none" fill-rule="evenodd">
        <g>
            <g transform="translate(0 -971) translate(0 971)">
                <mask id="92x0v5la0b" fill="#fff">
                    <use xlink:href="#f0r7hod9la"/>
                </mask>
                <g mask="url(#92x0v5la0b)">
                    <g transform="translate(9.608 20.313)">
                        <g>
                            <g stroke="#231F20" stroke-width=".5" transform="translate(41.81 71.122)">
                                <path fill="#EFF6F7" d="M41.158 34.388h2.57V23.416c0-3.871-3.141-7.01-7.016-7.01h-2.341V27.63H7.497v5.504h2.998"/>
                                <ellipse cx="37.761" cy="34.388" fill="#EFF6F7" rx="3.39" ry="3.387"/>
                                <path fill="#EFF6F7" d="M25.258 32.499c-.008 1.572-1.098 2.932-2.631 3.284-1.534.351-3.108-.397-3.802-1.808-.462-.93-.462-2.022 0-2.952.694-1.41 2.268-2.16 3.802-1.808 1.533.352 2.623 1.712 2.63 3.284h0z"/>
                                <path fill="#EFF6F7" d="M18.471 35.096c-1.373 1.164-3.417 1.052-4.654-.254-1.238-1.306-1.238-3.35 0-4.657 1.237-1.306 3.281-1.417 4.654-.254"/>
                                <path d="M26.58 33.133L33.034 33.133"/>
                                <path fill="#EFF6F7" d="M7.497 27.63L.237 17.58c-.213-.297-.287-.67-.203-1.025.083-.355.316-.657.64-.827L30.101.18c.697-.368 1.56-.16 2.01.487h0c.244.35.335.785.25 1.204-.085.418-.339.783-.701 1.01l-3.006 1.896c-.805.504-1.087 1.541-.65 2.383l4.342 8.42-18.794 9.495"/>
                            </g>
                            <text fill="#333" font-family="Montserrat-Regular, Montserrat" font-size="4.888" transform="translate(41.81 71.122)">
                                <tspan x="10.536" y="44.155">Middle Man</tspan>
                            </text>
                        </g>
                        <path stroke="#25AACC" stroke-width=".5" d="M304.925 121.683c6.445 13.045 10.841 27.004 13.034 41.386"/>
                        <path fill="#25AACC" fill-rule="nonzero" d="M316.527 162.39L318.499 166.95 319.075 162.014z"/>
                        <path stroke="#25AACC" stroke-width=".5" d="M210.5 46.076c22.87 5.539 44.008 16.655 61.525 32.355"/>
                        <path fill="#25AACC" fill-rule="nonzero" d="M270.466 78.866L274.912 81.087 272.172 76.94z"/>
                        <path stroke="#25AACC" stroke-width=".5" d="M78.684 81.087c16.9-15.981 37.457-27.588 59.878-33.808"/>
                        <path fill="#25AACC" fill-rule="nonzero" d="M138.09 48.799L142.358 46.253 137.388 46.319z"/>
                        <path stroke="#25AACC" stroke-width=".5" d="M35.098 166.95c1.628-13.083 5.075-25.876 10.243-38.006"/>
                        <path fill="#25AACC" fill-rule="nonzero" d="M46.183 130.264L46.929 125.35 43.827 129.239z"/>
                        <g>
                            <g stroke="#010101" stroke-width=".5">
                                <path d="M53.49 7.365s-.042.197-.096.55c-.042.257-.096.598-.15 1.005-.036.287-.078.598-.12.963-.287.355-.752.515-1.197.413-.22-.037-.426-.13-.599-.27.174-.7.335-1.321.479-1.794.036-.138.072-.257.108-.377.096-.329.173-.598.227-.742l.066-.197.306.12.107.041.096.03.078.03.138.054.335.126.222.048z" transform="translate(0 172.973)"/>
                                <path d="M53.106 9.895c-.054.46-.101.975-.143 1.52-.036.442-.066.903-.084 1.382h0c-.307.221-.67.352-1.048.377-.377.034-.756-.043-1.09-.222.108-.598.228-1.196.347-1.795.084-.4.174-.783.258-1.142.173.14.38.232.599.269.429.093.875-.056 1.161-.389h0z" transform="translate(0 172.973)"/>
                                <path d="M52.867 14.472v1.124c-.324.347-.772.551-1.246.569-.447.046-.895-.071-1.263-.33.04-.502.094-.998.162-1.489.06-.472.137-.933.21-1.388.333.179.712.256 1.089.222.378-.025.74-.156 1.048-.377.006.544-.006 1.1 0 1.669z" transform="translate(0 172.973)"/>
                                <path d="M53.256 18.636c-.825.722-2.025.821-2.958.245v-1.238c0-.599.048-1.197.102-1.795.368.258.816.375 1.263.329.474-.018.922-.222 1.246-.569 0 .599.078 1.233.155 1.831.048.371.108.736.18 1.095-.006.024.006.066.012.102z" transform="translate(0 172.973)"/>
                                <path d="M52.4 23.296c-.988 0-1.695-1.16-1.797-1.795-.182-.864-.286-1.743-.31-2.626.932.576 2.132.477 2.957-.245.234 1.065.73 2.333.796 2.99.044.452-.114.9-.432 1.222-.317.324-.762.49-1.214.454zM53.04 6.222c.002.248-.012.495-.041.742 0 .071 0 .143-.03.221l-.138-.054-.078-.03-.096-.03-.108-.042-.305-.12-.066.198C51.46 5.71 50.402 4.514 49.1 3.631c-.185-.137-.377-.263-.598-.388-1.478-.945-3.182-1.476-4.934-1.538C44.56.63 45.954.013 47.418 0c3.054 0 5.533 2.704 5.599 6.072.01.05.019.1.024.15h0z" transform="translate(0 172.973)"/>
                                <path d="M63.447 7.125c-1.537-.84-3.272-1.253-5.023-1.196-.264 0-.521.012-.773.036-1.541.089-3.035.562-4.347 1.376l-.335-.126c0-.078 0-.15.03-.221.029-.247.043-.494.041-.742.003-.05.003-.1 0-.15 1.797-2.913 5.354-3.984 7.994-2.393 1.237.763 2.108 1.997 2.413 3.416zM52.178 7.107c-.054.162-.131.413-.227.742-.706-.879-1.611-1.576-2.64-2.034-1.117-.539-2.359-.766-3.594-.658.603-.84 1.526-1.391 2.551-1.526.274-.036.552-.036.826 0 1.304.882 2.365 2.077 3.084 3.476h0z" transform="translate(0 172.973)"/>
                                <path d="M59.855 9.16c-.974-.765-2.133-1.256-3.36-1.425-1.035-.166-2.093-.103-3.101.186.054-.353.096-.55.096-.55l-.186-.066c1.312-.814 2.806-1.287 4.347-1.376.327.14.632.328.904.556.782.676 1.252 1.642 1.3 2.674zM32.352 7.365s-.041.197-.095.55c-.042.257-.096.598-.15 1.005-.036.287-.078.598-.12.963-.288.355-.752.515-1.197.413-.22-.037-.426-.13-.6-.27.174-.7.336-1.321.48-1.794.036-.138.072-.257.108-.377.095-.329.173-.598.227-.742l.066-.197.305.12.108.041.096.03.078.03.138.054.335.126.221.048z" transform="translate(0 172.973)"/>
                                <path d="M31.987 9.895c-.054.46-.102.975-.144 1.52-.035.442-.065.903-.083 1.382h0c-.307.221-.67.352-1.048.377-.377.034-.756-.043-1.09-.222.108-.598.227-1.196.347-1.795.084-.4.174-.783.258-1.142.173.14.38.232.599.269.429.093.875-.056 1.161-.389h0z" transform="translate(0 172.973)"/>
                                <path d="M31.73 14.472c0 .37 0 .748.03 1.124-.324.347-.772.551-1.246.569-.447.046-.895-.071-1.263-.33.044-.502.098-.998.161-1.489.06-.472.138-.933.21-1.388.334.179.713.256 1.09.222.378-.025.74-.156 1.048-.377-.024.544-.036 1.1-.03 1.669z" transform="translate(0 172.973)"/>
                                <path d="M32.149 18.636c-.825.722-2.025.821-2.958.245v-1.238c0-.599.048-1.197.102-1.795.367.258.816.375 1.263.329.474-.018.922-.222 1.246-.569 0 .599.077 1.233.155 1.831.048.371.108.736.18 1.095-.036.024-.024.066.012.102z" transform="translate(0 172.973)"/>
                                <path d="M31.263 23.296c-.988 0-1.695-1.16-1.797-1.795-.182-.864-.286-1.743-.311-2.626.933.576 2.133.477 2.958-.245.233 1.065.73 2.333.796 2.99.044.452-.114.9-.432 1.222-.318.324-.762.49-1.214.454zM31.903 6.222c.001.248-.013.495-.042.742v.221l-.137-.054-.078-.03-.096-.03-.108-.042-.305-.12-.066.198c-.718-1.398-1.776-2.593-3.078-3.476-.185-.137-.377-.263-.599-.388-1.477-.945-3.18-1.476-4.934-1.538C23.453.63 24.847.013 26.31 0c3.054 0 5.533 2.704 5.6 6.072 0 .05-.002.1-.007.15h0z" transform="translate(0 172.973)"/>
                                <path d="M42.328 7.125c-1.537-.84-3.272-1.253-5.024-1.196-.263 0-.52.012-.772.036-1.541.089-3.036.562-4.347 1.376l-.336-.126v-.221c.03-.247.043-.494.042-.742.003-.05.003-.1 0-.15 1.797-2.913 5.354-3.984 7.994-2.393 1.248.757 2.13 1.992 2.443 3.416zM31.041 7.107c-.054.162-.132.413-.227.742-.707-.877-1.612-1.574-2.641-2.034-1.116-.539-2.358-.766-3.593-.658.603-.84 1.526-1.391 2.551-1.526.274-.036.552-.036.826 0 1.304.882 2.364 2.077 3.084 3.476z" transform="translate(0 172.973)"/>
                                <path d="M38.735 9.16c-.973-.765-2.132-1.256-3.359-1.425-1.035-.166-2.094-.103-3.101.186.053-.353.095-.55.095-.55l-.185-.066c1.311-.814 2.806-1.287 4.347-1.376.327.14.632.328.904.556.782.676 1.252 1.642 1.3 2.674h0zM9.892 7.365s-.042.197-.096.55c-.042.257-.096.598-.15 1.005-.035.287-.077.598-.12.963-.287.355-.752.515-1.197.413-.22-.037-.425-.13-.599-.27.168-.7.336-1.321.48-1.794.035-.138.071-.257.107-.377.096-.329.174-.598.228-.742.054-.143.06-.197.06-.197l.31.12.109.041.096.03.077.03.138.054.335.126.222.048z" transform="translate(0 172.973)"/>
                                <path d="M9.527 9.895c-.054.46-.102.975-.144 1.52-.036.442-.066.903-.084 1.382h0c-.307.221-.67.352-1.048.377-.377.034-.756-.043-1.09-.222.108-.598.228-1.196.348-1.795.084-.4.173-.783.257-1.142.173.14.38.232.599.269.43.093.875-.056 1.162-.389h0z" transform="translate(0 172.973)"/>
                                <path d="M9.263 14.472c0 .37 0 .748.036 1.124-.324.347-.771.551-1.245.569-.447.046-.896-.071-1.264-.33.044-.502.098-.998.162-1.489.06-.472.132-.933.21-1.388.333.179.712.256 1.09.222.377-.025.74-.156 1.047-.377-.024.546-.036 1.102-.036 1.669z" transform="translate(0 172.973)"/>
                                <path d="M9.658 18.636c-.825.722-2.025.821-2.958.245v-1.238c0-.599.048-1.197.102-1.795.368.258.817.375 1.264.329.474-.018.921-.222 1.245-.569 0 .599.078 1.233.156 1.831.048.371.108.736.18 1.095-.007.024.005.066.011.102z" transform="translate(0 172.973)"/>
                                <path d="M8.796 23.296c-.988 0-1.694-1.16-1.796-1.795-.182-.864-.286-1.743-.312-2.626.933.576 2.133.477 2.958-.245.234 1.065.731 2.333.797 2.99.044.452-.114.9-.432 1.222-.318.324-.763.49-1.215.454zM9.443 6.222c.001.248-.013.495-.042.742v.221l-.138-.054-.078-.03-.095-.03-.108-.042-.312-.12s0 .073-.06.198C7.89 5.71 6.834 4.516 5.534 3.631c-.186-.137-.377-.263-.599-.388C3.457 2.298 1.753 1.767 0 1.705.993.63 2.386.013 3.85 0 6.898 0 9.383 2.704 9.45 6.072c0 .05-.001.1-.006.15h0z" transform="translate(0 172.973)"/>
                                <path d="M19.844 7.125c-1.535-.841-3.268-1.254-5.018-1.196-.264 0-.521.012-.772.036-1.542.089-3.036.562-4.348 1.376l-.335-.126v-.221c.03-.247.043-.494.042-.742.003-.05.003-.1 0-.15 1.796-2.913 5.353-3.984 7.994-2.393 1.248.756 2.13 1.991 2.437 3.416h0zM8.58 7.107c-.053.162-.131.413-.227.742-.707-.877-1.612-1.574-2.64-2.034-1.117-.538-2.358-.766-3.593-.658.604-.84 1.53-1.393 2.557-1.526.274-.036.552-.036.826 0 1.3.885 2.358 2.08 3.078 3.476h0z" transform="translate(0 172.973)"/>
                                <path d="M16.251 9.16c-.972-.767-2.132-1.258-3.36-1.425-1.032-.166-2.09-.103-3.095.186.054-.353.096-.55.096-.55l-.186-.066c1.312-.814 2.806-1.287 4.348-1.376 1.3.557 2.157 1.818 2.197 3.23h0z" transform="translate(0 172.973)"/>
                            </g>
                            <text fill="#333" font-family="Montserrat-Regular, Montserrat" font-size="4.888" transform="translate(0 172.973)">
                                <tspan x="7.209" y="30.975">Oil Palm Plantation</tspan>
                            </text>
                        </g>
                        <path stroke="#010101" stroke-width=".5" d="M154.588 54.082L151.198 54.082"/>
                        <g stroke-width=".5" opacity=".5">
                            <path fill="#EFF6F7" stroke="#231F20" d="M5.607 14.602H3.044c-.525.003-.958.413-.99.937L.003 50.69c-.017.272.08.54.268.738.187.198.448.31.721.31h4.616" transform="translate(151.233 2.344)"/>
                            <path fill="#EFF6F7" stroke="#231F20" d="M5.607 14.602H8.17c.525.003.958.413.99.937l2.052 35.151c.017.272-.08.54-.268.738-.187.198-.448.31-.721.31H5.607M13.849 51.738h34.215c.358.006.704-.132.96-.383.255-.252.399-.595.399-.953V24.947c.004-.274-.132-.531-.362-.68-.23-.15-.52-.172-.769-.058l-16.66 7.747v-7.01c.004-.273-.132-.53-.361-.68-.23-.15-.52-.171-.77-.057L13.85 31.956" transform="translate(151.233 2.344)"/>
                            <path stroke="#010101" d="M4.905 11.141s3.058-7.968 9.808-6.788c5.17.9 10.102 1.476 12.643-4.353" transform="translate(151.233 2.344)"/>
                            <path fill="#FFF" stroke="#010101" d="M20.503 38.486H28.228V43.976H20.503zM35.598 38.486H43.323V43.976H35.598z" transform="translate(151.233 2.344)"/>
                        </g>
                        <path fill="#EFF6F7" stroke="#231F20" stroke-width=".5" d="M294.639 108.814c-6.824 0-12.355-4.427-12.355-9.88-.17-12.602 12.355-22.762 12.355-22.762s12.554 10.16 12.355 22.77c0 5.453-5.531 9.872-12.355 9.872z"/>
                        <path stroke="#010101" stroke-width=".5" d="M297.662 95.703c.22 1.115.32 2.25.303 3.387v.051c0 2.878-2.688 5.409-6.3 6.287M299.615 89.941c.569 1.13 1.045 2.305 1.425 3.512"/>
                        <g stroke-width=".5">
                            <path fill="#EFF6F7" stroke="#231F20" d="M22.325 24.325L44.65 37.201 44.65 62.959 22.325 75.835 44.65 62.959 44.65 37.201 22.325 24.325 0 37.201 0 62.959 22.325 75.835 22.325 50.076 44.65 37.201 22.325 50.076 0 37.201" transform="translate(154.825 120.523)"/>
                            <path stroke="#010101" d="M31.954 20.358c-5.901-3.748-13.44-3.748-19.341 0M3.256 5.505c11.621-7.34 26.434-7.34 38.055 0M31.954 20.358c-5.901-3.748-13.44-3.748-19.341 0M7.938 12.905c8.772-5.508 19.927-5.508 28.698 0M41.311 5.505c-11.621-7.34-26.434-7.34-38.055 0M31.954 20.358c-5.901-3.748-13.44-3.748-19.341 0M3.256 5.505c11.621-7.34 26.434-7.34 38.055 0" transform="translate(154.825 120.523)"/>
                        </g>
                        <path stroke="#9F9E9F" stroke-dasharray="1.148" stroke-width=".5" d="M275.727 26.344c-20.656 2.411-40.843 7.172-60.183 14.36"/>
                        <path stroke="#9F9E9F" stroke-width=".5" d="M214.85 40.963L214.163 41.228"/>
                        <path fill="#9F9E9F" fill-rule="nonzero" d="M214.547 39.753L210.5 42.645 215.448 42.165z"/>
                        <path stroke="#231F20" stroke-width=".577" d="M46.308 76.483c-.858.716-2.081.8-3.03.206-.948-.594-1.406-1.73-1.134-2.815.271-1.084 1.21-1.871 2.327-1.95 1.116-.078 2.156.571 2.576 1.607"/>
                        <ellipse cx="48.672" cy="75.582" stroke="#231F20" stroke-width=".577" rx="2.592" ry="2.59"/>
                        <path stroke="#231F20" stroke-width=".577" d="M49.683 73.192c-.003-.067-.003-.133 0-.2 0-1.43 1.161-2.59 2.593-2.59 1.431 0 2.592 1.16 2.592 2.59 0 1.431-1.16 2.59-2.592 2.59-.345 0-.686-.068-1.005-.199M46.87 65.024v-.185c.05-1.42 1.23-2.537 2.651-2.512 1.422.026 2.56 1.184 2.56 2.605 0 1.42-1.138 2.579-2.56 2.604-1.421.025-2.6-1.093-2.651-2.512"/>
                        <path stroke="#231F20" stroke-width=".577" d="M49.011 69.06c-.69 1.024-2.007 1.42-3.148.944-1.14-.475-1.786-1.689-1.544-2.9.243-1.21 1.308-2.08 2.543-2.08 0 0-1.898-6.442-7.104-7.18l-.14.938c2.915.693 5.11 3.094 5.538 6.057"/>
                        <path stroke="#231F20" stroke-width=".577" d="M41.198 70.742c-.004-.056-.004-.113 0-.17 0-1.43 1.16-2.59 2.592-2.59.176.003.352.02.525.052M39.108 70.949c-1.058-.553-1.6-1.756-1.315-2.914.285-1.158 1.325-1.972 2.519-1.97h.044"/>
                        <path stroke="#231F20" stroke-width=".577" d="M42.018 68.602c-1.147-.437-1.829-1.618-1.635-2.828.194-1.21 1.21-2.12 2.437-2.178 1.225-.058 2.324.75 2.632 1.937M51.478 66.463c1.16.284 1.976 1.322 1.98 2.516.001.552-.175 1.09-.503 1.534M50.178 71.465c-.841-.228-1.51-.865-1.78-1.694-.27-.828-.103-1.737.444-2.416M28.37 97.651c.86.722 2.088.807 3.04.212.953-.595 1.413-1.735 1.141-2.824-.272-1.088-1.216-1.878-2.336-1.955-1.12-.078-2.164.575-2.583 1.616"/>
                        <ellipse cx="25.992" cy="96.751" stroke="#231F20" stroke-width=".577" rx="2.592" ry="2.59"/>
                        <path stroke="#231F20" stroke-width=".577" d="M24.98 94.36c.004-.066.004-.132 0-.199-.003-1.137-.751-2.138-1.842-2.465-1.09-.327-2.266.098-2.896 1.046-.63.947-.564 2.195.161 3.072.725.877 1.94 1.177 2.99.738M27.794 86.185c.004-.059.004-.118 0-.177-.048-1.42-1.227-2.54-2.65-2.515-1.422.024-2.562 1.183-2.562 2.604s1.14 2.58 2.562 2.604c1.423.024 2.602-1.095 2.65-2.516"/>
                        <path stroke="#231F20" stroke-width=".577" d="M25.63 90.229c.693 1.02 2.01 1.411 3.148.935 1.138-.477 1.782-1.689 1.54-2.897-.243-1.21-1.305-2.08-2.539-2.082 0 0 1.898-6.434 7.105-7.172l.14.93c-2.915.698-5.11 3.101-5.539 6.065"/>
                        <path stroke="#231F20" stroke-width=".577" d="M33.466 91.911c.004-.056.004-.113 0-.17 0-1.43-1.16-2.59-2.592-2.59-.176-.001-.352.016-.525.052M35.556 92.118c1.057-.553 1.6-1.756 1.315-2.914-.285-1.158-1.325-1.972-2.519-1.97h-.044"/>
                        <path stroke="#231F20" stroke-width=".577" d="M32.654 89.771c1.141-.441 1.818-1.62 1.623-2.828-.195-1.207-1.209-2.114-2.431-2.174-1.223-.06-2.321.743-2.634 1.925M23.186 87.617c-1.16.285-1.976 1.322-1.98 2.516-.001.552.175 1.09.503 1.535M24.486 92.627c.841-.229 1.51-.866 1.78-1.694.27-.829.103-1.737-.444-2.416"/>
                        <g stroke="#231F20" stroke-width=".5">
                            <path stroke-linecap="round" stroke-linejoin="round" d="M13.144 18.75c-3.98 0-5.639-2.745-6.256-5.86" transform="translate(304.567 169.848)"/>
                            <path d="M4.933 10.156C4.933 9.14 4.821 0 13.143 0" transform="translate(304.567 169.848)"/>
                            <path fill="#EFF6F7" d="M8.477 17.188C1.721 19.666.242 26.563.242 26.563h12.66" transform="translate(304.567 169.848)"/>
                            <path stroke-linecap="round" stroke-linejoin="round" d="M6.888 14.74c-.184.07-.378.104-.574.104-1.297-.134-2.255-1.347-2.155-2.73-.019-.828.298-1.625.868-2.189.35-.345.81-.538 1.287-.54.118-.013.236-.013.353 0-.146 1.787-.072 3.587.221 5.354h0z" transform="translate(304.567 169.848)"/>
                            <path stroke-linecap="round" stroke-linejoin="round" d="M19.4 9.375c-.076-1.05-.223-2.093-.439-3.125 0 0-.73 1.271-6.017 1.271h0c-5.252 0-6.017-1.271-6.017-1.271-.21 1.032-.354 2.076-.43 3.125M19.4 12.89c-.617 3.115-2.274 5.86-6.256 5.86" transform="translate(304.567 169.848)"/>
                            <path d="M21.354 10.156C21.354 9.14 21.467 0 13.144 0" transform="translate(304.567 169.848)"/>
                            <path fill="#EFF6F7" d="M17.425 17.188c6.751 2.478 8.23 9.375 8.23 9.375H12.902" transform="translate(304.567 169.848)"/>
                            <path stroke-linecap="round" stroke-linejoin="round" d="M19.4 14.739c.183.071.378.106.573.105 1.297-.134 2.256-1.347 2.156-2.73.014-.827-.302-1.622-.869-2.188-.351-.344-.81-.536-1.287-.54-.117-.014-.235-.014-.352 0 .141 1.786.067 3.586-.222 5.353h0z" transform="translate(304.567 169.848)"/>
                        </g>
                        <text fill="#333" font-family="Montserrat-Regular, Montserrat" font-size="4.888">
                            <tspan x="289.23" y="117.694">CPO</tspan>
                        </text>
                        <text fill="#333" font-family="Montserrat-Regular, Montserrat" font-size="4.888">
                            <tspan x="24.964" y="51.969">Oil palm Bunch</tspan>
                        </text>
                        <g>
                            <text fill="#333" font-family="Montserrat-Regular, Montserrat" font-size="4.888" transform="translate(289.824)">
                                <tspan x="1.114" y="47.29">illegal Palm oil</tspan>
                            </text>
                            <g stroke="#231F20" stroke-width=".5">
                                <path fill="#EFF6F7" d="M1.528 4.2H18.45c.392 0 .77.152 1.054.423l10.028 9.563c.302.288.473.688.473 1.106v21.75c0 .845-.684 1.528-1.528 1.528H1.528C.684 38.57 0 37.887 0 37.043V5.728c0-.843.684-1.527 1.528-1.527z" transform="translate(289.824) translate(2.543)"/>
                                <path d="M12.146.25c.353 0 .672.143.903.374.232.231.375.55.375.904h0v2.805H2.909V1.528c0-.353.143-.673.374-.904.231-.231.55-.374.903-.374h0z" transform="translate(289.824) translate(2.543)"/>
                                <g>
                                    <path d="M0 0L11.774 11.838M11.774 0L0 11.838" transform="translate(289.824) translate(2.543) translate(9.116 19.858)"/>
                                </g>
                                <path d="M15.193 17.567c-1.678 0-3.038-1.036-3.038-2.312-.042-2.949 3.038-5.326 3.038-5.326s3.087 2.377 3.038 5.328c0 1.276-1.36 2.31-3.038 2.31z" transform="translate(289.824) translate(2.543)"/>
                            </g>
                        </g>
                        <text fill="#333" font-family="Montserrat-Regular, Montserrat" font-size="4.888">
                            <tspan x="150.991" y="203.937">Blockchain Tracking</tspan>
                        </text>
                        <text fill="#333" font-family="Montserrat-Regular, Montserrat" font-size="4.888">
                            <tspan x="158.002" y="61.449">Palm Oil Mills</tspan>
                        </text>
                        <text fill="#333" font-family="Montserrat-Regular, Montserrat" font-size="4.888">
                            <tspan x="302.099" y="203.621">Consumer</tspan>
                        </text>
                        <ellipse cx="33.861" cy="93.975" fill="#EFF6F7" fill-rule="nonzero" rx="2.567" ry="2.585"/>
                        <ellipse cx="26.571" cy="92.23" fill="#EFF6F7" fill-rule="nonzero" rx="2.567" ry="2.585"/>
                        <ellipse cx="21.978" cy="97.399" fill="#EFF6F7" fill-rule="nonzero" rx="2.567" ry="2.585"/>
                        <ellipse cx="40.07" cy="72.848" fill="#EFF6F7" fill-rule="nonzero" rx="2.567" ry="2.585"/>
                        <ellipse cx="47.36" cy="71.103" fill="#EFF6F7" fill-rule="nonzero" rx="2.567" ry="2.585"/>
                        <ellipse cx="51.952" cy="76.272" fill="#EFF6F7" fill-rule="nonzero" rx="2.567" ry="2.585"/>
                        <g stroke="#9F9E9F" stroke-dasharray="1.148" stroke-width=".5">
                            <path d="M0 0L19.357 19.103" transform="translate(235.377 21.442)"/>
                            <path d="M0 0L19.357 19.103" transform="translate(235.377 21.442) matrix(-1 0 0 1 19.357 0)"/>
                        </g>
                    </g>
                </g>
            </g>
        </g>
    </g>
</svg>
