<?xml version="1.0" encoding="UTF-8"?>
<svg width="105px" height="30px" viewBox="0 0 105 30" version="1.1" xmlns="http://www.w3.org/2000/svg" xmlns:xlink="http://www.w3.org/1999/xlink">
    <title>Logo/KA</title>
    <g id="Logo/KA" stroke="none" stroke-width="1" fill="none" fill-rule="evenodd">
        <g id="KKP" transform="translate(0.000000, 2.000000)">
            <path d="M10.9009139,0.193632891 C11.0491798,0.11286366 11.2648393,0.170075199 11.0441253,0.584017507 C10.9374188,0.805571994 10.9091041,1.06451964 10.9026299,1.34820131 L10.9009139,1.93185404 L17.9620778,1.93185404 C21.0588134,1.93185404 24.6003468,1.63738289 27.6532766,0.186902122 C27.76237,0.13536967 27.8882328,0.233281328 27.8762316,0.339728049 L27.8621968,0.385459813 L26.3997558,3.93257519 L26.3010227,4.13009042 C25.9360382,4.80393842 25.3589795,5.29547533 24.312205,5.63524463 L24.0001226,5.72821823 L24.0001226,5.72821823 L23.6611421,5.81309067 L23.6611421,5.81309067 L23.2939281,5.89002027 L23.2939281,5.89002027 L22.8971452,5.95916533 L22.8971452,5.95916533 L22.4694582,6.02068416 C22.3955274,6.03031057 22.3202534,6.03962582 22.2436082,6.04863321 L21.767061,6.09900951 L21.767061,6.09900951 L21.2562712,6.14215536 L21.2562712,6.14215536 L20.7099033,6.17822906 L20.7099033,6.17822906 L20.1266221,6.2073889 L20.1266221,6.2073889 L19.5050922,6.22979321 L19.5050922,6.22979321 L18.8439782,6.24560029 C18.7304196,6.24769383 18.6151561,6.24951908 18.4981598,6.25107934 L17.3976564,6.25805598 L10.9025987,6.25805598 L10.9025987,12.2383444 L23.0604032,8.95877713 L23.1594694,8.93551923 L23.1594694,8.93551923 L23.3062199,8.90879456 L23.3062199,8.90879456 L23.4930484,8.88548434 C24.0038791,8.83721118 24.8191353,8.8854598 25.4040154,9.51406558 L26.2979166,10.4737611 C26.7755999,10.991968 27.2142823,11.4862848 27.5766962,11.9619051 L27.7846942,12.2450752 C27.9317807,12.4237771 27.8932652,12.5847603 27.6937128,12.5624225 L27.5256171,12.5276729 C27.23735,12.4810468 26.6970364,12.4961703 26.2312718,12.6203156 L25.7157108,12.7582963 L25.7157108,21.0438733 L29.5588305,21.0405079 C29.7181489,21.0405079 29.8653797,21.0389894 30.0015855,21.0360929 L30.3781908,21.0234098 L30.3781908,21.0234098 L30.6950231,21.0033011 L30.6950231,21.0033011 L30.958459,20.9766093 C30.9982695,20.9716589 31.0361209,20.9664693 31.0721459,20.9610581 L31.2674433,20.9260717 L31.2674433,20.9260717 L31.4252858,20.8866087 C31.472366,20.8728019 31.5142665,20.8583894 31.55205,20.8435117 L31.6541126,20.7976234 L31.6541126,20.7976234 L31.7378502,20.7497863 L31.7378502,20.7497863 L31.8430459,20.6762197 L31.8430459,20.6762197 L31.9428789,20.6030079 L31.9428789,20.6030079 C32.0304905,20.542431 32.173702,20.5373829 32.2006593,20.6602194 C32.2154017,20.7318741 32.206065,20.7978029 32.1371991,20.9531978 L32.0130649,21.2097821 L32.0130649,21.2097821 L31.8225818,21.5772822 L31.8225818,21.5772822 L31.6531098,21.8856364 L31.6531098,21.8856364 L31.4364195,22.2656003 L31.4364195,22.2656003 L31.1853644,22.6920322 L31.1853644,22.6920322 L30.912798,23.1397902 C30.6337604,23.5898307 30.341736,24.0341477 30.0945656,24.3596033 L29.9213094,24.5763465 L29.9213094,24.5763465 L29.7898214,24.722334 C29.2972471,25.2417995 28.2575385,26.0552979 26.5410177,26.1315961 L26.2784473,26.1373829 L6.00813895,26.1373829 C4.13291218,26.1373829 3.01359935,25.2677728 2.49669574,24.722334 L2.36526848,24.5763465 C2.34605175,24.5538292 2.32816788,24.5323048 2.31160029,24.5119021 C2.23472947,24.4176714 2.15180376,24.3081386 2.0649654,24.1874942 L1.79485464,23.7964161 L1.79485464,23.7964161 L1.51412149,23.3638097 C1.46716151,23.2896447 1.4202945,23.214797 1.37378823,23.1397902 L1.10122178,22.6920322 L1.10122178,22.6920322 L0.736722554,22.0682385 L0.736722554,22.0682385 L0.464004322,21.5772822 L0.464004322,21.5772822 L0.224557563,21.1105237 L0.224557563,21.1105237 L0.150225704,20.9531978 L0.150225704,20.9531978 L0.104957333,20.839692 C0.0780174458,20.7596619 0.076379407,20.7114013 0.0876116727,20.6602194 C0.114569111,20.5373829 0.257780499,20.542431 0.34539217,20.6030079 L0.51343136,20.7254002 L0.51343136,20.7254002 L0.590397648,20.7738958 L0.590397648,20.7738958 L0.682500646,20.8208638 C0.733399092,20.8438256 0.792365037,20.8658985 0.862985329,20.8866087 L1.02082781,20.9260717 L1.02082781,20.9260717 L1.21612518,20.9610581 L1.21612518,20.9610581 L1.45525404,20.9907254 C1.54297742,20.9996344 1.63906883,21.0075164 1.74459102,21.014231 L2.09051275,21.0307322 C2.15323602,21.0328519 2.21858268,21.0346447 2.28668558,21.0360929 L2.72944058,21.0405079 L6.57424513,21.0438733 L6.57256028,4.25565211 C6.57256028,3.66334443 6.74441396,3.02055597 7.51438577,2.41142135 C8.46800513,1.65589251 9.94392485,0.716950198 10.9009139,0.193632891 Z M21.3873572,13.9159887 L10.9025987,16.7227194 L10.9025987,21.0438733 L21.3873572,21.0438733 L21.3873572,13.9159887 Z M58.3914952,12.6707962 L61.2675168,19.4823346 C61.5328791,20.0896183 61.9019601,20.4706471 62.3133475,20.6585416 L62.4519592,20.7140654 L62.4519592,21.0253635 C62.3306508,21.0371423 62.222821,21.0438731 62.1301548,21.0438731 C61.9279741,21.0438731 61.7106297,21.0253635 61.4798066,20.9883443 C61.2489836,20.9496423 61.0198454,20.8739212 60.7974465,20.7611808 C60.5750476,20.6467577 60.3644426,20.4835366 60.1673164,20.2698346 C60.0096154,20.0975269 59.8659322,19.8789116 59.7371296,19.6131269 L59.6433312,19.4049308 L59.3518539,18.6982 L55.9754348,18.6982 L54.9342038,20.9933923 L54.3023888,20.9933923 L58.0275698,12.6707962 L58.3914952,12.6707962 Z M81.7029395,12.6707962 L84.5789612,19.4823346 C84.8458397,20.0896183 85.2150724,20.4706471 85.626475,20.6585416 L85.7650885,20.7140654 L85.7650885,21.0253635 C85.642095,21.0371423 85.5359503,21.0438731 85.4432841,21.0438731 C85.2411031,21.0438731 85.0237588,21.0253635 84.7929357,20.9883443 C84.5604278,20.9496423 84.3346593,20.8739212 84.1105756,20.7611808 C83.8881767,20.6467577 83.6792567,20.4835366 83.4804454,20.2698346 C83.3213967,20.0975269 83.1785223,19.8789116 83.0500971,19.6131269 L82.9564604,19.4049308 L82.6649829,18.6982 L79.2885641,18.6982 L78.247333,20.9933923 L77.6155181,20.9933923 L81.340699,12.6707962 L81.7029395,12.6707962 Z M72.9417724,12.6421904 C73.143953,12.6421904 73.3680367,12.6506039 73.6123386,12.6674308 C73.8566402,12.6842577 74.1043118,12.7212769 74.3570377,12.7801712 C74.608079,12.8390654 74.8624897,12.9063731 75.0949976,13.0258442 C75.9424721,13.4599789 76.1783497,14.3332962 76.1783497,14.9626231 C76.1783497,15.5784885 75.8952965,16.3744019 75.079834,16.7866615 L74.854627,16.9003991 C74.7029914,16.9734404 74.5378771,17.0407481 74.2963833,17.101325 L75.4887509,19.0442737 L75.4887509,19.0442737 L75.9637301,19.7978362 C75.9741272,19.8132145 75.9822764,19.8248326 75.9879627,19.8323346 C76.3693493,20.3340829 76.7242795,20.5410123 76.9970565,20.6263227 L77.0763693,20.6484404 L77.0763693,20.9647866 C76.2137313,21.1902673 75.3729963,20.9176712 74.7378116,20.1756039 C74.5787626,19.9884885 74.3765819,19.7367577 74.1942418,19.4669346 L74.0621908,19.2619019 L72.8002458,17.1551712 L71.9173895,17.1551712 L71.9173895,20.9647866 L70.4381001,20.9647866 L70.439785,14.2811327 C70.439785,13.9025269 70.4364153,13.5996423 70.2780405,13.3590173 C70.1777924,13.2073647 70.0401357,13.0647302 69.7759023,12.9818412 L69.6546498,12.9501231 L69.6546498,12.6421904 L72.9417724,12.6421904 Z M68.6605942,12.6707962 L68.6605942,13.2378635 L65.9715896,13.2378635 L65.9715896,20.9933923 L64.5040942,20.9933923 L64.5040942,13.2378635 L61.6263877,13.2412289 C61.6583997,13.1469981 61.7055752,13.0611808 61.7695991,12.9854596 C61.8487866,12.8945942 61.9583012,12.8188731 62.0981429,12.7599789 C62.2017605,12.7158082 62.3281235,12.6877283 62.4772318,12.676449 L62.633922,12.6707962 L68.6605942,12.6707962 Z M40.7882883,12.6539692 C41.6745141,12.6489212 42.4259526,12.7818539 42.9162411,13.0578154 C43.7098006,13.5037289 44.0231809,14.4073346 44.0215161,15.1881039 C44.0215161,15.9268058 43.7081158,16.8472385 42.9600469,17.2174308 C42.7342784,17.3284885 42.506825,17.4109404 42.2844261,17.4698346 C42.0603424,17.5287289 41.8497374,17.5657481 41.6526112,17.5842577 L41.3819838,17.603188 L41.3819838,17.603188 L41.1656925,17.6094981 L39.5667794,17.6094981 L39.5650946,20.9765654 L38.0891749,20.9765654 L38.0925445,14.2945942 C38.0925445,13.9159885 38.08749,13.6131039 37.9291151,13.3724789 C37.8288671,13.2193539 37.6912104,13.0765354 37.4269768,12.9936233 L37.3057243,12.9619019 L37.3057243,12.6539692 L40.7882883,12.6539692 Z M46.1932546,12.6489212 C46.4122838,12.6489212 46.5942465,12.6758442 46.7425124,12.7296904 C46.8907783,12.7835366 47.0087171,12.8744019 47.0963288,13.0006039 C47.1839404,13.1268058 47.2479643,13.295075 47.2850308,13.5054116 C47.314684,13.6736808 47.3335542,13.8742577 47.3399162,14.1071423 L47.3423154,14.2878635 L47.3423154,16.4417096 L50.8754246,16.4417096 L50.8754246,12.6489212 L52.3530291,12.6489212 L52.3496594,19.3308923 C52.3496594,19.7094981 52.3530291,20.0123827 52.5114041,20.2530077 C52.6096062,20.4015654 52.7437057,20.5414692 52.9975221,20.6260944 L53.1347948,20.6635846 L53.1347948,20.9698346 L52.0244854,20.9698346 C51.8054562,20.9698346 51.6234935,20.9429116 51.4752276,20.8890654 C51.3269617,20.8352192 51.2107077,20.7443539 51.1214112,20.6181519 C51.0337995,20.49195 50.9697756,20.3236808 50.9327091,20.1133442 C50.9017081,19.945075 50.8836466,19.7444981 50.877662,19.5116135 L50.8754246,19.3308923 L50.8754246,17.0104596 L47.3423154,17.0104596 L47.3423154,20.9698346 L45.8647108,20.9698346 L45.8680805,14.2878635 C45.8680805,13.9092577 45.8647108,13.6063731 45.7063359,13.3657481 C45.6060879,13.2140954 45.4684312,13.071461 45.2041976,12.988572 L45.0829451,12.9568539 L45.0829451,12.6489212 L46.1932546,12.6489212 Z M81.0256339,14.8381039 L79.5530839,18.12945 L82.4223662,18.12945 L81.0256339,14.8381039 Z M57.7141896,14.8381039 L56.2416395,18.12945 L59.1109218,18.12945 L57.7141896,14.8381039 Z M41.307219,13.2782481 C41.2073539,13.2543845 41.0299584,13.2432036 40.8155394,13.2385563 L40.4712068,13.2357168 L40.4712068,13.2357168 L39.5667794,13.2412289 L39.5667794,17.1030077 L40.7242644,17.1030077 C40.9348694,17.1030077 41.1421047,17.0744019 41.34934,17.0155077 C41.5565753,16.9582962 41.738538,16.8522865 41.8985978,16.7008442 C42.0586576,16.5494019 42.1883902,16.3457962 42.2844261,16.0900269 C42.3821468,15.8342577 42.4310072,15.5128635 42.4293223,15.1241616 C42.4293223,14.7371423 42.3821468,14.4174308 42.2844261,14.1650269 C42.1867054,13.9143058 42.043494,13.7191135 41.8868039,13.5676712 C41.7317986,13.4162289 41.5464663,13.3337769 41.307219,13.2782481 Z M73.0535552,13.2408016 L71.9157046,13.2344981 L71.9157046,16.6503635 L72.8777483,16.6503635 C73.079929,16.6503635 73.2821099,16.6217577 73.4842905,16.5628635 C73.6864714,16.5039692 73.8684342,16.4080558 74.0335484,16.2734404 C74.1986629,16.138825 74.3300804,15.9570942 74.4311705,15.7316135 C74.5305761,15.50445 74.5811214,15.2268058 74.5811214,14.8986808 C74.5811214,14.5722385 74.532261,14.2945942 74.4311705,14.0724789 C74.3300804,13.8503635 74.1717053,13.6349789 73.9981668,13.513825 C73.7975177,13.3730907 73.5843367,13.2601696 73.0535552,13.2408016 L73.0535552,13.2408016 Z M44.8959279,1.92848852 L44.8959279,2.3710366 C44.4157485,2.3710366 43.9827447,2.43161352 43.5952315,2.55445006 C43.2630774,2.65973852 42.9680585,2.84909292 42.7101748,3.1235729 L42.5843276,3.2679116 L40.5945317,5.72295969 L43.6457767,8.89483467 C44.2820846,9.52724652 44.9410442,9.78638115 45.4837956,9.91849782 L45.6288332,9.95156546 L45.6288332,10.2544501 C45.536167,10.2881039 45.4081192,10.3167097 45.2430049,10.3419501 C45.0778906,10.3671904 44.8992976,10.380652 44.705541,10.380652 C44.4696634,10.380652 44.2337858,10.3621424 43.9979082,10.3251231 C43.7637155,10.2864212 43.5194137,10.2107001 43.2666878,10.096277 C43.0139618,9.98353659 42.7528116,9.8304116 42.484922,9.63690197 C42.2692625,9.48209428 42.0428201,9.28636351 41.8055946,9.05143274 L41.6256537,8.86791159 L39.5937369,6.74771929 L39.5937369,10.2527674 L38.1144475,10.2527674 L38.1178171,3.56911352 C38.1178171,3.19050775 38.1144475,2.88762314 37.9560725,2.64699814 C37.8572988,2.49681785 37.7198264,2.35307912 37.4556158,2.26989102 L37.3343666,2.23810391 L37.3343666,1.93017121 L38.4446761,1.93017121 C38.6637052,1.93017121 38.845668,1.95709429 38.9939339,2.01262314 C39.1421998,2.06646929 39.2584537,2.15733468 39.3477502,2.2835366 C39.4353619,2.40805583 39.4993858,2.57800775 39.5364523,2.7866616 C39.5674534,2.95493083 39.5855148,3.15550775 39.5914994,3.38839237 L39.5937369,3.56911352 L39.5937369,5.96526736 L41.7756045,3.25276737 C41.9103917,3.07776737 42.0552879,2.90949814 42.211978,2.74964237 C42.3669833,2.5897866 42.5371521,2.45012314 42.7224845,2.3272866 C42.9078168,2.20445006 43.106628,2.1085366 43.3172329,2.03618083 C43.4751867,1.981914 43.6445131,1.94847049 43.8259229,1.93514041 L44.011387,1.92848852 L44.8959279,1.92848852 Z M91.2340786,1.92848852 L91.2340786,2.3710366 C90.7538993,2.3710366 90.3208953,2.43161352 89.9333822,2.55445006 C89.6012282,2.65973852 89.3062092,2.84909292 89.0483254,3.1235729 L88.9224782,3.2679116 L86.9326825,5.72295969 L89.9839275,8.89483467 C90.6202352,9.52724652 91.277779,9.78638115 91.8202946,9.91849782 L91.9652991,9.95156546 L91.9652991,10.2544501 C91.8726329,10.2881039 91.7429003,10.3167097 91.5794707,10.3419501 C91.4160413,10.3671904 91.2374483,10.380652 91.0436916,10.380652 C90.8078142,10.380652 90.5719366,10.3621424 90.3360589,10.3251231 C90.1001813,10.2864212 89.8558797,10.2107001 89.6031535,10.096277 C89.3521125,9.98353659 89.0892775,9.8304116 88.821388,9.63690197 C88.6057285,9.48209428 88.379286,9.28636351 88.1420605,9.05143274 L87.9621196,8.86791159 L85.9302027,6.74771929 L85.9302027,10.2527674 L84.4525982,10.2527674 L84.4559679,3.56911352 C84.4559679,3.19050775 84.4525982,2.88762314 84.2942231,2.64699814 C84.1939753,2.49681785 84.0576084,2.35307912 83.7925687,2.26989102 L83.6708324,2.23810391 L83.6708324,1.93017121 L84.7811418,1.93017121 C85.0001712,1.93017121 85.1821339,1.95709429 85.3303996,2.01262314 C85.4769808,2.06646929 85.5966043,2.15733468 85.684216,2.2835366 C85.7718276,2.40805583 85.8358517,2.57800775 85.8729181,2.7866616 C85.9039191,2.95493083 85.9219807,3.15550775 85.9279653,3.38839237 L85.9302027,3.56911352 L85.9302027,5.96526736 L88.1137551,3.25276737 C88.2485422,3.07776737 88.3934385,2.90949814 88.5501288,2.74964237 C88.7068187,2.5897866 88.8769875,2.45012314 89.0623199,2.3272866 C89.2476523,2.20445006 89.4447787,2.1085366 89.6553836,2.03618083 C89.8133373,1.981914 89.9826637,1.94847049 90.1640736,1.93514041 L90.3495377,1.92848852 L91.2340786,1.92848852 Z M78.9229538,1.92848852 L81.7989754,8.74002698 C82.065854,9.34731063 82.4350867,9.72833947 82.8464891,9.91623395 L82.9834177,9.97175775 L82.9834177,10.2830558 C82.8621093,10.2948347 82.7542794,10.3015654 82.6616135,10.3015654 C82.4594326,10.3015654 82.2437731,10.2830558 82.01295,10.2460366 C81.7821269,10.2073347 81.5529887,10.1316135 81.3305899,10.0188731 C81.108191,9.90445007 80.8975861,9.74122891 80.7004597,9.52752698 C80.5427589,9.35521928 80.3990756,9.13660391 80.270273,8.8708193 L80.1764746,8.66262315 L79.8833124,7.95589237 L76.5068933,7.95589237 L75.4673471,10.2510847 L74.8355321,10.2510847 L78.5590284,1.92848852 L78.9229538,1.92848852 Z M54.5702784,1.92848852 L57.4479848,8.74002698 C57.7133471,9.34731063 58.0824282,9.72833947 58.4938155,9.91623395 L58.6324273,9.97175775 L58.6324273,10.2830558 C58.5111188,10.2948347 58.4032891,10.3015654 58.3106229,10.3015654 C58.1084421,10.3015654 57.8910977,10.2830558 57.6602747,10.2460366 C57.4277668,10.2073347 57.2003134,10.1316135 56.9779145,10.0188731 C56.7555157,9.90445007 56.5449107,9.74122891 56.3477844,9.52752698 C56.1887355,9.35521928 56.0458611,9.13660391 55.9174359,8.8708193 L55.8237992,8.66262315 L55.5323219,7.95589237 L52.1559028,7.95589237 L51.1146718,10.2510847 L50.4845417,10.2510847 L54.2080378,1.92848852 L54.5702784,1.92848852 Z M66.4738288,1.92902798 C67.1505748,1.94878254 67.4612083,2.16140455 67.7638685,2.47863468 L67.9303177,2.66151317 L67.9303177,2.66151317 L72.5289865,8.0131039 L72.5289865,1.92848852 L73.1608015,1.92848852 L73.1608015,10.2881039 L72.5795318,10.2881039 L67.2251107,4.00829621 L67.2251107,10.2510847 L66.5949806,10.2510847 L66.5946511,3.47976381 C66.5899785,2.95667834 66.5410956,2.51508004 66.0856946,2.2885074 L65.9631656,2.23642121 L65.9631656,1.92848852 L66.4738288,1.92902798 Z M97.3434862,1.92902798 C98.0203859,1.94878254 98.3319585,2.16140455 98.635014,2.47863468 L98.8883061,2.75973852 L103.400307,8.0131039 L103.400307,1.92848852 L104.030437,1.92848852 L104.030437,10.2881039 L103.449168,10.2881039 L98.0964315,4.00829621 L98.0964315,10.2510847 L97.4646165,10.2510847 L97.4643649,3.47976381 C97.4599798,2.95667834 97.4120314,2.51508004 96.9556241,2.2885074 L96.8328015,2.23642121 L96.8328015,1.92848852 L97.3434862,1.92902798 Z M46.9699658,1.93017121 L48.4475703,1.93017121 L48.4458855,8.61382505 C48.4458855,8.99243083 48.4492552,9.29363274 48.6076301,9.53594045 C48.7078781,9.68759309 48.8442448,9.83022755 49.1092846,9.91311658 L49.2310208,9.94483467 L49.2310208,10.2527674 L48.1207114,10.2527674 C47.9016822,10.2527674 47.7180346,10.2258443 47.5697687,10.1703154 C47.4231877,10.1164693 47.3052489,10.0256039 47.2176372,9.89940197 C47.1283407,9.77320007 47.0660016,9.60493084 47.0272503,9.3945943 C46.9975971,9.22632506 46.9787269,9.02574813 46.972365,8.79286352 L46.9699658,8.61214237 L46.9699658,1.93017121 Z M93.1295235,1.93017121 L94.607128,1.93017121 L94.6037583,8.61382505 C94.6037583,8.99243083 94.6088128,9.29363274 94.7671879,9.53594045 C94.8674358,9.68759309 95.0050924,9.83022755 95.269326,9.91311658 L95.3905786,9.94483467 L95.3905786,10.2527674 L94.280269,10.2527674 C94.0612398,10.2527674 93.8792771,10.2258443 93.7310114,10.1703154 C93.5844302,10.1164693 93.4664913,10.0256039 93.3771948,9.89940197 C93.2895831,9.77320007 93.2272442,9.60493084 93.1884929,9.3945943 C93.1574917,9.22632506 93.1394303,9.02574813 93.1334458,8.79286352 L93.1312083,8.61214237 L93.1312083,6.21598853 L93.1295235,6.21598853 L93.1295235,1.93017121 Z M64.8882377,1.92848852 L64.8882377,2.49555583 L62.1992333,2.49555583 L62.1992333,10.2510847 L60.7334226,10.2510847 L60.7334226,2.49555583 L57.8557161,2.49892121 C57.8877281,2.40469044 57.9332188,2.31887314 57.9989275,2.24315198 C58.0797998,2.1522866 58.1893144,2.07656544 58.3274713,2.01767121 C58.4323526,1.97350054 58.5590314,1.94542061 58.7082187,1.93414132 L58.8649352,1.92848852 L64.8882377,1.92848852 Z M78.247333,4.0974789 L76.7747828,7.38882506 L79.6440653,7.38882506 L78.247333,4.0974789 Z M53.8929727,4.0974789 L52.4204227,7.38882506 L55.289705,7.38882506 L53.8929727,4.0974789 Z" id="Shape" fill="#000000" fill-rule="nonzero"></path>
            <g id="Group" transform="translate(37.234961, 1.904931)">
                <g></g>
                <g transform="translate(0.000000, 10.600961)"></g>
            </g>
        </g>
    </g>
</svg>