<svg xmlns="http://www.w3.org/2000/svg" width="24" height="24">
  <path
    d="M17.672 7.231l4.103 4.21c.024.026.047.053.068.081l-.068-.08c.038.039.07.08.099.125.01.014.018.03.027.045l.023.045.023.053.017.052c.005.015.01.03.013.047.005.021.01.042.013.064l.005.038.005.062v.053l-.005.063L22 12a.78.78 0 01-.023.191l-.013.048c-.005.017-.01.034-.017.05a.674.674 0 01-.023.054l-.023.045-.027.045-.03.045-.004.004-.065.076-4.103 4.21c-.3.31-.787.31-1.088 0a.804.804 0 010-1.116l2.789-2.863H2.769A.778.778 0 012 12a.78.78 0 01.77-.79h16.603l-2.789-2.862a.806.806 0 010-1.117.756.756 0 011.088 0z"
    fill="#FFF" fill-rule="evenodd" /></svg>
