<svg xmlns="http://www.w3.org/2000/svg" width="40" height="40" viewBox="0 0 40 40">
    <g fill="none" fill-rule="evenodd">
        <g fill="#19213C">
            <g>
                <g>
                    <path d="M20 0c11.046 0 20 8.954 20 20s-8.954 20-20 20S0 31.046 0 20 8.954 0 20 0zm0 2C10.059 2 2 10.059 2 20s8.059 18 18 18 18-8.059 18-18S29.941 2 20 2zm6.998 10.179c.408-.284.973-.227 1.314.152.341.379.339.947.014 1.322l-.088.09-6.46 5.815 6.46 5.817c.41.37.443 1.001.074 1.412-.341.379-.906.436-1.314.152l-.098-.078-6.616-5.957-6.615 5.957-.098.078c-.408.284-.973.227-1.314-.152-.341-.379-.34-.947-.014-1.323l.088-.09 6.458-5.816-6.458-5.815c-.41-.37-.444-1.002-.074-1.412.341-.379.906-.436 1.314-.152l.098.078 6.615 5.955 6.616-5.955.098-.078z" transform="translate(-1340 -60) translate(390 60) translate(950)"/>
                </g>
            </g>
        </g>
    </g>
</svg>
