<svg xmlns="http://www.w3.org/2000/svg" width="100" height="100" viewBox="0 0 100 100">
    <g fill="none" fill-rule="evenodd">
        <g fill="#333">
            <g>
                <g>
                    <path d="M89.866 58.38l.371.063c1.113.292 1.778 1.431 1.486 2.544-4.739 18.061-20.562 31.02-39.203 32.107-17.594 1.025-33.924-8.745-41.425-24.466l-.525 1.108c-.59 1.235-2.068 1.759-3.302 1.17-.474-.226-.86-.595-1.109-1.05L6 69.5l4.292-9.042 9 4.292c.464 1.29-.204 2.712-1.494 3.177-.623.224-1.309.19-1.906-.093l-.712-.337c6.915 13.812 21.453 22.35 37.097 21.437 16.84-.981 31.135-12.689 35.416-29.004.26-.99 1.189-1.625 2.173-1.55zM52.083 27.834v5.462l.566.02c4.502.316 8.106 3.899 8.45 8.399l.026.649-4.167.024c-.015-2.556-1.963-4.651-4.453-4.903l-.422-.022V47.92l.566.02c4.502.316 8.106 3.9 8.45 8.41l.026.65v.637c-.028 4.8-3.76 8.717-8.476 9.049l-.566.017v5.464h-4.166v-5.46l-.084.001c-4.8 0-8.739-3.707-9.098-8.422l-.027-.649 4.167-.024c.015 2.556 1.963 4.651 4.453 4.903l.505.026.083-.001V52.082l-.083.001c-4.8 0-8.739-3.707-9.098-8.433l-.027-.65v-.637c.029-4.8 3.76-8.717 8.476-9.049l.732-.023v-5.458h4.167zm0 24.254v10.45l.422-.02c2.324-.236 4.176-2.076 4.425-4.39l.028-.502v-.613c-.015-2.556-1.963-4.651-4.453-4.903l-.422-.022zm-4.167-4.171V37.457l-.083.001c-2.556 0-4.663 1.936-4.93 4.414l-.028.503v.613c.015 2.556 1.963 4.651 4.453 4.903l.505.026.083-.001zM88.691 30.93l.256-.242c.24-.25.458-.53.647-.835l.26-.478c.49-1.028 1.72-1.464 2.748-.974.495.236.875.659 1.057 1.175l.341.966-4.292 9-9.041-4.292-.33-.955c-.377-1.09.201-2.278 1.29-2.655.519-.179 1.087-.147 1.581.09.465.22.947.364 1.432.435-6.978-13.616-21.404-22.004-36.917-21.1-16.84.982-31.135 12.69-35.416 29.005-.292 1.113-1.431 1.779-2.544 1.487-1.113-.292-1.778-1.431-1.486-2.544C13.016 20.952 28.839 7.993 47.48 6.906 64.908 5.89 81.096 15.469 88.69 30.93z" transform="translate(-170 -991) translate(167 757) translate(3 234)"/>
                </g>
            </g>
        </g>
    </g>
</svg>
