<svg xmlns="http://www.w3.org/2000/svg" width="100" height="100" viewBox="0 0 100 100">
    <g fill="none" fill-rule="evenodd">
        <g fill="#333">
            <g>
                <g>
                    <path d="M77.696 52.5c1.869-.011 3.468 1.281 3.878 3.045l.077.45.357 2.913.671.25.759.318.604.278 2.236-1.682c1.24-1.109 3.003-1.303 4.474-.537l.478.29.41.327 2.44 2.448c1.172 1.363 1.279 3.32.37 4.73l-.304.405-1.738 2.215c.014-.012.026-.008.049.025l.36.76.402.98.148.402 2.905.36c1.68.22 3.002 1.464 3.373 3.042l.083.483.022.456-.032 2.887c.203 1.146-.103 2.322-.838 3.224-.63.773-1.52 1.278-2.37 1.418l-.418.039-2.921.362-.19.517-.635 1.495 1.74 2.248c1.062 1.247 1.248 2.978.487 4.47l-.29.487-.323.423-2.404 2.358c-1.378 1.232-3.402 1.335-4.801.38l-2.684-2.087-.645.294-.753.302-.656.23-.363 2.893c-.19 1.703-1.443 3.052-3.043 3.42l-.444.075-.459.024h-3.232c-1.865.015-3.47-1.255-3.915-3.04l-.087-.455-.362-2.926-.456-.15-.569-.218-.59-.256-.555-.272-2.132 1.652c-1.246 1.063-2.978 1.25-4.462.495l-.485-.286-.42-.321-2.403-2.413c-1.172-1.374-1.278-3.336-.365-4.76l.304-.41 1.725-2.22-.02-.001-.052-.08c-.224-.454-.427-.918-.61-1.4l-.226-.635-2.943-.364c-1.68-.22-3.002-1.465-3.373-3.043l-.083-.482-.022-.457v-3.232c-.016-1.865 1.254-3.47 3.039-3.916l.456-.086 2.922-.362.155-.457.22-.574.265-.604.26-.532-1.646-2.128c-1.065-1.238-1.251-2.964-.507-4.429l.283-.477.317-.413 2.396-2.433c1.377-1.219 3.383-1.33 4.796-.397l.404.31 2.198 1.722.061-.047c.469-.245.95-.464 1.437-.654l.677-.245.368-2.943c.221-1.68 1.465-3.002 3.053-3.373l.487-.083.46-.023h3.22zm-.163 4.163h-2.945l-.363 2.952c-.184 1.167-.859 2.18-1.835 2.804l-.436.243-.47.192c-.537.177-1.06.398-1.44.591-1.161.708-2.588.787-3.942.143l-.504-.275-2.394-1.863-1.904 1.933 1.949 2.526c.666 1.03.814 2.288.499 3.322l-.163.428-.22.393c-.25.504-.459 1.026-.625 1.565-.411 1.327-1.477 2.334-2.808 2.684l-.51.1-2.884.353v2.988l2.898.359c1.206.157 2.255.85 2.874 1.836l.238.44.456 1.235.228.564c.79 1.183.879 2.686.203 4.025l-.289.493-1.863 2.394 1.909 1.916 2.598-1.99c.98-.598 2.148-.748 3.155-.486l.489.165.452.233c.503.25 1.025.46 1.616.643 1.279.433 2.249 1.465 2.621 2.79l.111.511.354 2.88h2.945l.359-2.848c.147-1.153.78-2.17 1.752-2.827l.437-.259.475-.211c.63-.208 1.245-.454 1.835-.734 1.2-.575 2.598-.504 3.726.163l.41.278 2.369 1.846 1.942-1.9-1.823-2.352c-.764-.93-1.04-2.143-.82-3.228l.126-.455.588-1.363.383-.988c.46-1.267 1.522-2.206 2.796-2.519l.487-.087 3.025-.37-.017-.188v-3.12l-2.912-.358c-1.202-.167-2.24-.871-2.827-1.82l-.223-.422-.483-1.27-.291-.675c-.709-1.16-.787-2.587-.144-3.941l.276-.504 1.838-2.377L88.9 61.3l-2.338 1.776c-.907.736-2.077 1.023-3.224.808l-.489-.123-.48-.185c-.6-.296-1.217-.555-1.811-.763-1.297-.427-2.266-1.491-2.58-2.775l-.087-.491-.358-2.884zm-64.241 9.212c1.15 0 2.083.933 2.083 2.083v11.417c0 3.249 2.479 5.919 5.648 6.221l.602.029h20.304l-.77-.774c-.965-.971-.96-2.54.01-3.505.418-.416.969-.667 1.552-.713l.196-.008L50 87.708l-7.083 7.042c-1.363 0-2.468-1.105-2.468-2.468 0-.655.26-1.282.723-1.745l.744-.745H21.625c-5.523 0-10.042-4.298-10.395-9.732l-.022-.685V67.958c0-1.15.933-2.083 2.084-2.083zm62.791-2.083c6.789 0 12.292 5.503 12.292 12.291 0 6.789-5.503 12.292-12.292 12.292-6.788 0-12.291-5.503-12.291-12.292 0-6.788 5.503-12.291 12.291-12.291zm0 4.166c-4.487 0-8.125 3.638-8.125 8.125 0 4.488 3.638 8.125 8.125 8.125 4.488 0 8.125-3.637 8.125-8.125 0-4.487-3.637-8.125-8.125-8.125zM36.791.917c1.307 0 2.56.528 3.47 1.467.78.804 1.254 1.85 1.336 2.734l.008.426.594 4.255c.023.242.184.448.351.508 1.148.366 2.262.83 3.252 1.349.171.08.366.083.544.007l.17-.102 3.387-2.614c1.693-1.515 4.188-1.631 6.071-.287l.457.367 3.413 3.413c1.483 1.562 1.753 3.891.675 5.797l-.298.467-2.7 3.435c-.179.246-.2.57-.02.914.46.951.864 1.927 1.24 2.998.057.188.194.337.378.415l.198.052 4.318.577c2.384.25 4.196 2.2 4.322 4.459l.001 5.263c-.028 2.382-1.754 4.374-3.96 4.772l-4.714.61c-.241.023-.447.184-.531.421-.39 1.086-.834 2.152-1.355 3.243-.078.153-.084.33-.017.49l.09.152 2.773 3.53c1.366 1.802 1.313 4.28-.073 6.026l-.374.421-3.364 3.323c-1.591 1.595-4.045 1.877-5.952.74l-.464-.314-3.55-2.748c-.177-.146-.423-.174-.642-.066-1.057.511-2.147.95-3.213 1.297-.172.06-.305.192-.375.387l-.047.216-.577 4.32c-.245 2.303-2.081 4.084-4.333 4.3l-.488.021H31.95c-2.255-.008-4.19-1.545-4.742-3.687l-.102-.505-.671-4.492c-.036-.272-.226-.498-.481-.58-1.049-.332-2.066-.755-3.019-1.251-.2-.101-.429-.111-.614-.05l-.168.086-3.558 2.762c-1.793 1.365-4.263 1.31-5.98-.056l-.412-.37-3.469-3.431c-1.514-1.705-1.63-4.207-.42-5.949l3.03-3.908c.169-.22.193-.517.025-.84-.43-.903-.831-1.872-1.238-3.001-.06-.199-.203-.358-.374-.44l-.177-.053-4.439-.545c-2.258-.301-3.988-2.105-4.236-4.335l-.03-.521v-4.864c-.013-2.304 1.596-4.27 3.74-4.741l5.173-.755c.26-.032.478-.214.58-.54.35-.995.755-1.971 1.24-2.974.105-.202.116-.436.047-.63l-.094-.18-2.614-3.386c-1.515-1.693-1.631-4.188-.287-6.071l.367-.457 3.46-3.455c1.693-1.515 4.187-1.631 5.907-.43l.413.328 3.574 2.733c.198.158.471.18.807-.001.903-.43 1.872-.831 2.988-1.234.188-.058.337-.195.412-.354l.048-.163.466-4.478c.315-2.352 2.267-4.109 4.59-4.222l5.099-.001zM31.97 5.08c-.294-.016-.56.152-.675.376l-.057.176-.463 4.455c-.209 1.7-1.298 3.147-2.769 3.806l-1.166.439-1.218.5-1.05.489c-1.412.574-3.015.442-4.292-.342l-.463-.324-3.665-2.81c-.203-.182-.488-.218-.68-.15l-.125.07-3.295 3.29c-.181.203-.217.488-.06.782l.155.221 2.73 3.529c1.136 1.521 1.303 3.559.457 5.193-.261.541-.502 1.091-.714 1.628l-.496 1.32c-.606 1.37-1.814 2.383-3.241 2.734l-.545.1-4.701.676c-.273.03-.492.22-.568.476l-.028.203v4.862c.001.3.18.561.43.678l.198.058 4.447.546c1.7.234 3.135 1.34 3.78 2.808l.52 1.381.452 1.08.458 1.003c.542 1.396.41 2.969-.36 4.262l-.32.472-2.798 3.608c-.19.215-.229.517-.162.716l.069.127 3.386 3.344c.2.2.494.258.74.17l.174-.094 3.585-2.783c1.505-1.107 3.505-1.274 5.197-.42.761.398 1.556.728 2.38.99 1.616.516 2.834 1.83 3.238 3.425l.104.542.667 4.46c.044.293.254.526.521.608l.21.032h4.845c.274.001.513-.163.62-.431l.054-.22.574-4.3c.18-1.853 1.416-3.434 3.22-4.072.937-.305 1.851-.673 2.724-1.096 1.508-.743 3.282-.63 4.637.238l.435.316 3.486 2.698c.226.172.526.19.77.055l.171-.129 3.362-3.32c.211-.212.271-.522.183-.776l-.094-.176-2.74-3.488c-1.163-1.457-1.366-3.46-.544-5.071.437-.916.827-1.852 1.167-2.799.559-1.579 1.895-2.738 3.458-3.079l.529-.083 4.282-.553c.31-.023.566-.233.658-.503l.037-.211.002-4.856c.015-.283-.15-.536-.426-.648l-.227-.056-4.353-.58c-1.7-.21-3.147-1.299-3.812-2.785l-.504-1.35-.336-.813-.586-1.276c-.55-1.39-.439-2.962.327-4.306l.318-.492 2.691-3.422c.148-.207.17-.47.089-.677l-.115-.183-3.29-3.295c-.203-.181-.488-.217-.782-.06l-.221.155-3.482 2.694c-1.437 1.137-3.394 1.364-5.132.547-.856-.447-1.75-.819-2.732-1.133-1.579-.56-2.738-1.896-3.077-3.444l-.082-.523-.621-4.696c-.028-.115-.086-.221-.17-.307-.083-.087-.188-.148-.302-.179l-.177-.024-4.82-.003zm2.446 12.42c9.342 0 16.916 7.574 16.916 16.917 0 9.342-7.574 16.916-16.916 16.916-9.343 0-16.917-7.574-16.917-16.916 0-9.343 7.574-16.917 16.917-16.917zM72.208 3.917l.197.007c.587.047 1.141.301 1.56.72.93.929.97 2.41.122 3.385l-.121.13-.76.758h5.419c5.523 0 10.042 4.298 10.395 9.731l.022.685v26.292c0 1.15-.933 2.083-2.084 2.083-1.15 0-2.083-.932-2.083-2.083V19.333c0-3.248-2.479-5.918-5.648-6.221l-.602-.029h-5.404l.732.729c.467.464.73 1.096.73 1.755 0 1.312-1.02 2.386-2.312 2.47l-.163.005L65.125 11l7.083-7.083zm-37.791 17.75c-7.042 0-12.75 5.708-12.75 12.75 0 7.041 5.708 12.75 12.75 12.75 7.041 0 12.75-5.709 12.75-12.75 0-7.042-5.709-12.75-12.75-12.75z" transform="translate(-170 -760) translate(167 757) translate(3 3)"/>
                </g>
            </g>
        </g>
    </g>
</svg>
