<svg xmlns="http://www.w3.org/2000/svg" width="1em" height="1em" viewBox="0 0 63 63">
  <g fill="none" fill-rule="evenodd">
    <g>
      <g>
        <g>
          <path fill="#7CD55E" d="M57.577 46.97c8.818-14.675 4.07-33.72-10.606-42.538C32.295-4.385 13.25.363 4.432 15.038-4.385 29.714.363 48.76 15.038 57.577c14.676 8.818 33.721 4.07 42.539-10.606z" transform="translate(-729 -1436) translate(210 1089) translate(518.995 346.995)" />
          <path fill="#FFF" fill-rule="nonzero" d="M28.103 43.316l4.558-7.89L46.516 45.97c.32.245.767.242 1.09-.006.095-.072.172-.159.23-.256.143-.238.174-.534.07-.802l-9.989-25.597c-.106-.273-.339-.476-.623-.544-.285-.068-.585.008-.807.203l-7.219 6.347-14.3-6.814c-.353-.168-.775-.087-1.046.201-.27.288-.328.716-.141 1.06l12.75 23.545c.155.286.452.465.778.467.326.002.628-.17.794-.458z" transform="translate(-729 -1436) translate(210 1089) translate(518.995 346.995)" />
        </g>
      </g>
    </g>
  </g>
</svg>
