<svg id="Layer_1" data-name="Layer 1" xmlns="http://www.w3.org/2000/svg" viewBox="0 0 60 60"><defs><style>.cls-1{fill:#00b8de;}</style></defs><path class="cls-1" d="M54.14,16.22A3.49,3.49,0,0,0,51.85,13C39.68,8.44,34.35,4.77,32.26,3a3.48,3.48,0,0,0-4.52,0C25.65,4.77,20.32,8.44,8.15,13a3.49,3.49,0,0,0-2.29,3.24C5.77,23.14,7.14,46.6,28.35,58a3.45,3.45,0,0,0,3.3,0C52.86,46.6,54.23,23.14,54.14,16.22ZM30.23,55.32h0a.53.53,0,0,1-.46,0C10.05,44.75,8.78,22.75,8.86,16.26a.5.5,0,0,1,.34-.47c12.59-4.7,18.24-8.6,20.49-10.52a.49.49,0,0,1,.62,0c2.25,1.92,7.9,5.82,20.5,10.52a.51.51,0,0,1,.33.47C51.22,22.75,50,44.75,30.23,55.32Z"/><polygon class="cls-1" points="31.65 57.96 31.64 57.96 31.64 57.96 31.65 57.96"/><path class="cls-1" d="M38.24,28.5H31.5V21.76a1.5,1.5,0,0,0-3,0V28.5H21.76a1.5,1.5,0,0,0,0,3H28.5v6.74a1.5,1.5,0,1,0,3,0V31.5h6.74a1.5,1.5,0,1,0,0-3Z"/></svg>