<svg id="Layer_1" data-name="Layer 1" xmlns="http://www.w3.org/2000/svg" viewBox="0 0 60 60"><defs><style>.cls-1{fill:#00b8de;}</style></defs><path class="cls-1" d="M23.56,30A6.44,6.44,0,1,0,30,23.56,6.45,6.45,0,0,0,23.56,30Zm9.88,0A3.44,3.44,0,1,1,30,26.56,3.44,3.44,0,0,1,33.44,30Z"/><path class="cls-1" d="M56.74,28.5H53.85V27.23a3.35,3.35,0,0,0-3.34-3.34h-1V21.36a1.5,1.5,0,0,0-1.5-1.5h0a1.5,1.5,0,0,0-1.49,1.5v2.53H45a3.32,3.32,0,0,0-2.37,1,3.37,3.37,0,0,0-1,2.36V28.5H38.73a1.5,1.5,0,1,0,0,3h2.88v1.28a4.07,4.07,0,0,0,.06.6c0,.06,0,.12,0,.18a2.68,2.68,0,0,0,.07.27l-8,8-.28-.07-.18,0a3.05,3.05,0,0,0-.6-.06H31.5V39.1a1.5,1.5,0,1,0-3,0v2.52H27.23a4.07,4.07,0,0,0-.61.06l-.19,0-.26.06L22.37,38a1.5,1.5,0,0,0-2.12,2.13l3.81,3.81a3.29,3.29,0,0,0-.18,1v1.28H21.36a1.5,1.5,0,0,0,0,3h2.52v1.26a3.35,3.35,0,0,0,3.35,3.35H28.5v2.52a1.5,1.5,0,0,0,3,0V53.86h1.27a3.36,3.36,0,0,0,3.35-3.35V49.25h2.52a1.5,1.5,0,0,0,0-3H36.12V45a3.14,3.14,0,0,0-.19-1l8-8a3.29,3.29,0,0,0,1,.18h1.55V39A1.5,1.5,0,0,0,48,40.46h0a1.5,1.5,0,0,0,1.5-1.5V36.12h1a3.35,3.35,0,0,0,3.34-3.34V31.5h2.89a1.5,1.5,0,1,0,0-3Zm-23.62,22a.35.35,0,0,1-.35.35H27.23a.35.35,0,0,1-.35-.35V47.76h0V45a.37.37,0,0,1,.12-.26.33.33,0,0,1,.23-.09h5.54a.38.38,0,0,1,.25.1.34.34,0,0,1,.1.25ZM50.85,32.78a.34.34,0,0,1-.34.34H45a.32.32,0,0,1-.24-.11.31.31,0,0,1-.11-.23V27.23a.33.33,0,0,1,.12-.25.31.31,0,0,1,.23-.09h5.55a.34.34,0,0,1,.34.34Z"/><path class="cls-1" d="M21.27,31.5a1.5,1.5,0,0,0,0-3H18.38V27.23a3.05,3.05,0,0,0-.06-.6c0-.06,0-.12,0-.18s0-.19-.07-.28l8-8,.26.07.18,0a3.08,3.08,0,0,0,.61.06H28.5V20.9a1.5,1.5,0,0,0,3,0V18.38h1.27a3,3,0,0,0,.6-.06l.18,0,.28-.07L38,22.42a1.5,1.5,0,0,0,2.12-2.12l-4.22-4.22a3.4,3.4,0,0,0,.18-1V13.76h2.52a1.5,1.5,0,0,0,0-3H36.12V9.49a3.36,3.36,0,0,0-3.35-3.35H31.5V3.62a1.5,1.5,0,1,0-3,0V6.14H27.23a3.35,3.35,0,0,0-3.35,3.35v1.27H21.36a1.5,1.5,0,0,0,0,3h2.52V15a3.4,3.4,0,0,0,.18,1l-8,8a3.59,3.59,0,0,0-1-.17H13.76V21.36a1.5,1.5,0,0,0-3,0v2.53H9.49a3.35,3.35,0,0,0-3.35,3.34V28.5H3.26a1.5,1.5,0,1,0,0,3H6.14v1.28a3.35,3.35,0,0,0,3.35,3.34h1.27V39a1.5,1.5,0,0,0,3,0V36.12H15a3.36,3.36,0,0,0,2.37-1,3.32,3.32,0,0,0,1-2.36V31.5Zm6-22.36h5.54a.35.35,0,0,1,.35.35V15a.34.34,0,0,1-.09.24.37.37,0,0,1-.26.11H27.23a.34.34,0,0,1-.25-.1.39.39,0,0,1-.1-.25V12.27h0V9.49A.35.35,0,0,1,27.23,9.14ZM9.14,32.78V27.23a.35.35,0,0,1,.35-.34H15a.34.34,0,0,1,.23.08.36.36,0,0,1,.12.26v5.55a.32.32,0,0,1-.11.24.34.34,0,0,1-.24.1H9.49A.35.35,0,0,1,9.14,32.78Z"/></svg>