<svg id="Layer_1" data-name="Layer 1" xmlns="http://www.w3.org/2000/svg" viewBox="0 0 60 60"><defs><style>.cls-1{fill:#00b8de;}</style></defs><path class="cls-1" d="M54.14,16a3.51,3.51,0,0,0-2.29-3.24c-12.17-4.53-17.5-8.2-19.59-10a3.47,3.47,0,0,0-4.51,0c-2.1,1.79-7.43,5.46-19.6,10A3.51,3.51,0,0,0,5.86,16c-.09,6.91,1.28,30.37,22.5,41.74a3.48,3.48,0,0,0,3.28,0C52.86,46.33,54.23,22.87,54.14,16ZM30.23,55.05a.47.47,0,0,1-.46,0C10.05,44.49,8.78,22.48,8.86,16a.48.48,0,0,1,.34-.46C21.79,10.83,27.44,6.92,29.69,5a.46.46,0,0,1,.62,0c2.25,1.91,7.89,5.82,20.5,10.52a.48.48,0,0,1,.33.46C51.22,22.48,50,44.49,30.23,55.05Z"/><path class="cls-1" d="M30,16.36A13.64,13.64,0,1,0,43.64,30,13.66,13.66,0,0,0,30,16.36Zm0,24.28A10.64,10.64,0,1,1,40.64,30,10.65,10.65,0,0,1,30,40.64Z"/><path class="cls-1" d="M34.38,25.39l-6,6-2.72-2.72a1.49,1.49,0,0,0-2.12,0,1.51,1.51,0,0,0,0,2.12l3.78,3.78a1.5,1.5,0,0,0,2.12,0l7.1-7.1a1.51,1.51,0,0,0,0-2.12A1.49,1.49,0,0,0,34.38,25.39Z"/></svg>