<svg id="Layer_1" data-name="Layer 1" xmlns="http://www.w3.org/2000/svg" viewBox="0 0 60 60" width="1em" height="1em">
  <defs>
    <style>.cls-1{fill:#00b8de;}</style>
  </defs>
  <path class="cls-1" d="M55.92,36.59a3.5,3.5,0,0,0-3.5-3.5H50.91A21.22,21.22,0,0,0,51.15,30a21,21,0,0,0-6.67-15.4l1.65-.34a1.53,1.53,0,0,0,.54-2.77,1.55,1.55,0,0,0-1.15-.22l-4.93,1a1.54,1.54,0,0,0-1.2,1.8l1,4.94a1.5,1.5,0,0,0,.65,1h0a1.52,1.52,0,0,0,2.34-1.57l-.17-.83A18,18,0,0,1,48.15,30a17.66,17.66,0,0,1-.27,3.09H47.1a3.53,3.53,0,0,0-2.81,1.41l-.61.83a.51.51,0,0,1-.4.2H34.06a3.5,3.5,0,0,0-3.5,3.5v.4A3.56,3.56,0,0,0,27.78,41a3.51,3.51,0,0,0-.37,3.26l3.78,9.58a3.54,3.54,0,0,0,3.33,2.25H52.35a3.51,3.51,0,0,0,3.55-3.47,2.45,2.45,0,0,0,0-.27ZM34.06,38.53h9.22a3.5,3.5,0,0,0,2.8-1.41l.62-.82a.49.49,0,0,1,.4-.21h5.32a.5.5,0,0,1,.5.5v7.67l-1-2.6a3.57,3.57,0,0,0-3.33-2.25h-15V39A.5.5,0,0,1,34.06,38.53ZM52.83,52.82a.56.56,0,0,1-.48.24H34.52a.57.57,0,0,1-.54-.35L30.2,43.13a.49.49,0,0,1,.06-.47.57.57,0,0,1,.48-.25H48.57a.57.57,0,0,1,.54.35l3.78,9.58A.51.51,0,0,1,52.83,52.82Z" />
  <path class="cls-1" d="M19.56,41a1.59,1.59,0,0,0-.66-1h0a1.53,1.53,0,0,0-2.33,1.59l.15.71a18,18,0,0,1-4.58-15.53l.21,0H30.18a3.55,3.55,0,0,0,2.94-1.56,3.48,3.48,0,0,0,.6-1.78,1.09,1.09,0,0,0,0-.26V7.11a3.5,3.5,0,0,0-3.5-3.5H24.93A3.5,3.5,0,0,0,22.12,5l-.61.82a.52.52,0,0,1-.4.21H11.89a3.5,3.5,0,0,0-3.5,3.5v.39a3.55,3.55,0,0,0-3.15,4.84L9,24.54a3.48,3.48,0,0,0,.39.71A21.07,21.07,0,0,0,15.05,45c.16.16.34.31.51.47l-1.7.36a1.52,1.52,0,0,0-.52,2.77,1.55,1.55,0,0,0,1.15.22l4.93-1a1.53,1.53,0,0,0,1.17-1.81ZM11.89,9.05h9.22a3.53,3.53,0,0,0,2.8-1.41l.62-.83a.48.48,0,0,1,.4-.2h5.32a.5.5,0,0,1,.5.5v7.72l-1-2.63A3.59,3.59,0,0,0,26.4,9.92h-15V9.55A.5.5,0,0,1,11.89,9.05ZM8,13.7a.55.55,0,0,1,.07-.53.54.54,0,0,1,.47-.25H26.4a.56.56,0,0,1,.53.36l3.78,9.77a.56.56,0,0,1-.06.53.58.58,0,0,1-.47.25H12.35a.59.59,0,0,1-.54-.37Z" />
</svg>
