<svg id="Layer_1" data-name="Layer 1" xmlns="http://www.w3.org/2000/svg" viewBox="0 0 60 60" width="1em" height="1em">
  <defs>
    <style>.cls-1{fill:#00b8de;}</style>
  </defs>
  <path class="cls-1" d="M3.42,19a1.5,1.5,0,0,0,1.5-1.5V5.42a.51.51,0,0,1,.5-.5H17.5a1.5,1.5,0,0,0,0-3H5.42a3.5,3.5,0,0,0-3.5,3.5V17.5A1.5,1.5,0,0,0,3.42,19Z" />
  <path class="cls-1" d="M17.5,55.08H5.42a.51.51,0,0,1-.5-.5V42.5a1.5,1.5,0,0,0-3,0V54.58a3.5,3.5,0,0,0,3.5,3.5H17.5a1.5,1.5,0,0,0,0-3Z" />
  <path class="cls-1" d="M56.58,41a1.5,1.5,0,0,0-1.5,1.5V54.58a.51.51,0,0,1-.5.5H42.5a1.5,1.5,0,0,0,0,3H54.58a3.5,3.5,0,0,0,3.5-3.5V42.5A1.5,1.5,0,0,0,56.58,41Z" />
  <path class="cls-1" d="M54.58,1.92H42.5a1.5,1.5,0,0,0,0,3H54.58a.51.51,0,0,1,.5.5V17.5a1.5,1.5,0,0,0,3,0V5.42A3.5,3.5,0,0,0,54.58,1.92Z" />
  <path class="cls-1" d="M49.5,30A19.5,19.5,0,1,0,30,49.5,19.53,19.53,0,0,0,49.5,30ZM30,46.5A16.5,16.5,0,1,1,46.5,30,16.52,16.52,0,0,1,30,46.5Z" />
</svg>
