<svg id="Layer_1" data-name="Layer 1" xmlns="http://www.w3.org/2000/svg" viewBox="0 0 60 60" width="1em" height="1em">
  <defs>
    <style>.cls-1{fill:#00b8de;}</style>
  </defs>
  <path class="cls-1" d="M54.56,49.33l-2.7-2.7,1.5-1.51a1.48,1.48,0,0,0,.4-1.4,1.52,1.52,0,0,0-1-1.08l-1.15-.39A24.81,24.81,0,0,0,30,5.27H30a24.81,24.81,0,0,0,0,49.62h.45a24.76,24.76,0,0,0,8.76-1.74,1.5,1.5,0,1,0-1.11-2.79,21.72,21.72,0,0,1-6.56,1.46V39.36h5.26a1.25,1.25,0,0,0,.08.42l1.92,5.64h0l2.86,8.38a1.49,1.49,0,0,0,1.08,1,1.51,1.51,0,0,0,1.4-.4l1.49-1.49,2.7,2.7a1.5,1.5,0,0,0,2.12,0l4.14-4.14A1.49,1.49,0,0,0,54.56,49.33ZM51.82,30.08a21.73,21.73,0,0,1-3.08,11.19l-5.11-1.74c.11-.44.21-.89.31-1.37a40.86,40.86,0,0,0,.78-8.08,41.24,41.24,0,0,0-.39-5.7H47a1.5,1.5,0,0,0,0-3H43.79c0-.22-.09-.45-.14-.66l-.12-.46c-.12-.46-.23-.92-.36-1.36-.06-.2-.13-.39-.19-.59-.12-.38-.24-.76-.37-1.13-.08-.22-.16-.42-.24-.63s-.26-.68-.39-1-.2-.41-.29-.62-.27-.62-.42-.91-.22-.41-.33-.62-.29-.54-.44-.8-.25-.4-.38-.61-.29-.47-.45-.7-.28-.39-.43-.58-.28-.4-.43-.58A21.84,21.84,0,0,1,51.82,30.08Zm-33,6.28a37.66,37.66,0,0,1-.52-6.28,38.34,38.34,0,0,1,.43-5.7h9.78v12Zm.48-15C21,14.44,24.52,9.49,28.51,8.48v12.9ZM31.51,8.48c4,1,7.55,6,9.21,12.9H31.51ZM8.2,30.08a21.85,21.85,0,0,1,13-19.95A28.28,28.28,0,0,0,16,22.58h0v0a40.94,40.94,0,0,0-.68,7.47,40.16,40.16,0,0,0,.48,6.28H13a1.5,1.5,0,0,0,0,3h3.38a26.81,26.81,0,0,0,4.89,10.69A21.83,21.83,0,0,1,8.2,30.08Zm20.31,21.6c-3.85-1-7.34-5.71-9.06-12.32h9.06Zm3-27.3h9.78a38.34,38.34,0,0,1,.43,5.7,39,39,0,0,1-.51,6.28h-9.7Zm17.85,28-2.7-2.71a1.52,1.52,0,0,0-1.06-.44,1.5,1.5,0,0,0-1.06.44l-.85.85-.32-.93h0l-2.7-7.92,1.73.59,6.49,2.21h0l.63.22-.85.85a1.51,1.51,0,0,0,0,2.13l2.7,2.7Z" />
</svg>
