<svg xmlns="http://www.w3.org/2000/svg" width="24" height="24" viewBox="0 0 24 24">
    <g fill="none" fill-rule="evenodd">
        <g fill="#00B8DE">
            <g>
                <g>
                    <path d="M17.672 7.231l4.103 4.21c.024.026.047.053.068.081l-.068-.08c.038.039.07.08.099.125.01.014.018.03.027.045l.023.045.023.053.017.052c.005.015.01.03.013.047.005.021.01.042.013.064l.005.038.005.062v.053l-.005.063L22 12c0 .043-.003.086-.01.128-.003.02-.008.042-.013.063l-.013.048c-.005.017-.01.034-.017.05-.007.019-.015.037-.023.054l-.023.045-.027.045-.03.045-.004.004-.065.076-4.103 4.21c-.3.31-.787.31-1.088 0-.3-.308-.3-.807 0-1.116l2.789-2.863H2.769C2.344 12.79 2 12.436 2 12c0-.436.344-.79.77-.79h16.603l-2.789-2.862c-.3-.309-.3-.808 0-1.117.3-.308.788-.308 1.088 0z" transform="translate(-282 -591) translate(278 591) translate(4)"/>
                </g>
            </g>
        </g>
    </g>
</svg>
