<svg width="1em" height="1.33em" viewBox="0 0 166 220" fill="none" xmlns="http://www.w3.org/2000/svg">
  <path d="M165.194 109.674C165.194 74.7229 143.733 44.9949 111.572 33.7889L126.719 0.179932L54.3851 33.6679L54.4461 33.6939C38.5047 39.1509 24.6801 49.4772 14.9241 63.2149C5.16815 76.9527 -0.0263451 93.4078 0.0740718 110.257C-0.044748 127.31 5.33063 143.948 15.4044 157.708C25.4782 171.468 39.7149 181.618 56.0071 186.657L40.2671 219.629L105.844 187.451C122.925 182.84 138.005 172.715 148.738 158.649C159.47 144.584 165.256 127.366 165.194 109.674Z" fill="url(#paint0_linear)" />
  <path d="M92.368 79.929L126.718 0.179932L29.718 118.287L156.788 72.2729L92.368 79.929Z" fill="white" />
  <path d="M40.2641 219.629L137.955 101.803L6.16809 149.971L74.6381 139.271L40.2641 219.629Z" fill="white" />
  <defs>
    <linearGradient id="paint0_linear" x1="24.18" y1="45.6059" x2="159.753" y2="128.687" gradientUnits="userSpaceOnUse">
      <stop offset="0.174" stop-color="#FFF201" />
      <stop offset="0.403" stop-color="#FFC400" />
      <stop offset="0.461" stop-color="#FFB100" />
      <stop offset="0.6" stop-color="#FF8A00" />
      <stop offset="0.711" stop-color="#FF7100" />
      <stop offset="0.779" stop-color="#FF6900" />
      <stop offset="0.975" stop-color="#FF2200" />
    </linearGradient>
  </defs>
</svg>
