<svg xmlns="http://www.w3.org/2000/svg" width="25" height="25" viewBox="0 0 25 25">
    <defs>
        <linearGradient id="63mi08e94a" x1="24.617%" x2="83.664%" y1="61.61%" y2="9.441%">
            <stop offset="0%" stop-color="#FFF" stop-opacity="0"/>
            <stop offset="15%" stop-color="#FFF" stop-opacity=".01"/>
            <stop offset="25%" stop-color="#FFF" stop-opacity=".04"/>
            <stop offset="33%" stop-color="#FFF" stop-opacity=".1"/>
            <stop offset="40%" stop-color="#FFF" stop-opacity=".18"/>
            <stop offset="47%" stop-color="#FFF" stop-opacity=".29"/>
            <stop offset="53%" stop-color="#FFF" stop-opacity=".42"/>
            <stop offset="59%" stop-color="#FFF" stop-opacity=".57"/>
            <stop offset="65%" stop-color="#FFF" stop-opacity=".75"/>
            <stop offset="70%" stop-color="#FFF" stop-opacity=".95"/>
            <stop offset="72%" stop-color="#FFF"/>
        </linearGradient>
        <linearGradient id="1145s3d3yb" x1="49.538%" x2="50.474%" y1="-.224%" y2="100.37%">
            <stop offset="28%" stop-color="#FFF"/>
            <stop offset="30%" stop-color="#FFF" stop-opacity=".95"/>
            <stop offset="35%" stop-color="#FFF" stop-opacity=".75"/>
            <stop offset="41%" stop-color="#FFF" stop-opacity=".57"/>
            <stop offset="47%" stop-color="#FFF" stop-opacity=".42"/>
            <stop offset="53%" stop-color="#FFF" stop-opacity=".29"/>
            <stop offset="60%" stop-color="#FFF" stop-opacity=".18"/>
            <stop offset="67%" stop-color="#FFF" stop-opacity=".1"/>
            <stop offset="75%" stop-color="#FFF" stop-opacity=".04"/>
            <stop offset="85%" stop-color="#FFF" stop-opacity=".01"/>
            <stop offset="100%" stop-color="#FFF" stop-opacity="0"/>
        </linearGradient>
    </defs>
    <g fill="none" fill-rule="evenodd">
        <g fill-rule="nonzero">
            <g>
                <g>
                    <g>
                        <g>
                            <g>
                                <path fill="#2E3690" d="M14.924 14.015c-.023-.086-.04-.173-.054-.262l-.493-3.3h-.01l-1.344-8.975C12.88.528 12.037-.12 11.139.034L1.423 1.701c-.892.154-1.5 1.042-1.358 1.988l1.67 11.18s1.212 8.735 8.797 7.462l6.942-1.164s1.232-.28 2.625-1.264c-3.872-1.769-4.976-5.14-5.175-5.888z" transform="translate(-607 -4291) translate(405 4097) translate(190 182) translate(2.5 2.5) translate(10 10) translate(0 1)"/>
                                <path fill="#2BAAE2" d="M14.375 10.456l.51 3.409s.842 4.042 5.214 6.038c1.907-1.348 4.114-4.02 3.877-9.122-.045-1.027-.936-1.779-1.896-1.617l-7.705 1.292z" transform="translate(-607 -4291) translate(405 4097) translate(190 182) translate(2.5 2.5) translate(10 10) translate(0 1)"/>
                                <path fill="url(#63mi08e94a)" d="M19.155 18.656l-.34-.56c2.7-1.636 3.135-3.685 3.248-5.672-.821-.035-1.526-.595-1.746-1.386l-4.862.815-.107-.645 5.498-.922.049.33c.114.767.698 1.222 1.483 1.152l.37-.032-.014.371c-.07 1.682-.186 4.491-3.58 6.55z" transform="translate(-607 -4291) translate(405 4097) translate(190 182) translate(2.5 2.5) translate(10 10) translate(0 1)"/>
                                <path fill="#FFF" d="M4.306 5.728c-.254 0-.466-.195-.49-.448-.022-.253.153-.482.403-.527l5.876-1.026c.267-.047.521.131.568.398.047.267-.132.522-.399.569L4.391 5.72c-.028.005-.057.008-.085.008zM7.496 9.076c-.243 0-.45-.177-.486-.418l-.212-1.422-3.55.595c-.267.045-.52-.136-.565-.403-.045-.267.136-.52.403-.565l4.042-.678c.13-.022.263.01.37.087.106.078.177.195.197.325l.212 1.42 2.764-.463c.263-.036.507.144.55.406.045.262-.127.511-.388.563l-3.256.546c-.027.004-.054.007-.081.007z" transform="translate(-607 -4291) translate(405 4097) translate(190 182) translate(2.5 2.5) translate(10 10) translate(0 1)"/>
                                <path fill="url(#1145s3d3yb)" d="M8.441 19.47c-.095 0-.188-.027-.267-.079-1.815-1.182-2.282-3.333-2.3-3.428 0-.009 0-.018-.006-.027l-.644-4.308-1.315.221c-.13.022-.263-.01-.37-.087-.106-.077-.177-.194-.196-.324l-.387-2.584c-.033-.177.034-.357.173-.47.14-.114.33-.142.496-.075.166.068.282.221.302.4l.313 2.09 1.315-.222c.13-.021.263.01.37.087.106.078.177.195.196.325l.716 4.785c.035.15.464 1.877 1.873 2.792.182.119.264.343.202.552-.062.208-.254.35-.471.35v.003z" transform="translate(-607 -4291) translate(405 4097) translate(190 182) translate(2.5 2.5) translate(10 10) translate(0 1)"/>
                                <path fill="#FFF" d="M3.25 5.92l-.405.068c-.083.011-.168-.01-.234-.062-.067-.051-.11-.127-.12-.21l-.064-.43c-.03-.175.084-.34.257-.375l.405-.068c.084-.012.168.01.235.061.067.052.11.128.12.211l.063.43c.03.173-.083.34-.256.375zM10.552 6.868l-.406.068c-.083.012-.167-.01-.234-.061-.066-.052-.11-.128-.12-.21l-.064-.431c-.029-.175.087-.342.262-.375l.406-.068c.083-.011.168.01.234.062.067.051.11.127.12.21l.064.43c.03.176-.087.343-.262.375zM9.008 7.127l-.406.068c-.082.01-.165-.012-.23-.063-.066-.051-.109-.126-.119-.209l-.064-.43c-.03-.175.087-.342.262-.374l.405-.068c.084-.012.168.01.235.061.066.052.11.127.119.21l.064.43c.03.177-.089.344-.266.375zM6.022 9.192l-.406.068c-.083.01-.166-.012-.232-.063-.065-.052-.108-.127-.117-.21l-.065-.429c-.03-.174.085-.34.258-.375l.406-.068c.082-.01.165.012.23.063.066.051.109.126.119.209l.06.428c.031.173-.08.34-.253.377z" transform="translate(-607 -4291) translate(405 4097) translate(190 182) translate(2.5 2.5) translate(10 10) translate(0 1)"/>
                            </g>
                        </g>
                    </g>
                </g>
            </g>
        </g>
    </g>
</svg>
