<svg xmlns="http://www.w3.org/2000/svg" width="100" height="100" viewBox="0 0 100 100">
    <g fill="none" fill-rule="evenodd">
        <g fill="#333">
            <g>
                <g>
                    <path d="M23.48 59.792c4.84 0 8.841 3.597 9.474 8.265l.063.689 15.608 5.28c.349.118.708.197 1.073.236l.552.03h7.583c2.454 0 4.806.974 6.541 2.709 1.234 1.234 2.083 2.78 2.47 4.454h3.04l13.412-4.277c2.76-.86 5.73.444 6.954 3.04.724 1.495.765 3.23.114 4.758-.57 1.337-1.622 2.401-2.92 2.986l-.572.221-29.25 9.835-24.852-7.39c-1.02 4.184-4.793 7.289-9.29 7.289-5.062 0-9.205-3.932-9.541-8.908l-.022-.655v-19c0-5.281 4.28-9.562 9.562-9.562zm0 4.166c-2.795 0-5.092 2.124-5.369 4.844l-.028.552v19c0 2.98 2.416 5.396 5.396 5.396 2.794 0 5.092-2.123 5.368-4.844l.028-.552v-19c0-2.98-2.416-5.396-5.396-5.396zm9.562 9.196v13.204l24.504 7.288 28.018-9.419c.326-.106.606-.314.801-.589l.166-.296c.179-.42.168-.898-.04-1.328-.297-.629-.952-.988-1.612-.928l-.329.065-13.708 4.375-.634.099H48.292v-4.167l14.176-.005c-.25-.556-.601-1.067-1.04-1.506-.817-.817-1.884-1.327-3.021-1.456l-.574-.033h-7.58c-.755.001-1.507-.09-2.238-.272l-.724-.212-14.25-4.82zm20.791-71.07C71.046 2.083 85 16.036 85 33.25S71.046 64.417 53.833 64.417 22.667 50.463 22.667 33.25 36.62 2.083 53.833 2.083zm0 4.166c-14.911 0-27 12.088-27 27s12.089 27 27 27c14.912 0 27-12.088 27-27s-12.088-27-27-27zm2.084 10.25v3.642l.18.01c3.575.307 6.421 3.164 6.712 6.743l.024.605h-4.166c0-1.615-1.194-2.952-2.748-3.175l-.002 6.942.18.01c3.575.307 6.421 3.164 6.712 6.743l.024.605v.458c0 3.87-2.98 7.043-6.77 7.35l-.146.005V50H51.75v-3.563l-.221-.006c-3.576-.306-6.422-3.163-6.713-6.743l-.024-.605h4.166c0 1.477.998 2.72 2.356 3.094l.436.081v-6.862l-.221-.007c-3.576-.306-6.422-3.163-6.713-6.742l-.024-.605V27.5c0-3.87 2.98-7.043 6.77-7.35l.188-.012V16.5h4.167zm.002 18.95v6.809c1.412-.203 2.526-1.325 2.718-2.74l.03-.436v-.458c0-1.615-1.194-2.952-2.748-3.175zM51.75 24.32l.417-.028c-1.625 0-2.967 1.207-3.18 2.773l-.029.435v.542c0 1.476.998 2.72 2.356 3.093l.436.082V24.32z" transform="translate(-670 -760) translate(167 757) translate(503 3)"/>
                </g>
            </g>
        </g>
    </g>
</svg>
