<svg xmlns="http://www.w3.org/2000/svg" width="285" height="291" viewBox="0 0 285 291">
    <defs>
        <linearGradient id="togomt0kka" x1="1.78%" x2="92.432%" y1="27.949%" y2="40.918%">
            <stop offset="0%" stop-color="#4864F6"/>
            <stop offset="100%" stop-color="#617BFE"/>
        </linearGradient>
        <linearGradient id="e5h3y2unbb" x1="50%" x2="50%" y1="1.513%" y2="96.763%">
            <stop offset="0%" stop-color="#039BA1"/>
            <stop offset="100%" stop-color="#02696D"/>
        </linearGradient>
    </defs>
    <g fill="none" fill-rule="evenodd">
        <g>
            <g>
                <g>
                    <g transform="translate(-823 -1705) translate(-464 844) translate(465 848) translate(822 13)">
                        <ellipse cx="89.063" cy="15.033" fill="#FF8B16" rx="10.391" ry="15.033"/>
                        <ellipse cx="200.762" cy="200.264" fill="#917FE5" rx="5.566" ry="8.054"/>
                        <ellipse cx="4.824" cy="63.891" fill="#EEEDF2" rx="4.824" ry="6.98"/>
                        <g>
                            <path fill="#E3790D" d="M34.51 76.24l1.713-.832 1.626-.438s2.775-4.245 3.717-10.423c.871-5.713.297-13.053-1.412-17.979l9.712-13.524c3.193 1.39 7.633-.63 10.158-2.738.854-.714 2.87-2.697 2.178-3.7L44.398.844c-.697-1.01-6.48-1.234-6.97 0-1.466 3.706 1.758 10.134 2.726 14.83l-11.4 16.56c-1.445-1.057-3.453.552-4.95 0-1.558-.576-2.606-3.291-4.15-3.291-4.041 0-7.703 2.085-10.31 5.871-.28.407-.438.958-.438 1.533 0 .576.158 1.127.437 1.534l23.878 36.364 1.289 1.995z" transform="translate(222.656 73.018)"/>
                            <path fill="#C0680F" d="M32.97 76.24h1.239l3.662-1.16s1.468-3.098 2.065-4.707c.48-1.293 1.166-3.997 1.166-3.997s.703-4.322.78-6.498c.07-1.992-.34-6.005-.34-6.005s-.178-2.547-.44-3.74c-.273-1.243-1.166-3.568-1.166-3.568s-3.595.678-4.71.678l11.149-16.866c.769.33 1.066 2.37 1.852 3.466.508.71 1.418.652 2.129.734 1.061.121 3.761 0 3.761 0s1.698-.58 2.444-1.01c.671-.387 1.808-1.44 1.808-1.44s2.207-1.664 2.726-2.512c.15-.246.515-.753.782-1.226.357-.635.467-1.552.467-1.552l-5.783.4s-.289.505-.477.341C50.96 23.128 41.102 10.83 41.102 10.83 40.4 9.822 38.663 6.56 38.17 7.79c-1.477 3.696-.975 4.205 0 8.888L26.681 33.19c-2.972-2.15-6.12-3.281-9.17-3.281-4.073 0-7.763 2.079-10.39 5.854-.283.406-.441.955-.441 1.529 0 .573.158 1.123.44 1.529L31.183 75.08l1.786 1.16z" transform="translate(222.656 73.018)"/>
                            <path fill="#C0680F" fill-rule="nonzero" d="M0.742 82.683L5.217 82.683 23.008 58.362 20.712 54.764z" transform="translate(222.656 73.018)"/>
                            <path fill="#FF8B16" d="M31.298 75.606c.584.844 1.53.846 2.114.001 4.674-6.76 5.34-17.9 1.777-28.132l11.42-16.521c3.198 1.386 6.518.993 9.048-1.11.856-.712 1.005-2.403.311-3.404L38.872 1.707c-.698-1.008-1.864-.78-2.354.451-1.468 3.698-1.734 8.403-.765 13.088l-11.42 16.522c-2.954-2.152-6.083-3.284-9.114-3.284-4.048 0-7.716 2.08-10.328 5.858-.28.406-.438.956-.438 1.53 0 .574.158 1.124.438 1.53l26.407 38.204z" transform="translate(222.656 73.018)"/>
                            <path stroke="#FF8B16" stroke-width="3.858" d="M19.297 54.764L0 82.683" transform="translate(222.656 73.018)"/>
                        </g>
                        <g>
                            <path fill="#4864F6" d="M118.008 141.954l-.617 77.306c0 7.827-4.583 11.533-10.232 8.28l-83.567-48.113c-5.651-3.254-10.233-12.238-10.233-20.063v-77.96c0-7.827 4.584-11.533 10.233-8.28l83.567 48.113c1.83 1.054 6.08 1.61 7.567 3.632 3.104 4.22 3.282 11.794 3.282 17.085z" transform="translate(31.172 62.28)"/>
                            <path fill="url(#togomt0kka)" d="M16.924 34.092l1.611-.253 3.097.653 2.847.912s74.392 27.37 105.074 39.244c1.378.534 2.01.661 3.763 1.434.689.304 2.006 1.349 2.006 1.349l2.896 2.701-21.785 52.263-89.822-16.711S19.96 70.659 15.914 43.598c-.05-.34.358-5.086.358-5.086l.257-2.522.395-1.898z" transform="translate(31.172 62.28) rotate(47 77.063 83.117)"/>
                            <path fill="#48BEC5" d="M10.478 48.178l-1.076-6.204s9.16 3.074 10.402 3.443c37.37 11.093 112.014 38.255 112.014 38.255l-18.867 48.315-89.066-12.2-13.407-71.609z" transform="translate(31.172 62.28) rotate(49 70.61 86.98)"/>
                            <path fill="#FFF" d="M106.133 191.137s-26.87-35.33-41.563-42.915c-13.015-6.72-41.562 0-41.562 0V44.026l83.125 42.915v104.196z" transform="translate(31.172 62.28)"/>
                            <path fill="#D8D8D8" d="M104.648 86.978h1.485v7.47s-.173.104-.253 0c-.415-.548-1.232-1.958-1.232-1.958v-5.512z" transform="translate(31.172 62.28)"/>
                            <path fill="#E64F65" d="M99.453 109.528L30.43 73.777 30.43 65.502 99.453 101.253z" transform="translate(31.172 62.28)"/>
                            <path fill="#EBEAEA" d="M23.497 51.06c-4.44-2.767 0-8.108 0-8.108l82.636 43.247s-1.43 3.346-1.43 4.894c0 1.155 1.43 3.401 1.43 3.401S27.936 53.828 23.497 51.06z" transform="translate(31.172 62.28)"/>
                            <path fill="#606060" d="M30.43 90.937L30.43 89.125 99.453 124.897 99.453 126.708zM30.43 99.527L30.43 97.716 99.453 133.488 99.453 135.299zM30.43 110.265L30.43 108.454 99.453 144.226 99.453 146.037zM30.43 119.929L30.43 118.118 99.453 153.89 99.453 155.701z" transform="translate(31.172 62.28)"/>
                            <path fill="#A5B3FF" d="M109.91 141.463l26.455 44.784s-3.012 1.616-4.463 1.898c-23.422 4.552-65.468 12.45-80.18 15.15-3.267.6-5.134.398-5.134.398l63.321-62.23z" transform="translate(31.172 62.28) rotate(-79 91.476 172.604)"/>
                            <path fill="#A5B3FF" d="M53.75 91.51l27.948 45.39s-1.703 1.425-4.424 2.093c-13.68 3.358-54.79 12.887-78.75 18.18-.725.16-3.277.382-5.046.093-1.355-.221-2.136-.808-2.136-.808L53.749 91.51z" transform="translate(31.172 62.28) rotate(103 36.52 124.459)"/>
                            <path fill="url(#e5h3y2unbb)" d="M111.606 128.196l6.725-2.39 2.303-1.172s-.055-.384.142.61c.017.084 0 2.16 0 2.16v3.21s-.01 3.336 0 4.737c.113 16.435.389 56.787 0 80.184-.011.68-.77 4.994-2.445 7.794-1.735 2.9-4.387 4.278-4.387 4.278l-3.358 1.113s1.351-1.938 2.198-4.706c.83-2.715 1.157-6.257 1.16-6.575.267-24.65.182-66.846 0-80.933-.013-1.036-.417-3.288-.851-4.512-.159-.447-.328-.884-.447-1.14-.311-.674-.412-.95-.412-.95l-.628-1.708z" transform="translate(31.172 62.28)"/>
                        </g>
                        <g>
                            <path fill="#609A06" d="M80.108 47.644l-.416 52.145c0 5.28-3.092 7.78-6.903 5.585L16.416 72.92c-3.813-2.195-6.904-8.255-6.904-13.533V6.8c0-5.279 3.092-7.779 6.904-5.585L72.789 33.67c1.235.71 4.102 1.086 5.105 2.45 2.094 2.847 2.214 7.955 2.214 11.525z" transform="translate(118.008 47.247)"/>
                            <path fill="#79C600" d="M44.18 52.003l34.576 52.866s-.765.788-1.892 1.259c-.885.37-1.992.545-3.13-.007-11.33-5.49-42.925-24.262-60.307-34.511-1.343-.792-3.446-7.191-3.446-7.191l34.2-12.416z" transform="translate(118.008 47.247)"/>
                            <path fill="#8CD71B" d="M74.733 47.647l17.822 30.2s-2.027 1.09-3.005 1.28c-15.767 3.063-44.073 8.38-53.977 10.196-2.2.404-3.457.268-3.457.268l42.617-41.944z" transform="translate(118.008 47.247) rotate(-79 62.335 68.636)"/>
                            <path fill="#8CD71B" d="M36.378 14.419l19.615 30.563s-.257.229-.774.463c-.733.332-1.915.73-2.989.994-9.21 2.26-36.885 8.674-53.015 12.237-.487.108-2.206.257-3.397.061-.912-.15-1.439-.545-1.439-.545l42-43.773z" transform="translate(118.008 47.247) rotate(103 25.186 36.626)"/>
                            <path fill="#92DF1C" d="M50.45 13.765c10.206 6.69 25.477 35.466 25.477 35.466L-.11 61.64s35.657-39.128 50.56-47.876z" transform="translate(118.008 47.247) scale(1 -1) rotate(-21 -165.516 0)"/>
                        </g>
                        <path fill="#C8CFD4" fill-rule="nonzero" d="M22.669 29.415l-.04-.497c-.02-.29-.038-.627-.05-1.005-.08-2.596.14-5.402.808-8.013 1.157-4.529 3.436-7.65 7.39-9.054 5.073-1.802 7.725.62 8.953 6.203.3 1.366.494 2.85.607 4.459.043.609.073 1.206.096 1.866.01.284.038 1.223.045 1.405.056 1.452.364 9.81.84 22.824l.583 15.894.191 5.229.054 1.465.019.518.019.349c.01.224.018.484.022.775.023 1.71-.098 3.527-.422 5.195-.574 2.956-1.605 4.709-3.346 5.297-4.597 1.554-6.003-.527-6.097-7.98-.038-2.991-.237-9.78-.554-19.255l-.028-.842c-.149-4.424-.312-9.112-.478-13.767l-.161-4.489-.046-1.253-.016-.443c-.047-1.292-.868-2.087-1.834-1.777-.966.31-1.71 1.61-1.663 2.9l.016.442.046 1.252.161 4.485c.166 4.651.329 9.336.477 13.755.01.282.02.562.028.84.315 9.423.515 16.196.552 19.124.123 9.857 2.923 14 9.811 11.671 3.46-1.17 5.574-4.76 6.507-9.564.426-2.194.576-4.446.547-6.57-.008-.624-.03-1.096-.05-1.38.002.022.002.022-.014-.406l-.053-1.465-.191-5.23-.582-15.867c-.478-13.053-.785-21.404-.842-22.863-.005-.148-.033-1.073-.044-1.386-.026-.726-.059-1.392-.107-2.078-.132-1.868-.359-3.617-.722-5.269-1.645-7.476-5.682-11.162-12.583-8.712-5.387 1.912-8.803 6.593-10.416 12.904-.85 3.33-1.119 6.737-1.02 9.9.025.801.068 1.402.105 1.759l1.75 42.056c.054 1.29.88 2.076 1.845 1.757.965-.319 1.704-1.623 1.65-2.912L22.67 29.415z" transform="rotate(-15 32.386 46.533)"/>
                    </g>
                </g>
            </g>
        </g>
    </g>
</svg>
