<svg xmlns="http://www.w3.org/2000/svg" width="300" height="212" viewBox="0 0 300 212">
    <defs>
        <linearGradient id="ibyofskvma" x1="1.78%" x2="92.432%" y1="33.201%" y2="43.082%">
            <stop offset="0%" stop-color="#4864F6"/>
            <stop offset="100%" stop-color="#617BFE"/>
        </linearGradient>
        <linearGradient id="ud3lthbfob" x1="50%" x2="50%" y1="1.513%" y2="96.763%">
            <stop offset="0%" stop-color="#039BA1"/>
            <stop offset="100%" stop-color="#02696D"/>
        </linearGradient>
    </defs>
    <g fill="none" fill-rule="evenodd">
        <g>
            <g>
                <g transform="translate(-38 -3518) translate(0 3468) translate(38 50)">
                    <ellipse cx="93.75" cy="10.952" fill="#FF8B16" rx="10.938" ry="10.952"/>
                    <ellipse cx="211.328" cy="145.897" fill="#917FE5" rx="5.859" ry="5.867"/>
                    <ellipse cx="5.078" cy="46.546" fill="#EEEDF2" rx="5.078" ry="5.085"/>
                    <g>
                        <path fill="#E3790D" d="M36.326 55.542l1.804-.606 1.71-.319s2.922-3.092 3.914-7.593c.917-4.162.312-9.51-1.487-13.098l10.223-9.853c3.362 1.013 8.035-.459 10.693-1.994.9-.52 3.02-1.965 2.292-2.696L46.735.615c-.734-.736-6.822-.9-7.337 0-1.543 2.7 1.85 7.382 2.869 10.804l-12 12.064c-1.52-.77-3.635.403-5.21 0-1.64-.42-2.744-2.397-4.369-2.397-4.253 0-8.108 1.519-10.853 4.277-.294.296-.46.698-.46 1.117 0 .419.166.82.46 1.117L34.97 54.089l1.357 1.453z" transform="translate(234.375 53.196)"/>
                        <path fill="#C0680F" d="M34.705 55.542h1.304l3.855-.845s1.546-2.257 2.174-3.428c.506-.942 1.228-2.913 1.228-2.913s.74-3.148.82-4.734c.074-1.45-.357-4.374-.357-4.374s-.188-1.856-.463-2.725c-.288-.906-1.228-2.6-1.228-2.6s-3.784.495-4.958.495L48.816 22.13c.809.241 1.122 1.727 1.949 2.525.535.517 1.493.476 2.24.535 1.118.089 3.96 0 3.96 0s1.788-.423 2.573-.736c.707-.282 1.903-1.05 1.903-1.05s2.323-1.211 2.87-1.83c.158-.178.542-.547.822-.892.376-.462.492-1.13.492-1.13l-6.087.291s-.304.367-.503.248C53.642 16.85 43.265 7.89 43.265 7.89c-.739-.734-2.567-3.11-3.086-2.214-1.555 2.693-1.027 3.064 0 6.475L28.085 24.18c-3.129-1.567-6.443-2.39-9.653-2.39-4.286 0-8.17 1.514-10.937 4.264-.297.296-.464.696-.464 1.114 0 .418.167.818.464 1.114l25.33 26.415 1.88.845z" transform="translate(234.375 53.196)"/>
                        <path fill="#C0680F" fill-rule="nonzero" d="M0.781 60.236L5.492 60.236 24.219 42.518 21.802 39.897z" transform="translate(234.375 53.196)"/>
                        <path fill="#FF8B16" d="M32.945 55.08c.615.615 1.61.617 2.226.001 4.92-4.925 5.622-13.04 1.87-20.494l12.02-12.036c3.367 1.01 6.863.723 9.525-.809.9-.519 1.058-1.75.328-2.48L40.918 1.244c-.735-.735-1.962-.569-2.478.328-1.545 2.694-1.826 6.122-.805 9.535l-12.02 12.036c-3.11-1.567-6.405-2.391-9.595-2.391-4.261 0-8.122 1.515-10.871 4.267-.296.296-.462.696-.462 1.114 0 .418.167.82.462 1.115L32.945 55.08z" transform="translate(234.375 53.196)"/>
                        <path stroke="#FF8B16" stroke-width="1.695" d="M20.313 39.897L0 60.236" transform="translate(234.375 53.196)"/>
                    </g>
                    <g>
                        <path fill="#4864F6" d="M124.219 103.417l-.649 56.32c0 5.701-4.825 8.4-10.771 6.031l-87.965-35.051c-5.949-2.37-10.771-8.916-10.771-14.617V59.304c0-5.701 4.824-8.401 10.771-6.031l87.965 35.051c1.926.768 6.4 1.173 7.965 2.646 3.268 3.075 3.455 8.592 3.455 12.447z" transform="translate(32.813 45.373)"/>
                        <path fill="url(#ibyofskvma)" d="M34.298 27.26l1.457-.489 2.617.089 2.356.362s60.986 12.658 86.045 18.408c1.125.258 1.66.27 3.076.684.557.163 1.546.893 1.546.893l2.11 1.967-27.603 50.657-76.277-.551s1.43-39.532 2.248-63.283c.01-.298 1.136-4.645 1.136-4.645l.634-2.316.655-1.776z" transform="translate(32.813 45.373) rotate(47 81.565 63.301)"/>
                        <path fill="#48BEC5" d="M24.702 39.425l.062-5.493s7.457 1.337 8.477 1.475c30.658 4.132 91.091 16.956 91.091 16.956l-24.13 47.146-75.354 3.153-.146-63.237z" transform="translate(32.813 45.373) rotate(49 74.517 68.297)"/>
                        <path fill="#FFF" d="M111.719 139.247s-28.284-25.738-43.75-31.264c-13.7-4.895-43.75 0-43.75 0v-75.91l87.5 31.265v75.91z" transform="translate(32.813 45.373)"/>
                        <path fill="#D8D8D8" d="M110.156 63.365h1.563v5.443s-.183.076-.266 0c-.438-.4-1.297-1.427-1.297-1.427v-4.016z" transform="translate(32.813 45.373)"/>
                        <path fill="#E64F65" d="M104.688 79.793L32.031 53.748 32.031 47.72 104.688 73.765z" transform="translate(32.813 45.373)"/>
                        <path fill="#EBEAEA" d="M24.733 37.199c-4.673-2.017 0-5.907 0-5.907l86.986 31.506s-1.506 2.437-1.506 3.565c0 .841 1.506 2.478 1.506 2.478S29.406 39.215 24.733 37.2z" transform="translate(32.813 45.373)"/>
                        <path fill="#606060" d="M32.031 66.249L32.031 64.93 104.688 90.99 104.688 92.31zM32.031 72.508L32.031 71.188 104.688 97.249 104.688 98.568zM32.031 80.331L32.031 79.011 104.688 105.072 104.688 106.391zM32.031 87.371L32.031 86.052 104.688 112.112 104.688 113.432z" transform="translate(32.813 45.373)"/>
                        <path fill="#A5B3FF" d="M106.202 93.735l22.305 48.218s-2.132 1.5-3.19 1.705c-17.062 3.315-47.71 8.985-58.439 10.9-2.381.426-3.776.103-3.776.103l43.1-60.926z" transform="translate(32.813 45.373) rotate(-79 95.804 124.268)"/>
                        <path fill="#A5B3FF" d="M47.8 60.294l24.044 49.019s-1.167 1.356-3.147 1.855c-9.952 2.507-39.9 9.461-57.371 13.245-.528.114-2.414.163-3.752-.263-1.025-.325-1.65-.99-1.65-.99L47.8 60.295z" transform="translate(32.813 45.373) rotate(103 38.884 92.393)"/>
                        <path fill="url(#ud3lthbfob)" d="M117.48 93.394l7.079-1.742 2.424-.853s-.057-.28.15.444c.017.062 0 1.574 0 1.574v2.338s-.01 2.43 0 3.451c.118 11.973.409 41.37 0 58.416-.012.495-.811 3.638-2.574 5.678-1.826 2.113-4.618 3.117-4.618 3.117l-3.535.81s1.423-1.411 2.314-3.428c.874-1.977 1.217-4.558 1.221-4.79.281-17.958.192-48.698 0-58.961-.014-.755-.439-2.396-.896-3.287-.167-.326-.345-.644-.47-.831-.328-.491-.434-.692-.434-.692l-.661-1.244z" transform="translate(32.813 45.373)"/>
                    </g>
                    <g>
                        <path fill="#609A06" d="M84.324 34.71l-.438 37.989c0 3.846-3.254 5.667-7.266 4.068L17.28 53.124c-4.014-1.599-7.267-6.014-7.267-9.86V4.955c0-3.846 3.255-5.667 7.267-4.069L76.62 24.53c1.3.517 4.318.791 5.374 1.784 2.204 2.075 2.33 5.796 2.33 8.396z" transform="translate(124.219 34.42)"/>
                        <path fill="#79C600" d="M46.505 37.886l36.396 38.513s-.805.574-1.992.918c-.93.269-2.097.397-3.294-.005-11.926-4-45.185-17.676-63.481-25.143-1.414-.577-3.628-5.238-3.628-5.238l36-9.045z" transform="translate(124.219 34.42)"/>
                        <path fill="#8CD71B" d="M72.277 28.425L87.304 60.94s-1.434 1.01-2.146 1.149c-11.487 2.231-32.12 6.047-39.342 7.337-1.604.286-2.543.068-2.543.068l29.004-41.07z" transform="translate(124.219 34.42) rotate(-79 65.289 49.006)"/>
                        <path fill="#8CD71B" d="M32.534 6.211l16.783 33.064s-.175.22-.544.425c-.522.292-1.375.62-2.156.818-6.7 1.688-26.86 6.368-38.623 8.914-.355.077-1.625.11-2.526-.178-.69-.22-1.11-.667-1.11-.667L32.534 6.21z" transform="translate(124.219 34.42) rotate(103 26.837 27.848)"/>
                        <path fill="#92DF1C" d="M49.364 13.751c11.045 6.26 29.604 30.077 29.604 30.077L3.44 45.141s31.806-26.268 45.924-31.39z" transform="translate(124.219 34.42) scale(1 -1) rotate(-21 -117.672 0)"/>
                    </g>
                    <path fill="#C8CFD4" fill-rule="nonzero" d="M22.73 20.202l-.082-.377c-.044-.219-.09-.473-.133-.758-.293-1.954-.293-4.041.183-5.946.826-3.304 2.922-5.461 6.884-6.194 5.085-.94 8.016 1.091 9.734 5.38.42 1.049.74 2.178.987 3.394.093.46.172.91.25 1.408.034.214.138.92.16 1.057.176 1.095 1.17 7.39 2.716 17.192l1.888 11.971.621 3.938.174 1.104.061.39c.02.107.032.168.048.263.03.17.058.365.086.584.162 1.284.185 2.638-.014 3.863-.352 2.171-1.273 3.403-3.02 3.703-4.613.793-6.232-.882-6.932-6.481-.281-2.247-1.037-7.357-2.132-14.49l-.097-.634c-.512-3.331-1.06-6.862-1.608-10.368l-.53-3.38-.148-.944-.053-.334c-.153-.973-1.064-1.636-2.035-1.481-.97.154-1.632 1.068-1.479 2.04l.053.333.148.943.53 3.378c.547 3.503 1.095 7.03 1.606 10.358l.097.633c1.088 7.095 1.843 12.192 2.118 14.392.926 7.405 4.148 10.74 11.06 9.55 3.473-.596 5.361-3.12 5.934-6.647.261-1.612.233-3.29.031-4.884-.059-.47-.12-.826-.164-1.04.005.016.005.016-.046-.306l-.174-1.104-.621-3.938-1.885-11.952c-1.55-9.831-2.544-16.121-2.72-17.22-.018-.112-.122-.808-.158-1.044-.086-.547-.174-1.05-.28-1.568-.287-1.412-.662-2.742-1.17-4.011-2.302-5.742-6.763-8.835-13.679-7.556-5.398.998-8.54 4.233-9.692 8.837-.607 2.43-.607 4.964-.25 7.345.091.603.184 1.057.252 1.328l5.211 31.693c.16.972 1.075 1.63 2.045 1.468.969-.16 1.625-1.079 1.465-2.05l-5.24-31.838z" transform="rotate(-15 34.374 34.029)"/>
                </g>
            </g>
        </g>
    </g>
</svg>
