<svg width="1em" height="1em" viewBox="0 0 270 223" fill="none" xmlns="http://www.w3.org/2000/svg">
<path fill-rule="evenodd" clip-rule="evenodd" d="M270 109.298L201.096 71.6975L132.188 109.298V184.497L201.096 222.098L270 184.497V109.298ZM137.812 115.597V181.432L198.281 214.428V148.544L137.812 115.597ZM264.375 181.267L203.908 214.417V148.545L264.375 115.597V181.267ZM261.719 110.913L201.098 77.8329L140.614 110.992L201.096 143.946L261.719 110.913Z" fill="#F0F5F5"/>
<path fill-rule="evenodd" clip-rule="evenodd" d="M137.812 109.298L68.9082 71.6975L0 109.298V184.497L68.9082 222.098L137.812 184.497V109.298ZM5.625 115.597V181.432L66.0938 214.428V148.544L5.625 115.597ZM132.188 181.267L71.7206 214.417V148.545L132.188 115.597V181.267ZM129.531 110.913L68.9105 77.8329L8.42635 110.992L68.908 143.946L129.531 110.913Z" fill="#F0F5F5"/>
<path fill-rule="evenodd" clip-rule="evenodd" d="M270 37.6003L201.096 0L132.188 37.6003V112.8L201.096 150.4L270 112.8V37.6003ZM137.812 43.8997V109.735L198.281 142.73V76.8468L137.812 43.8997ZM264.375 109.57L203.908 142.719V76.8477L264.375 43.8998V109.57ZM261.719 39.2154L201.098 6.1354L140.614 39.2943L201.096 72.2483L261.719 39.2154Z" fill="#F0F5F5"/>
</svg>
