<svg width="1em" height="1em" viewBox="0 0 270 223" fill="none" xmlns="http://www.w3.org/2000/svg">
  <path fill-rule="evenodd" clip-rule="evenodd"
    d="M270 37.6003L201.096 0L132.188 37.6003V112.8L201.096 150.4L270 112.8V37.6003ZM137.813 43.8998V109.735L198.281 142.73V76.8468L137.813 43.8998ZM264.375 109.57L203.908 142.719V76.8478L264.375 43.8999V109.57ZM261.719 39.2154L201.098 6.13541L140.614 39.2943L201.096 72.2484L261.719 39.2154Z"
    fill="#F0F5F5" />
  <path fill-rule="evenodd" clip-rule="evenodd"
    d="M137.813 37.6003L68.9082 0L0 37.6003V112.8L68.9082 150.4L137.813 112.8V37.6003ZM5.625 43.8998V109.735L66.0938 142.73V76.8468L5.625 43.8998ZM132.188 109.57L71.7206 142.719V76.8478L132.188 43.8999V109.57ZM129.531 39.2154L68.9105 6.13541L8.42636 39.2943L68.9081 72.2484L129.531 39.2154Z"
    fill="#F0F5F5" />
  <path fill-rule="evenodd" clip-rule="evenodd"
    d="M137.813 109.298L68.9082 71.6975L0 109.298V184.497L68.9082 222.098L137.813 184.497V109.298ZM5.625 115.597V181.433L66.0938 214.428V148.544L5.625 115.597ZM132.188 181.268L71.7206 214.417V148.545L132.188 115.597V181.268ZM129.531 110.913L68.9105 77.8329L8.42636 110.992L68.9081 143.946L129.531 110.913Z"
    fill="#F0F5F5" />
</svg>
